<svg width="105" height="22" viewBox="0 0 105 22" fill="none" xmlns="http://www.w3.org/2000/svg">
<path opacity="0.6" fill-rule="evenodd" clip-rule="evenodd" d="M58.0684 5.50989H50.2372C45.8634 5.50989 42.3177 9.19822 42.3177 13.748C42.3177 18.2978 45.8634 21.9861 50.2372 21.9861H58.0684V18.7531H50.2372C47.5799 18.7531 45.4257 16.5122 45.4257 13.748C45.4257 10.9838 47.5799 8.74291 50.2372 8.74291H58.0684V5.50989Z" fill="#F974CC"/>
<path fill-rule="evenodd" clip-rule="evenodd" d="M23.6393 0V21.9683H26.7472V20.0801C28.1174 21.2595 29.8756 21.9683 31.7929 21.9683C36.1667 21.9683 39.7123 18.2799 39.7123 13.7302C39.7123 9.18038 36.1667 5.49205 31.7929 5.49205C29.8756 5.49205 28.1174 6.20083 26.7472 7.38026L26.7472 0H23.6393ZM31.7929 18.7353C29.1356 18.7353 26.9814 16.4944 26.9814 13.7302C26.9814 10.9659 29.1356 8.72507 31.7929 8.72507C34.4502 8.72507 36.6044 10.9659 36.6044 13.7302C36.6044 16.4944 34.4502 18.7353 31.7929 18.7353ZM2.25058 15.3448V5.5463H0V15.3448C0 19.0203 2.86439 22 6.39778 22C9.93118 22 12.7956 19.0203 12.7956 15.3448V5.5463H10.545V15.3448C10.545 17.7274 8.68822 19.6588 6.39778 19.6588C4.10735 19.6588 2.25058 17.7274 2.25058 15.3448ZM16.225 5.54634V21.9387H18.4756L18.4756 5.54634H16.225ZM96.8018 8.6957V15.8522C96.8018 19.2215 99.4275 21.9529 102.667 21.9529H104.991V18.7199H102.667C101.144 18.7199 99.9097 17.436 99.9097 15.8522V8.6957H105V5.46268H99.9097V0H96.8018V5.46268H94.4408V8.6957H96.8018ZM76.5988 10.3832C76.5988 7.66565 78.744 5.46268 81.3903 5.46268H90.9384V8.65429H81.3903C80.4605 8.65429 79.7067 9.42833 79.7067 10.3832C79.7067 11.338 80.4605 12.112 81.3903 12.112L83.9998 12.1121H87.0772C89.7235 12.1121 91.8687 14.315 91.8687 17.0325C91.8687 19.75 89.7235 21.953 87.0772 21.953H76.7001V18.7614H87.0772C88.007 18.7614 88.7608 17.9874 88.7608 17.0325C88.7608 16.0777 88.007 15.3037 87.0772 15.3037L83.1751 15.3036H81.3903C78.744 15.3036 76.5988 13.1007 76.5988 10.3832ZM66.124 8.74295H58.2046C55.5473 8.74295 53.3932 10.9838 53.3932 13.748C53.3932 16.5123 55.5473 18.7531 58.2046 18.7531H66.1241C68.7814 18.7531 70.9355 16.5123 70.9355 13.748C70.9355 10.9838 68.7813 8.74295 66.124 8.74295ZM58.2046 5.50993C53.8309 5.50993 50.2852 9.19826 50.2852 13.748C50.2852 18.2978 53.8309 21.9862 58.2046 21.9862H66.1241C70.4978 21.9862 74.0435 18.2978 74.0435 13.748C74.0435 9.19826 70.4978 5.50993 66.124 5.50993H58.2046Z" fill="#F974CC"/>
</svg>
