<svg width="225" height="225" viewBox="0 0 225 225" fill="none" xmlns="http://www.w3.org/2000/svg">
<circle cx="112.5" cy="112.5" r="112.5" fill="url(#paint0_linear_218_20908)"/>
<path d="M97.7797 24.2527L99.1367 24.0764L104.021 29.7241L103.22 23.5458L104.577 23.3694L105.651 31.6548L104.294 31.8311L99.4114 26.1953L100.211 32.3618L98.8538 32.5381L97.7797 24.2527Z" fill="white"/>
<path d="M89.4987 26.0196C90.2502 25.8254 90.9886 25.8205 91.7139 26.005C92.4334 26.1993 93.06 26.5622 93.5937 27.0938C94.1217 27.6351 94.4876 28.301 94.6913 29.0914C94.8951 29.8818 94.8958 30.638 94.6935 31.3598C94.4834 32.0836 94.1095 32.7009 93.5718 33.2118C93.0284 33.7325 92.3809 34.0899 91.6293 34.2842C90.87 34.4804 90.1306 34.4814 89.4112 34.2871C88.6859 34.1026 88.0603 33.7435 87.5343 33.21C87.0083 32.6764 86.6435 32.0144 86.4397 31.224C86.2359 30.4336 86.2342 29.6736 86.4345 28.944C86.6369 28.2222 87.0097 27.601 87.5532 27.0803C88.0909 26.5694 88.7394 26.2159 89.4987 26.0196ZM89.7954 27.1704C89.2607 27.3085 88.8152 27.5518 88.4587 27.9002C88.1043 28.2563 87.8688 28.6891 87.7522 29.1986C87.6299 29.7179 87.6456 30.2759 87.7995 30.8726C87.9533 31.4692 88.2082 31.9613 88.5643 32.3487C88.9126 32.738 89.3269 32.9988 89.8073 33.1309C90.2876 33.263 90.7951 33.2599 91.3297 33.1218C91.8643 32.9836 92.3098 32.7403 92.6663 32.392C93.0227 32.0436 93.2631 31.6137 93.3875 31.1022C93.504 30.5926 93.4854 30.0395 93.3316 29.4428C93.1777 28.8462 92.9257 28.3492 92.5753 27.9521C92.2193 27.5647 91.8001 27.3011 91.3178 27.1613C90.8374 27.0292 90.33 27.0322 89.7954 27.1704Z" fill="white"/>
<path d="M80.9186 37.754L80.5353 36.7055L82.6204 35.9414L80.1392 29.1544L81.4241 28.6835L83.9053 35.4705L86.0016 34.7023L86.3849 35.7508L80.9186 37.754Z" fill="white"/>
<path d="M72.783 34.3228L75.9247 32.7958L75.7208 30.9997L77.0056 30.3752L77.9624 39.1995L76.5373 39.8921L70.204 33.6811L71.4995 33.0514L72.783 34.3228ZM73.6155 35.1594L76.5271 38.0552L76.0663 33.9682L73.6155 35.1594Z" fill="white"/>
<path d="M61.3865 49.578L56.389 42.8977L57.4838 42.0767L59.6698 44.9988L62.8101 42.6438L60.6242 39.7217L61.719 38.9007L66.7164 45.581L65.6216 46.402L63.4788 43.5377L60.3385 45.8927L62.4813 48.757L61.3865 49.578Z" fill="white"/>
<path d="M50.2674 48.3017C50.8278 47.7646 51.4693 47.3991 52.1919 47.2053C52.9143 47.0228 53.6381 47.033 54.3634 47.2357C55.0884 47.4497 55.733 47.8517 56.2971 48.4417C56.8612 49.0317 57.2314 49.6911 57.4079 50.4199C57.5785 51.1542 57.5543 51.8757 57.3352 52.5846C57.1158 53.3047 56.726 53.9333 56.1656 54.4705C55.5994 55.0131 54.9551 55.3757 54.2327 55.5582C53.5101 55.7519 52.7891 55.7447 52.0696 55.5365C51.3501 55.3282 50.7083 54.9291 50.1442 54.3391C49.5801 53.7491 49.207 53.0869 49.0251 52.3523C48.8486 51.6235 48.8701 50.8991 49.0895 50.1789C49.3086 49.4701 49.7012 48.8444 50.2674 48.3017ZM51.0886 49.1606C50.69 49.5427 50.4204 49.9729 50.2799 50.4512C50.1449 50.9354 50.1511 51.4282 50.2985 51.9298C50.4457 52.4428 50.7322 52.9219 51.1581 53.3673C51.5839 53.8127 52.0468 54.1173 52.5466 54.2811C53.0407 54.4504 53.5295 54.4753 54.0129 54.3555C54.4963 54.2358 54.9374 53.9849 55.336 53.6028C55.7346 53.2208 56.0042 52.7906 56.1448 52.3122C56.2853 51.8339 56.2847 51.3412 56.1431 50.834C55.9956 50.3324 55.709 49.8589 55.2831 49.4135C54.8573 48.9682 54.3946 48.6579 53.895 48.4828C53.3951 48.3189 52.9007 48.294 52.4117 48.4079C51.9283 48.5276 51.4873 48.7785 51.0886 49.1606Z" fill="white"/>
<path d="M48.5178 62.7403L47.6709 62.013L49.1157 60.3265L43.6333 55.6186L44.5236 54.5793L50.0059 59.2872L51.4585 57.5916L52.3054 58.3189L48.5178 62.7403Z" fill="white"/>
<path d="M43.2267 70.5172L36.2758 65.9036L37.0313 64.7626L41.7919 67.9224L38.4362 62.6407L38.9597 61.85L45.1319 62.878L40.3713 59.7181L41.1268 58.5771L48.0777 63.1907L47.2626 64.4218L40.1949 63.2461L44.0352 69.2961L43.2267 70.5172Z" fill="white"/>
<path d="M32.6285 76.628L34.113 73.466L32.8258 72.1969L33.4329 70.9038L39.7219 77.1672L39.0485 78.6015L30.2189 77.7494L30.8311 76.4455L32.6285 76.628ZM33.8018 76.7557L37.8864 77.179L34.9598 74.2891L33.8018 76.7557Z" fill="white"/>
<path d="M27.4043 85.541L31.1866 84.8273L31.5301 83.841L28.3795 82.741L28.8296 81.4487L36.706 84.1988L35.7584 86.9194C35.5479 87.524 35.2644 87.9972 34.9081 88.339C34.5491 88.6883 34.1566 88.903 33.7304 88.9831C33.3016 89.0707 32.8681 89.038 32.4299 88.885C31.9161 88.7056 31.5003 88.3909 31.1825 87.9409C30.8696 87.5011 30.7456 86.945 30.8103 86.2725L26.8673 87.0827L27.4043 85.541ZM32.5614 84.2011L32.0639 85.6294C31.8954 86.1131 31.89 86.5181 32.0475 86.8443C32.2024 87.1781 32.4839 87.4163 32.8918 87.5587C33.2998 87.7012 33.6593 87.691 33.9702 87.5283C34.2886 87.3683 34.5334 87.0426 34.7045 86.5514L35.202 85.1231L32.5614 84.2011Z" fill="white"/>
<path d="M33.2539 95.9218L32.1735 95.6409L32.7312 93.4913L25.7374 91.6726L26.081 90.348L33.0748 92.1667L33.6354 90.0055L34.7159 90.2865L33.2539 95.9218Z" fill="white"/>
<path d="M26.2218 103.475C26.2505 103.188 26.3444 102.932 26.5036 102.707C26.67 102.491 26.8759 102.322 27.1211 102.202C27.3735 102.091 27.643 102.049 27.9297 102.078C28.3677 102.122 28.7228 102.31 28.9952 102.643C29.2675 102.976 29.3822 103.357 29.3392 103.787C29.2947 104.233 29.106 104.592 28.7732 104.865C28.4404 105.137 28.055 105.251 27.617 105.207C27.1791 105.163 26.8239 104.975 26.5516 104.642C26.2872 104.31 26.1773 103.921 26.2218 103.475Z" fill="white"/>
<path d="M23.8769 122.737L23.7677 121.373L29.6492 116.771L23.4392 117.269L23.33 115.905L31.6579 115.237L31.7671 116.601L25.8976 121.202L32.0957 120.705L32.2049 122.069L23.8769 122.737Z" fill="white"/>
<path d="M25.2342 131.111C25.0775 130.351 25.1092 129.613 25.3294 128.897C25.5591 128.188 25.9525 127.579 26.5098 127.072C27.0765 126.571 27.7595 126.238 28.5589 126.072C29.3583 125.907 30.1133 125.943 30.8241 126.18C31.5364 126.426 32.1344 126.829 32.6179 127.391C33.1109 127.959 33.4357 128.624 33.5924 129.384C33.7507 130.152 33.7151 130.891 33.4854 131.6C33.2652 132.316 32.8757 132.923 32.3168 133.423C31.7579 133.922 31.0788 134.255 30.2794 134.42C29.4801 134.585 28.7211 134.55 28.0025 134.314C27.2918 134.077 26.6899 133.674 26.197 133.106C25.7134 132.544 25.3925 131.879 25.2342 131.111ZM26.398 130.87C26.5095 131.411 26.7303 131.868 27.0605 132.241C27.3985 132.613 27.819 132.869 28.322 133.01C28.8345 133.157 29.3925 133.169 29.9959 133.044C30.5994 132.919 31.1033 132.689 31.5078 132.352C31.9139 132.023 32.1948 131.622 32.3505 131.148C32.5062 130.675 32.5283 130.167 32.4168 129.627C32.3054 129.086 32.0845 128.629 31.7544 128.256C31.4242 127.883 31.0068 127.622 30.5021 127.473C29.9991 127.332 29.4459 127.323 28.8424 127.448C28.239 127.573 27.7303 127.8 27.3164 128.131C26.9119 128.468 26.6279 128.874 26.4643 129.349C26.3086 129.822 26.2865 130.33 26.398 130.87Z" fill="white"/>
<path d="M36.5279 140.265L35.4621 140.597L34.8028 138.476L27.9037 140.626L27.4975 139.32L34.3965 137.169L33.7336 135.037L34.7994 134.705L36.5279 140.265Z" fill="white"/>
<path d="M32.7015 148.236L31.3334 145.022L29.5306 145.138L28.9711 143.824L37.8262 143.295L38.4467 144.753L31.9329 150.782L31.3687 149.457L32.7015 148.236ZM33.5778 147.444L36.6128 144.674L32.5107 144.937L33.5778 147.444Z" fill="white"/>
<path d="M47.3676 160.38L40.4555 165.052L39.6905 163.917L42.7139 161.874L40.5196 158.619L37.4962 160.662L36.7312 159.528L43.6433 154.856L44.4083 155.991L41.4446 157.994L43.6389 161.249L46.6026 159.246L47.3676 160.38Z" fill="white"/>
<path d="M45.5504 171.439C45.0421 170.852 44.7091 170.193 44.5513 169.461C44.4048 168.729 44.4505 168.006 44.6884 167.291C44.9376 166.576 45.3704 165.951 45.9867 165.416C46.603 164.881 47.279 164.543 48.0147 164.402C48.7556 164.267 49.4742 164.327 50.1706 164.581C50.8782 164.835 51.4861 165.256 51.9944 165.843C52.5079 166.436 52.8379 167.098 52.9844 167.829C53.1422 168.561 53.0995 169.282 52.8563 169.991C52.6132 170.7 52.1835 171.323 51.5672 171.858C50.9509 172.393 50.2718 172.734 49.5301 172.88C48.7944 173.02 48.0728 172.963 47.3651 172.709C46.6688 172.455 46.0639 172.032 45.5504 171.439ZM46.4476 170.66C46.8092 171.077 47.2251 171.368 47.6954 171.532C48.1717 171.69 48.6637 171.708 49.1713 171.585C49.6902 171.463 50.1823 171.2 50.6476 170.796C51.1128 170.392 51.4395 169.944 51.6275 169.452C51.8207 168.967 51.8695 168.479 51.7739 167.99C51.6782 167.501 51.4496 167.047 51.0881 166.63C50.7265 166.213 50.3106 165.922 49.8403 165.758C49.3701 165.594 48.8785 165.57 48.3656 165.687C47.858 165.81 47.3715 166.074 46.9063 166.478C46.441 166.882 46.1088 167.329 45.9095 167.82C45.7215 168.312 45.6722 168.805 45.7619 169.3C45.8575 169.789 46.0861 170.242 46.4476 170.66Z" fill="white"/>
<path d="M59.8707 173.896L59.1037 174.708L57.492 173.18L52.5271 178.431L51.5339 177.489L56.4988 172.239L54.8784 170.703L55.6454 169.891L59.8707 173.896Z" fill="white"/>
<path d="M67.3725 179.57L62.431 186.292L61.3294 185.48L64.7137 180.877L59.2807 183.971L58.5173 183.408L59.8434 177.287L56.459 181.891L55.3574 181.079L60.2989 174.358L61.4875 175.233L59.9704 182.242L66.1935 178.702L67.3725 179.57Z" fill="white"/>
<path d="M72.9515 190.463L69.8678 188.822L68.5387 190.045L67.2777 189.374L73.8336 183.399L75.2324 184.143L73.9538 192.927L72.6821 192.25L72.9515 190.463ZM73.1358 189.296L73.7563 185.234L70.7303 188.016L73.1358 189.296Z" fill="white"/>
<path d="M81.5876 196.12L81.0585 192.305L80.0906 191.913L78.8398 195.007L77.5716 194.493L80.6986 186.758L83.3686 187.84C83.9619 188.081 84.4206 188.388 84.7445 188.761C85.0758 189.137 85.2711 189.54 85.3304 189.97C85.3971 190.403 85.3434 190.834 85.1695 191.264C84.9655 191.769 84.6312 192.169 84.1665 192.464C83.7123 192.755 83.1511 192.851 82.483 192.753L83.1006 196.734L81.5876 196.12ZM80.5001 190.9L81.9018 191.468C82.3765 191.661 82.7805 191.686 83.1138 191.545C83.4545 191.407 83.7059 191.138 83.8679 190.737C84.0298 190.336 84.0372 189.977 83.8898 189.658C83.7455 189.332 83.4323 189.071 82.9502 188.875L81.5484 188.307L80.5001 190.9Z" fill="white"/>
<path d="M92.2294 190.786L91.8965 191.852L89.7773 191.188L87.622 198.086L86.3161 197.677L88.4714 190.779L86.3408 190.112L86.6738 189.046L92.2294 190.786Z" fill="white"/>
<path d="M99.4167 198.18C99.1318 198.137 98.8807 198.031 98.6634 197.861C98.4552 197.684 98.2971 197.47 98.189 197.219C98.09 196.961 98.0619 196.69 98.1045 196.405C98.1697 195.97 98.3752 195.624 98.7209 195.369C99.0667 195.113 99.4532 195.018 99.8806 195.082C100.324 195.148 100.673 195.354 100.929 195.7C101.185 196.046 101.28 196.437 101.215 196.872C101.15 197.307 100.944 197.653 100.598 197.908C100.254 198.156 99.8599 198.247 99.4167 198.18Z" fill="white"/>
<path d="M118.521 201.466L117.153 201.509L112.845 195.409L113.038 201.636L111.67 201.678L111.412 193.327L112.78 193.285L117.087 199.373L116.895 193.158L118.263 193.115L118.521 201.466Z" fill="white"/>
<path d="M126.935 200.521C126.168 200.64 125.432 200.572 124.729 200.318C124.032 200.054 123.444 199.631 122.964 199.05C122.492 198.459 122.193 197.761 122.068 196.954C121.942 196.147 122.016 195.395 122.288 194.697C122.568 193.997 123 193.419 123.585 192.964C124.177 192.499 124.857 192.207 125.624 192.087C126.399 191.966 127.134 192.038 127.832 192.302C128.535 192.557 129.123 192.975 129.594 193.558C130.065 194.141 130.363 194.835 130.489 195.642C130.614 196.448 130.541 197.205 130.271 197.911C129.999 198.609 129.567 199.191 128.975 199.656C128.39 200.112 127.71 200.4 126.935 200.521ZM126.752 199.346C127.298 199.261 127.765 199.063 128.154 198.751C128.542 198.432 128.818 198.024 128.984 197.528C129.157 197.024 129.196 196.467 129.101 195.858C129.006 195.249 128.801 194.734 128.484 194.314C128.176 193.892 127.789 193.592 127.324 193.414C126.859 193.235 126.354 193.188 125.808 193.273C125.262 193.358 124.795 193.557 124.406 193.868C124.017 194.18 123.736 194.584 123.562 195.081C123.396 195.577 123.361 196.129 123.455 196.738C123.55 197.347 123.752 197.866 124.062 198.296C124.378 198.716 124.77 199.019 125.236 199.206C125.701 199.385 126.207 199.431 126.752 199.346Z" fill="white"/>
<path d="M136.623 189.685L136.901 190.766L134.751 191.322L136.556 198.319L135.231 198.662L133.426 191.665L131.265 192.223L130.986 191.142L136.623 189.685Z" fill="white"/>
<path d="M144.383 193.898L141.107 195.109L141.134 196.917L139.794 197.412L139.706 188.537L141.192 187.987L146.887 194.789L145.536 195.289L144.383 193.898ZM143.636 192.984L141.022 189.816L141.081 193.929L143.636 192.984Z" fill="white"/>
<path d="M157.219 179.835L161.538 186.973L160.368 187.682L158.479 184.56L155.122 186.596L157.011 189.718L155.841 190.428L151.523 183.29L152.693 182.58L154.544 185.641L157.901 183.605L156.049 180.544L157.219 179.835Z" fill="white"/>
<path d="M168.158 182.196C167.548 182.675 166.874 182.976 166.136 183.098C165.399 183.209 164.679 183.128 163.977 182.855C163.277 182.571 162.675 182.108 162.171 181.465C161.668 180.823 161.364 180.13 161.26 179.388C161.162 178.64 161.257 177.924 161.544 177.241C161.833 176.545 162.283 175.958 162.893 175.478C163.51 174.994 164.187 174.696 164.923 174.585C165.662 174.463 166.378 174.541 167.074 174.819C167.77 175.097 168.369 175.557 168.873 176.199C169.376 176.842 169.683 177.538 169.792 178.286C169.896 179.029 169.804 179.748 169.515 180.443C169.227 181.127 168.775 181.711 168.158 182.196ZM167.425 181.26C167.859 180.919 168.17 180.517 168.357 180.055C168.538 179.587 168.581 179.096 168.483 178.582C168.387 178.057 168.149 177.552 167.769 177.067C167.388 176.582 166.958 176.234 166.476 176.022C166.001 175.805 165.517 175.732 165.024 175.804C164.531 175.876 164.068 176.082 163.634 176.423C163.2 176.764 162.889 177.166 162.702 177.628C162.516 178.09 162.468 178.581 162.559 179.099C162.657 179.613 162.896 180.112 163.276 180.597C163.656 181.082 164.086 181.436 164.566 181.66C165.047 181.872 165.537 181.945 166.035 181.88C166.528 181.808 166.991 181.601 167.425 181.26Z" fill="white"/>
<path d="M171.314 167.999L172.085 168.806L170.482 170.343L175.477 175.565L174.489 176.512L169.494 171.289L167.883 172.835L167.111 172.028L171.314 167.999Z" fill="white"/>
<path d="M177.341 160.779L183.806 166.052L182.942 167.113L178.514 163.502L181.336 169.087L180.738 169.823L174.696 168.195L179.124 171.806L178.26 172.868L171.795 167.594L172.727 166.449L179.645 168.312L176.417 161.915L177.341 160.779Z" fill="white"/>
<path d="M188.486 155.738L186.699 158.739L187.855 160.128L187.124 161.356L181.48 154.505L182.29 153.144L190.993 154.858L190.256 156.096L188.486 155.738ZM187.331 155.495L183.307 154.674L185.937 157.837L187.331 155.495Z" fill="white"/>
<path d="M194.557 147.381L190.724 147.72L190.285 148.668L193.313 150.072L192.738 151.314L185.17 147.804L186.379 145.189C186.648 144.608 186.976 144.165 187.364 143.86C187.756 143.547 188.167 143.372 188.599 143.334C189.035 143.289 189.463 143.364 189.884 143.56C190.378 143.788 190.761 144.142 191.033 144.622C191.301 145.09 191.37 145.656 191.24 146.319L195.243 145.899L194.557 147.381ZM189.294 148.208L189.929 146.836C190.144 146.371 190.189 145.968 190.065 145.628C189.943 145.281 189.686 145.016 189.294 144.834C188.902 144.652 188.544 144.627 188.218 144.759C187.886 144.887 187.61 145.187 187.392 145.659L186.757 147.032L189.294 148.208Z" fill="white"/>
<path d="M189.753 136.476L190.8 136.862L190.035 138.946L196.816 141.442L196.345 142.727L189.563 140.231L188.794 142.327L187.746 141.941L189.753 136.476Z" fill="white"/>
<path d="M197.49 129.649C197.434 129.932 197.315 130.177 197.135 130.386C196.948 130.585 196.727 130.733 196.471 130.828C196.209 130.914 195.936 130.929 195.654 130.872C195.222 130.786 194.887 130.563 194.649 130.205C194.411 129.847 194.334 129.456 194.419 129.033C194.507 128.593 194.73 128.254 195.087 128.016C195.445 127.778 195.84 127.702 196.272 127.789C196.703 127.875 197.038 128.098 197.277 128.456C197.507 128.812 197.578 129.21 197.49 129.649Z" fill="white"/>
<path d="M201.711 110.711L201.686 112.079L195.382 116.082L201.611 116.196L201.586 117.564L193.233 117.411L193.258 116.043L199.549 112.04L193.332 111.927L193.357 110.558L201.711 110.711Z" fill="white"/>
<path d="M201.18 102.244C201.262 103.016 201.158 103.748 200.869 104.438C200.571 105.121 200.12 105.688 199.515 106.138C198.902 106.582 198.19 106.846 197.378 106.932C196.566 107.018 195.818 106.908 195.134 106.602C194.449 106.288 193.894 105.828 193.468 105.221C193.033 104.608 192.774 103.915 192.693 103.143C192.611 102.363 192.718 101.631 193.016 100.948C193.306 100.257 193.753 99.6909 194.358 99.2486C194.963 98.8064 195.671 98.5423 196.483 98.4563C197.295 98.3704 198.047 98.48 198.739 98.7849C199.423 99.0908 199.982 99.5506 200.417 100.164C200.844 100.771 201.098 101.464 201.18 102.244ZM199.998 102.369C199.94 101.82 199.765 101.344 199.473 100.94C199.173 100.538 198.78 100.241 198.293 100.051C197.798 99.8543 197.243 99.7882 196.631 99.853C196.018 99.9179 195.494 100.098 195.058 100.394C194.622 100.681 194.303 101.053 194.102 101.509C193.9 101.965 193.829 102.467 193.887 103.016C193.945 103.565 194.12 104.042 194.412 104.446C194.704 104.849 195.094 105.15 195.581 105.348C196.068 105.538 196.618 105.6 197.231 105.535C197.843 105.47 198.372 105.294 198.816 105.005C199.252 104.71 199.574 104.334 199.783 103.877C199.985 103.421 200.056 102.919 199.998 102.369Z" fill="white"/>
<path d="M190.837 92.0262L191.93 91.8003L192.379 93.9752L199.455 92.5125L199.732 93.8527L192.655 95.3155L193.106 97.5022L192.013 97.7282L190.837 92.0262Z" fill="white"/>
<path d="M195.426 84.4691L196.473 87.8017L198.279 87.8625L198.707 89.2253L189.842 88.8826L189.367 87.3708L196.441 82.0103L196.872 83.3846L195.426 84.4691ZM194.476 85.1708L191.185 87.6292L195.293 87.7705L194.476 85.1708Z" fill="white"/>
<path d="M182.02 70.9435L189.357 66.9725L190.007 68.1767L186.798 69.9136L188.662 73.3676L191.872 71.6307L192.522 72.8348L185.185 76.8058L184.535 75.6017L187.681 73.899L185.816 70.445L182.67 72.1477L182.02 70.9435Z" fill="white"/>
<path d="M184.912 60.1158C185.36 60.7495 185.627 61.4384 185.712 62.1824C185.786 62.9245 185.67 63.6399 185.363 64.3284C185.045 65.0151 184.553 65.5945 183.887 66.0667C183.221 66.5389 182.515 66.809 181.769 66.8769C181.019 66.9383 180.309 66.8086 179.641 66.4877C178.962 66.165 178.398 65.6867 177.95 65.053C177.497 64.4128 177.233 63.7216 177.159 62.9795C177.074 62.2355 177.187 61.5225 177.499 60.8404C177.81 60.1584 178.299 59.5813 178.965 59.1091C179.631 58.6369 180.34 58.3645 181.092 58.2919C181.838 58.224 182.551 58.3514 183.23 58.6742C183.898 58.995 184.459 59.4756 184.912 60.1158ZM183.942 60.8033C183.623 60.3525 183.238 60.0225 182.786 59.8132C182.328 59.6086 181.84 59.5425 181.322 59.615C180.794 59.6856 180.279 59.8992 179.776 60.2556C179.273 60.6121 178.904 61.0258 178.669 61.4969C178.429 61.9614 178.333 62.4417 178.38 62.938C178.427 63.4343 178.61 63.9079 178.929 64.3586C179.248 64.8094 179.633 65.1394 180.085 65.3487C180.537 65.558 181.024 65.6296 181.546 65.5636C182.063 65.4911 182.573 65.2766 183.076 64.9202C183.579 64.5637 183.953 64.1509 184.2 63.6818C184.435 63.2108 184.532 62.7248 184.492 62.2239C184.444 61.7276 184.261 61.254 183.942 60.8033Z" fill="white"/>
<path d="M170.9 56.2648L171.743 55.5327L173.197 57.2111L178.653 52.4725L179.549 53.5067L174.094 58.2453L175.556 59.9328L174.713 60.6648L170.9 56.2648Z" fill="white"/>
<path d="M163.991 49.8823L169.567 43.6772L170.584 44.5932L166.765 48.843L172.475 46.2965L173.179 46.9312L171.259 52.8924L175.079 48.6426L176.095 49.5585L170.519 55.7636L169.422 54.7754L171.619 47.9491L165.079 50.8625L163.991 49.8823Z" fill="white"/>
<path d="M159.505 38.4939L162.413 40.4294L163.855 39.3419L165.045 40.1334L157.935 45.4374L156.616 44.5594L158.749 35.9431L159.948 36.7413L159.505 38.4939ZM159.207 39.6367L158.192 43.6184L161.476 41.1466L159.207 39.6367Z" fill="white"/>
<path d="M151.464 32.0155L151.617 35.8645L152.542 36.3498L154.089 33.3934L155.301 34.0294L151.431 41.4204L148.88 40.0815C148.314 39.784 147.887 39.4337 147.601 39.0306C147.309 38.6238 147.154 38.2036 147.137 37.77C147.113 37.3327 147.209 36.9084 147.424 36.4972C147.676 36.0151 148.048 35.6499 148.539 35.4017C149.02 35.1568 149.588 35.1159 150.243 35.2791L150.019 31.2568L151.464 32.0155ZM152.035 37.3176L150.696 36.6147C150.242 36.3766 149.843 36.3116 149.497 36.4194C149.144 36.5236 148.868 36.767 148.667 37.1499C148.467 37.5327 148.424 37.89 148.54 38.2217C148.652 38.5605 148.938 38.8507 149.398 39.0925L150.738 39.7954L152.035 37.3176Z" fill="white"/>
<path d="M140.351 36.2798L140.787 35.252L142.831 36.1205L145.651 29.4674L146.911 30.0026L144.09 36.6558L146.145 37.529L145.709 38.5568L140.351 36.2798Z" fill="white"/>
<path d="M133.922 28.216C134.201 28.2865 134.441 28.4171 134.64 28.6078C134.83 28.8043 134.967 29.0327 135.05 29.293C135.123 29.5591 135.124 29.8318 135.054 30.1112C134.947 30.538 134.708 30.8616 134.339 31.0821C133.97 31.3026 133.576 31.3599 133.157 31.2541C132.722 31.1444 132.395 30.9049 132.174 30.5356C131.954 30.1663 131.897 29.7682 132.005 29.3414C132.112 28.9146 132.35 28.5909 132.72 28.3705C133.087 28.1578 133.488 28.1063 133.922 28.216Z" fill="white"/>
<path d="M71.0515 117.228V115.442L78.03 105.431H80.8961V115.172H82.8277V117.228H80.8961V120.385H78.57V117.228H71.0515ZM78.6738 107.84L73.7723 115.172H78.6738V107.84ZM86.0565 120.53C85.6272 120.53 85.2672 120.385 84.9765 120.094C84.6857 119.803 84.5403 119.443 84.5403 119.014C84.5403 118.585 84.6857 118.225 84.9765 117.934C85.2672 117.643 85.6272 117.498 86.0565 117.498C86.4719 117.498 86.8249 117.643 87.1157 117.934C87.4065 118.225 87.5519 118.585 87.5519 119.014C87.5519 119.443 87.4065 119.803 87.1157 120.094C86.8249 120.385 86.4719 120.53 86.0565 120.53ZM92.7485 116.272C92.887 116.965 93.1847 117.491 93.6416 117.851C94.0985 118.211 94.7147 118.391 95.4901 118.391C96.4732 118.391 97.1932 118.003 97.6501 117.228C98.107 116.452 98.3355 115.13 98.3355 113.261C98.0032 113.732 97.5324 114.098 96.9232 114.362C96.3278 114.611 95.677 114.735 94.9709 114.735C94.0709 114.735 93.2539 114.555 92.5201 114.195C91.7862 113.822 91.2047 113.275 90.7755 112.555C90.3601 111.821 90.1524 110.935 90.1524 109.896C90.1524 108.373 90.5955 107.162 91.4816 106.262C92.3816 105.348 93.6139 104.891 95.1785 104.891C97.0616 104.891 98.3978 105.521 99.187 106.781C99.9901 108.027 100.392 109.945 100.392 112.534C100.392 114.32 100.239 115.781 99.9347 116.916C99.6439 118.052 99.1316 118.91 98.3978 119.492C97.6639 120.073 96.6462 120.364 95.3447 120.364C93.8632 120.364 92.7209 119.976 91.9178 119.201C91.1147 118.425 90.6647 117.449 90.5678 116.272H92.7485ZM95.3862 112.742C96.217 112.742 96.8678 112.485 97.3385 111.973C97.8232 111.447 98.0655 110.755 98.0655 109.896C98.0655 108.941 97.8093 108.2 97.297 107.674C96.7985 107.134 96.1132 106.864 95.2409 106.864C94.3685 106.864 93.6762 107.141 93.1639 107.695C92.6655 108.235 92.4162 108.948 92.4162 109.834C92.4162 110.678 92.6585 111.378 93.1432 111.932C93.6416 112.472 94.3893 112.742 95.3862 112.742ZM116.374 100.778L110.725 124.019H108.399L114.027 100.778H116.374ZM134.203 107.279H127.246V111.412C127.536 111.025 127.966 110.699 128.533 110.436C129.115 110.173 129.731 110.042 130.382 110.042C131.545 110.042 132.486 110.291 133.206 110.789C133.94 111.288 134.459 111.918 134.764 112.679C135.083 113.441 135.242 114.244 135.242 115.088C135.242 116.113 135.041 117.027 134.639 117.83C134.252 118.619 133.663 119.242 132.874 119.699C132.099 120.156 131.143 120.385 130.008 120.385C128.499 120.385 127.287 120.011 126.373 119.263C125.459 118.515 124.913 117.525 124.733 116.293H127.038C127.19 116.944 127.529 117.463 128.056 117.851C128.582 118.225 129.239 118.412 130.029 118.412C131.012 118.412 131.746 118.114 132.23 117.518C132.729 116.923 132.978 116.134 132.978 115.151C132.978 114.154 132.729 113.392 132.23 112.866C131.732 112.326 130.998 112.056 130.029 112.056C129.35 112.056 128.776 112.229 128.305 112.575C127.848 112.908 127.516 113.365 127.308 113.946H125.065V105.202H134.203V107.279ZM138.973 120.53C138.544 120.53 138.184 120.385 137.893 120.094C137.603 119.803 137.457 119.443 137.457 119.014C137.457 118.585 137.603 118.225 137.893 117.934C138.184 117.643 138.544 117.498 138.973 117.498C139.389 117.498 139.742 117.643 140.033 117.934C140.323 118.225 140.469 118.585 140.469 119.014C140.469 119.443 140.323 119.803 140.033 120.094C139.742 120.385 139.389 120.53 138.973 120.53ZM142.716 112.617C142.716 110.222 143.118 108.352 143.921 107.009C144.738 105.652 146.136 104.974 148.116 104.974C150.096 104.974 151.488 105.652 152.291 107.009C153.108 108.352 153.516 110.222 153.516 112.617C153.516 115.04 153.108 116.937 152.291 118.308C151.488 119.665 150.096 120.343 148.116 120.343C146.136 120.343 144.738 119.665 143.921 118.308C143.118 116.937 142.716 115.04 142.716 112.617ZM151.19 112.617C151.19 111.495 151.114 110.547 150.962 109.772C150.823 108.996 150.532 108.366 150.089 107.882C149.646 107.383 148.989 107.134 148.116 107.134C147.244 107.134 146.586 107.383 146.143 107.882C145.7 108.366 145.402 108.996 145.25 109.772C145.112 110.547 145.042 111.495 145.042 112.617C145.042 113.78 145.112 114.756 145.25 115.545C145.389 116.335 145.679 116.972 146.122 117.456C146.579 117.941 147.244 118.183 148.116 118.183C148.989 118.183 149.646 117.941 150.089 117.456C150.546 116.972 150.844 116.335 150.982 115.545C151.121 114.756 151.19 113.78 151.19 112.617Z" fill="white"/>
<defs>
<linearGradient id="paint0_linear_218_20908" x1="302.864" y1="-2.65093e-05" x2="-38.2372" y2="90.0646" gradientUnits="userSpaceOnUse">
<stop stop-color="#BB44F0"/>
<stop offset="0.450755" stop-color="#F974CC"/>
<stop offset="1" stop-color="#FFC9BB"/>
</linearGradient>
</defs>
</svg>
