<svg width="1920" height="72" viewBox="0 0 1920 72" fill="none" xmlns="http://www.w3.org/2000/svg">
<g clip-path="url(#clip0_236_18446)">
<rect width="1920" height="72" fill="url(#paint0_linear_236_18446)"/>
<path d="M25.5433 29.9091H27.9148V38.4616C27.9148 39.3991 27.6932 40.2237 27.25 40.9354C26.8111 41.647 26.1932 42.2031 25.3963 42.6037C24.5994 43 23.6683 43.1982 22.603 43.1982C21.5334 43.1982 20.6001 43 19.8033 42.6037C19.0064 42.2031 18.3885 41.647 17.9496 40.9354C17.5107 40.2237 17.2912 39.3991 17.2912 38.4616V29.9091H19.6626V38.2635C19.6626 38.8089 19.782 39.2947 20.0206 39.7209C20.2635 40.147 20.6044 40.4815 21.0433 40.7244C21.4822 40.9631 22.0021 41.0824 22.603 41.0824C23.2038 41.0824 23.7237 40.9631 24.1626 40.7244C24.6058 40.4815 24.9467 40.147 25.1854 39.7209C25.424 39.2947 25.5433 38.8089 25.5433 38.2635V29.9091ZM32.8638 29.9091V43H30.4924V29.9091H32.8638ZM39.8967 43V29.9091H44.908C45.854 29.9091 46.6403 30.0582 47.2667 30.3565C47.8974 30.6506 48.3683 31.0533 48.6793 31.5646C48.9947 32.076 49.1523 32.6555 49.1523 33.3033C49.1523 33.8359 49.0501 34.2919 48.8455 34.6712C48.641 35.0462 48.3661 35.3509 48.021 35.5852C47.6758 35.8196 47.2901 35.9879 46.864 36.0902V36.218C47.3285 36.2436 47.7738 36.3864 48.1999 36.6463C48.6303 36.902 48.9819 37.2642 49.2546 37.733C49.5273 38.2017 49.6637 38.7685 49.6637 39.4332C49.6637 40.1108 49.4996 40.7202 49.1715 41.2614C48.8434 41.7983 48.3491 42.2223 47.6886 42.5334C47.0281 42.8445 46.1971 43 45.1957 43H39.8967ZM42.2681 41.0185H44.8185C45.6793 41.0185 46.2994 40.8544 46.6786 40.5263C47.0621 40.1939 47.2539 39.7678 47.2539 39.2479C47.2539 38.8601 47.158 38.5107 46.9663 38.1996C46.7745 37.8842 46.5018 37.6371 46.1481 37.4581C45.7944 37.2749 45.3725 37.1832 44.8825 37.1832H42.2681V41.0185ZM42.2681 35.4766H44.614C45.0231 35.4766 45.3917 35.402 45.7198 35.2528C46.0479 35.0994 46.3058 34.8842 46.4933 34.6072C46.685 34.326 46.7809 33.9936 46.7809 33.6101C46.7809 33.103 46.6019 32.6854 46.244 32.3572C45.8903 32.0291 45.364 31.8651 44.6651 31.8651H42.2681V35.4766ZM63.4242 36.4545C63.4242 37.8651 63.16 39.0732 62.6316 40.0788C62.1074 41.0803 61.3915 41.8473 60.4838 42.38C59.5804 42.9126 58.5556 43.179 57.4093 43.179C56.263 43.179 55.236 42.9126 54.3283 42.38C53.4249 41.843 52.709 41.0739 52.1806 40.0724C51.6564 39.0668 51.3944 37.8608 51.3944 36.4545C51.3944 35.044 51.6564 33.8381 52.1806 32.8366C52.709 31.831 53.4249 31.0618 54.3283 30.5291C55.236 29.9964 56.263 29.7301 57.4093 29.7301C58.5556 29.7301 59.5804 29.9964 60.4838 30.5291C61.3915 31.0618 62.1074 31.831 62.6316 32.8366C63.16 33.8381 63.4242 35.044 63.4242 36.4545ZM61.04 36.4545C61.04 35.4616 60.8844 34.6243 60.5733 33.9425C60.2665 33.2564 59.8404 32.7386 59.2949 32.3892C58.7495 32.0355 58.1209 31.8587 57.4093 31.8587C56.6976 31.8587 56.0691 32.0355 55.5236 32.3892C54.9782 32.7386 54.5499 33.2564 54.2388 33.9425C53.932 34.6243 53.7786 35.4616 53.7786 36.4545C53.7786 37.4474 53.932 38.2869 54.2388 38.973C54.5499 39.6548 54.9782 40.1726 55.5236 40.5263C56.0691 40.8757 56.6976 41.0504 57.4093 41.0504C58.1209 41.0504 58.7495 40.8757 59.2949 40.5263C59.8404 40.1726 60.2665 39.6548 60.5733 38.973C60.8844 38.2869 61.04 37.4474 61.04 36.4545ZM77.3636 36.4545C77.3636 37.8651 77.0994 39.0732 76.571 40.0788C76.0469 41.0803 75.331 41.8473 74.4233 42.38C73.5199 42.9126 72.495 43.179 71.3487 43.179C70.2024 43.179 69.1754 42.9126 68.2678 42.38C67.3643 41.843 66.6484 41.0739 66.12 40.0724C65.5959 39.0668 65.3338 37.8608 65.3338 36.4545C65.3338 35.044 65.5959 33.8381 66.12 32.8366C66.6484 31.831 67.3643 31.0618 68.2678 30.5291C69.1754 29.9964 70.2024 29.7301 71.3487 29.7301C72.495 29.7301 73.5199 29.9964 74.4233 30.5291C75.331 31.0618 76.0469 31.831 76.571 32.8366C77.0994 33.8381 77.3636 35.044 77.3636 36.4545ZM74.9794 36.4545C74.9794 35.4616 74.8239 34.6243 74.5128 33.9425C74.206 33.2564 73.7798 32.7386 73.2344 32.3892C72.6889 32.0355 72.0604 31.8587 71.3487 31.8587C70.6371 31.8587 70.0085 32.0355 69.4631 32.3892C68.9176 32.7386 68.4893 33.2564 68.1783 33.9425C67.8714 34.6243 67.718 35.4616 67.718 36.4545C67.718 37.4474 67.8714 38.2869 68.1783 38.973C68.4893 39.6548 68.9176 40.1726 69.4631 40.5263C70.0085 40.8757 70.6371 41.0504 71.3487 41.0504C72.0604 41.0504 72.6889 40.8757 73.2344 40.5263C73.7798 40.1726 74.206 39.6548 74.5128 38.973C74.8239 38.2869 74.9794 37.4474 74.9794 36.4545ZM86.72 33.5078C86.6603 32.9496 86.4089 32.5149 85.9657 32.2038C85.5268 31.8928 84.9558 31.7372 84.2527 31.7372C83.7583 31.7372 83.3343 31.8118 82.9806 31.9609C82.627 32.1101 82.3564 32.3125 82.1689 32.5682C81.9814 32.8239 81.8855 33.1158 81.8812 33.4439C81.8812 33.7166 81.943 33.9531 82.0666 34.1534C82.1944 34.3537 82.367 34.5241 82.5843 34.6648C82.8017 34.8011 83.0424 34.9162 83.3066 35.0099C83.5708 35.1037 83.8372 35.1825 84.1056 35.2464L85.3329 35.5533C85.8272 35.6683 86.3024 35.8239 86.7583 36.0199C87.2186 36.2159 87.6298 36.4631 87.992 36.7614C88.3585 37.0597 88.6483 37.4197 88.8613 37.8416C89.0744 38.2635 89.1809 38.7578 89.1809 39.3246C89.1809 40.0916 88.9849 40.767 88.5929 41.3509C88.2008 41.9304 87.6341 42.3842 86.8926 42.7124C86.1554 43.0362 85.2626 43.1982 84.2143 43.1982C83.1958 43.1982 82.3116 43.0405 81.5616 42.7251C80.8159 42.4098 80.2321 41.9496 79.8102 41.3445C79.3926 40.7393 79.1667 40.0021 79.1326 39.1328H81.4657C81.4998 39.5888 81.6404 39.968 81.8876 40.2706C82.1348 40.5732 82.4565 40.799 82.8528 40.9482C83.2534 41.0973 83.7008 41.1719 84.1951 41.1719C84.7108 41.1719 85.1625 41.0952 85.5502 40.9418C85.9423 40.7841 86.2491 40.5668 86.4707 40.2898C86.6923 40.0085 86.8052 39.6804 86.8095 39.3054C86.8052 38.9645 86.7051 38.6832 86.5091 38.4616C86.313 38.2358 86.0382 38.0483 85.6845 37.8991C85.335 37.7457 84.926 37.6094 84.4572 37.4901L82.9679 37.1065C81.8897 36.8295 81.0375 36.4098 80.411 35.8473C79.7889 35.2805 79.4778 34.5284 79.4778 33.5909C79.4778 32.8196 79.6866 32.1442 80.1042 31.5646C80.5261 30.9851 81.0993 30.5355 81.8237 30.2159C82.5481 29.892 83.3684 29.7301 84.2846 29.7301C85.2136 29.7301 86.0275 29.892 86.7264 30.2159C87.4295 30.5355 87.9814 30.9808 88.3819 31.5518C88.7825 32.1186 88.9892 32.7706 89.002 33.5078H86.72ZM90.7198 31.897V29.9091H101.164V31.897H97.1183V43H94.766V31.897H90.7198Z" fill="white"/>
<circle cx="127.5" cy="36.5" r="9.5" fill="#17161C"/>
<path fill-rule="evenodd" clip-rule="evenodd" d="M126.983 31.1371H128.128C128.272 33.6861 130.314 35.7277 132.863 35.8716V37.0171C130.314 37.161 128.272 39.2027 128.128 41.7518H126.983C126.839 39.2027 124.797 37.161 122.248 37.0171V35.8716C124.797 35.7277 126.839 33.6861 126.983 31.1371Z" fill="#EE56BB"/>
<path d="M162.543 29.9091H164.915V38.4616C164.915 39.3991 164.693 40.2237 164.25 40.9354C163.811 41.647 163.193 42.2031 162.396 42.6037C161.599 43 160.668 43.1982 159.603 43.1982C158.533 43.1982 157.6 43 156.803 42.6037C156.006 42.2031 155.388 41.647 154.95 40.9354C154.511 40.2237 154.291 39.3991 154.291 38.4616V29.9091H156.663V38.2635C156.663 38.8089 156.782 39.2947 157.021 39.7209C157.263 40.147 157.604 40.4815 158.043 40.7244C158.482 40.9631 159.002 41.0824 159.603 41.0824C160.204 41.0824 160.724 40.9631 161.163 40.7244C161.606 40.4815 161.947 40.147 162.185 39.7209C162.424 39.2947 162.543 38.8089 162.543 38.2635V29.9091ZM169.864 29.9091V43H167.492V29.9091H169.864ZM176.897 43V29.9091H181.908C182.854 29.9091 183.64 30.0582 184.267 30.3565C184.897 30.6506 185.368 31.0533 185.679 31.5646C185.995 32.076 186.152 32.6555 186.152 33.3033C186.152 33.8359 186.05 34.2919 185.846 34.6712C185.641 35.0462 185.366 35.3509 185.021 35.5852C184.676 35.8196 184.29 35.9879 183.864 36.0902V36.218C184.328 36.2436 184.774 36.3864 185.2 36.6463C185.63 36.902 185.982 37.2642 186.255 37.733C186.527 38.2017 186.664 38.7685 186.664 39.4332C186.664 40.1108 186.5 40.7202 186.172 41.2614C185.843 41.7983 185.349 42.2223 184.689 42.5334C184.028 42.8445 183.197 43 182.196 43H176.897ZM179.268 41.0185H181.819C182.679 41.0185 183.299 40.8544 183.679 40.5263C184.062 40.1939 184.254 39.7678 184.254 39.2479C184.254 38.8601 184.158 38.5107 183.966 38.1996C183.775 37.8842 183.502 37.6371 183.148 37.4581C182.794 37.2749 182.373 37.1832 181.882 37.1832H179.268V41.0185ZM179.268 35.4766H181.614C182.023 35.4766 182.392 35.402 182.72 35.2528C183.048 35.0994 183.306 34.8842 183.493 34.6072C183.685 34.326 183.781 33.9936 183.781 33.6101C183.781 33.103 183.602 32.6854 183.244 32.3572C182.89 32.0291 182.364 31.8651 181.665 31.8651H179.268V35.4766ZM200.424 36.4545C200.424 37.8651 200.16 39.0732 199.632 40.0788C199.107 41.0803 198.392 41.8473 197.484 42.38C196.58 42.9126 195.556 43.179 194.409 43.179C193.263 43.179 192.236 42.9126 191.328 42.38C190.425 41.843 189.709 41.0739 189.181 40.0724C188.656 39.0668 188.394 37.8608 188.394 36.4545C188.394 35.044 188.656 33.8381 189.181 32.8366C189.709 31.831 190.425 31.0618 191.328 30.5291C192.236 29.9964 193.263 29.7301 194.409 29.7301C195.556 29.7301 196.58 29.9964 197.484 30.5291C198.392 31.0618 199.107 31.831 199.632 32.8366C200.16 33.8381 200.424 35.044 200.424 36.4545ZM198.04 36.4545C198.04 35.4616 197.884 34.6243 197.573 33.9425C197.267 33.2564 196.84 32.7386 196.295 32.3892C195.749 32.0355 195.121 31.8587 194.409 31.8587C193.698 31.8587 193.069 32.0355 192.524 32.3892C191.978 32.7386 191.55 33.2564 191.239 33.9425C190.932 34.6243 190.779 35.4616 190.779 36.4545C190.779 37.4474 190.932 38.2869 191.239 38.973C191.55 39.6548 191.978 40.1726 192.524 40.5263C193.069 40.8757 193.698 41.0504 194.409 41.0504C195.121 41.0504 195.749 40.8757 196.295 40.5263C196.84 40.1726 197.267 39.6548 197.573 38.973C197.884 38.2869 198.04 37.4474 198.04 36.4545ZM214.364 36.4545C214.364 37.8651 214.099 39.0732 213.571 40.0788C213.047 41.0803 212.331 41.8473 211.423 42.38C210.52 42.9126 209.495 43.179 208.349 43.179C207.202 43.179 206.175 42.9126 205.268 42.38C204.364 41.843 203.648 41.0739 203.12 40.0724C202.596 39.0668 202.334 37.8608 202.334 36.4545C202.334 35.044 202.596 33.8381 203.12 32.8366C203.648 31.831 204.364 31.0618 205.268 30.5291C206.175 29.9964 207.202 29.7301 208.349 29.7301C209.495 29.7301 210.52 29.9964 211.423 30.5291C212.331 31.0618 213.047 31.831 213.571 32.8366C214.099 33.8381 214.364 35.044 214.364 36.4545ZM211.979 36.4545C211.979 35.4616 211.824 34.6243 211.513 33.9425C211.206 33.2564 210.78 32.7386 210.234 32.3892C209.689 32.0355 209.06 31.8587 208.349 31.8587C207.637 31.8587 207.009 32.0355 206.463 32.3892C205.918 32.7386 205.489 33.2564 205.178 33.9425C204.871 34.6243 204.718 35.4616 204.718 36.4545C204.718 37.4474 204.871 38.2869 205.178 38.973C205.489 39.6548 205.918 40.1726 206.463 40.5263C207.009 40.8757 207.637 41.0504 208.349 41.0504C209.06 41.0504 209.689 40.8757 210.234 40.5263C210.78 40.1726 211.206 39.6548 211.513 38.973C211.824 38.2869 211.979 37.4474 211.979 36.4545ZM223.72 33.5078C223.66 32.9496 223.409 32.5149 222.966 32.2038C222.527 31.8928 221.956 31.7372 221.253 31.7372C220.758 31.7372 220.334 31.8118 219.981 31.9609C219.627 32.1101 219.356 32.3125 219.169 32.5682C218.981 32.8239 218.885 33.1158 218.881 33.4439C218.881 33.7166 218.943 33.9531 219.067 34.1534C219.194 34.3537 219.367 34.5241 219.584 34.6648C219.802 34.8011 220.042 34.9162 220.307 35.0099C220.571 35.1037 220.837 35.1825 221.106 35.2464L222.333 35.5533C222.827 35.6683 223.302 35.8239 223.758 36.0199C224.219 36.2159 224.63 36.4631 224.992 36.7614C225.358 37.0597 225.648 37.4197 225.861 37.8416C226.074 38.2635 226.181 38.7578 226.181 39.3246C226.181 40.0916 225.985 40.767 225.593 41.3509C225.201 41.9304 224.634 42.3842 223.893 42.7124C223.155 43.0362 222.263 43.1982 221.214 43.1982C220.196 43.1982 219.312 43.0405 218.562 42.7251C217.816 42.4098 217.232 41.9496 216.81 41.3445C216.393 40.7393 216.167 40.0021 216.133 39.1328H218.466C218.5 39.5888 218.64 39.968 218.888 40.2706C219.135 40.5732 219.456 40.799 219.853 40.9482C220.253 41.0973 220.701 41.1719 221.195 41.1719C221.711 41.1719 222.162 41.0952 222.55 40.9418C222.942 40.7841 223.249 40.5668 223.471 40.2898C223.692 40.0085 223.805 39.6804 223.809 39.3054C223.805 38.9645 223.705 38.6832 223.509 38.4616C223.313 38.2358 223.038 38.0483 222.684 37.8991C222.335 37.7457 221.926 37.6094 221.457 37.4901L219.968 37.1065C218.89 36.8295 218.037 36.4098 217.411 35.8473C216.789 35.2805 216.478 34.5284 216.478 33.5909C216.478 32.8196 216.687 32.1442 217.104 31.5646C217.526 30.9851 218.099 30.5355 218.824 30.2159C219.548 29.892 220.368 29.7301 221.285 29.7301C222.214 29.7301 223.028 29.892 223.726 30.2159C224.43 30.5355 224.981 30.9808 225.382 31.5518C225.782 32.1186 225.989 32.7706 226.002 33.5078H223.72ZM227.72 31.897V29.9091H238.164V31.897H234.118V43H231.766V31.897H227.72Z" fill="white"/>
<circle cx="264.5" cy="36.5" r="9.5" fill="#17161C"/>
<path fill-rule="evenodd" clip-rule="evenodd" d="M263.983 31.1371H265.128C265.272 33.6861 267.314 35.7277 269.863 35.8716V37.0171C267.314 37.161 265.272 39.2027 265.128 41.7518H263.983C263.839 39.2027 261.797 37.161 259.248 37.0171V35.8716C261.797 35.7277 263.839 33.6861 263.983 31.1371Z" fill="#EE56BB"/>
<path d="M299.543 29.9091H301.915V38.4616C301.915 39.3991 301.693 40.2237 301.25 40.9354C300.811 41.647 300.193 42.2031 299.396 42.6037C298.599 43 297.668 43.1982 296.603 43.1982C295.533 43.1982 294.6 43 293.803 42.6037C293.006 42.2031 292.388 41.647 291.95 40.9354C291.511 40.2237 291.291 39.3991 291.291 38.4616V29.9091H293.663V38.2635C293.663 38.8089 293.782 39.2947 294.021 39.7209C294.263 40.147 294.604 40.4815 295.043 40.7244C295.482 40.9631 296.002 41.0824 296.603 41.0824C297.204 41.0824 297.724 40.9631 298.163 40.7244C298.606 40.4815 298.947 40.147 299.185 39.7209C299.424 39.2947 299.543 38.8089 299.543 38.2635V29.9091ZM306.864 29.9091V43H304.492V29.9091H306.864ZM313.897 43V29.9091H318.908C319.854 29.9091 320.64 30.0582 321.267 30.3565C321.897 30.6506 322.368 31.0533 322.679 31.5646C322.995 32.076 323.152 32.6555 323.152 33.3033C323.152 33.8359 323.05 34.2919 322.846 34.6712C322.641 35.0462 322.366 35.3509 322.021 35.5852C321.676 35.8196 321.29 35.9879 320.864 36.0902V36.218C321.328 36.2436 321.774 36.3864 322.2 36.6463C322.63 36.902 322.982 37.2642 323.255 37.733C323.527 38.2017 323.664 38.7685 323.664 39.4332C323.664 40.1108 323.5 40.7202 323.172 41.2614C322.843 41.7983 322.349 42.2223 321.689 42.5334C321.028 42.8445 320.197 43 319.196 43H313.897ZM316.268 41.0185H318.819C319.679 41.0185 320.299 40.8544 320.679 40.5263C321.062 40.1939 321.254 39.7678 321.254 39.2479C321.254 38.8601 321.158 38.5107 320.966 38.1996C320.775 37.8842 320.502 37.6371 320.148 37.4581C319.794 37.2749 319.373 37.1832 318.882 37.1832H316.268V41.0185ZM316.268 35.4766H318.614C319.023 35.4766 319.392 35.402 319.72 35.2528C320.048 35.0994 320.306 34.8842 320.493 34.6072C320.685 34.326 320.781 33.9936 320.781 33.6101C320.781 33.103 320.602 32.6854 320.244 32.3572C319.89 32.0291 319.364 31.8651 318.665 31.8651H316.268V35.4766ZM337.424 36.4545C337.424 37.8651 337.16 39.0732 336.632 40.0788C336.107 41.0803 335.392 41.8473 334.484 42.38C333.58 42.9126 332.556 43.179 331.409 43.179C330.263 43.179 329.236 42.9126 328.328 42.38C327.425 41.843 326.709 41.0739 326.181 40.0724C325.656 39.0668 325.394 37.8608 325.394 36.4545C325.394 35.044 325.656 33.8381 326.181 32.8366C326.709 31.831 327.425 31.0618 328.328 30.5291C329.236 29.9964 330.263 29.7301 331.409 29.7301C332.556 29.7301 333.58 29.9964 334.484 30.5291C335.392 31.0618 336.107 31.831 336.632 32.8366C337.16 33.8381 337.424 35.044 337.424 36.4545ZM335.04 36.4545C335.04 35.4616 334.884 34.6243 334.573 33.9425C334.267 33.2564 333.84 32.7386 333.295 32.3892C332.749 32.0355 332.121 31.8587 331.409 31.8587C330.698 31.8587 330.069 32.0355 329.524 32.3892C328.978 32.7386 328.55 33.2564 328.239 33.9425C327.932 34.6243 327.779 35.4616 327.779 36.4545C327.779 37.4474 327.932 38.2869 328.239 38.973C328.55 39.6548 328.978 40.1726 329.524 40.5263C330.069 40.8757 330.698 41.0504 331.409 41.0504C332.121 41.0504 332.749 40.8757 333.295 40.5263C333.84 40.1726 334.267 39.6548 334.573 38.973C334.884 38.2869 335.04 37.4474 335.04 36.4545ZM351.364 36.4545C351.364 37.8651 351.099 39.0732 350.571 40.0788C350.047 41.0803 349.331 41.8473 348.423 42.38C347.52 42.9126 346.495 43.179 345.349 43.179C344.202 43.179 343.175 42.9126 342.268 42.38C341.364 41.843 340.648 41.0739 340.12 40.0724C339.596 39.0668 339.334 37.8608 339.334 36.4545C339.334 35.044 339.596 33.8381 340.12 32.8366C340.648 31.831 341.364 31.0618 342.268 30.5291C343.175 29.9964 344.202 29.7301 345.349 29.7301C346.495 29.7301 347.52 29.9964 348.423 30.5291C349.331 31.0618 350.047 31.831 350.571 32.8366C351.099 33.8381 351.364 35.044 351.364 36.4545ZM348.979 36.4545C348.979 35.4616 348.824 34.6243 348.513 33.9425C348.206 33.2564 347.78 32.7386 347.234 32.3892C346.689 32.0355 346.06 31.8587 345.349 31.8587C344.637 31.8587 344.009 32.0355 343.463 32.3892C342.918 32.7386 342.489 33.2564 342.178 33.9425C341.871 34.6243 341.718 35.4616 341.718 36.4545C341.718 37.4474 341.871 38.2869 342.178 38.973C342.489 39.6548 342.918 40.1726 343.463 40.5263C344.009 40.8757 344.637 41.0504 345.349 41.0504C346.06 41.0504 346.689 40.8757 347.234 40.5263C347.78 40.1726 348.206 39.6548 348.513 38.973C348.824 38.2869 348.979 37.4474 348.979 36.4545ZM360.72 33.5078C360.66 32.9496 360.409 32.5149 359.966 32.2038C359.527 31.8928 358.956 31.7372 358.253 31.7372C357.758 31.7372 357.334 31.8118 356.981 31.9609C356.627 32.1101 356.356 32.3125 356.169 32.5682C355.981 32.8239 355.885 33.1158 355.881 33.4439C355.881 33.7166 355.943 33.9531 356.067 34.1534C356.194 34.3537 356.367 34.5241 356.584 34.6648C356.802 34.8011 357.042 34.9162 357.307 35.0099C357.571 35.1037 357.837 35.1825 358.106 35.2464L359.333 35.5533C359.827 35.6683 360.302 35.8239 360.758 36.0199C361.219 36.2159 361.63 36.4631 361.992 36.7614C362.358 37.0597 362.648 37.4197 362.861 37.8416C363.074 38.2635 363.181 38.7578 363.181 39.3246C363.181 40.0916 362.985 40.767 362.593 41.3509C362.201 41.9304 361.634 42.3842 360.893 42.7124C360.155 43.0362 359.263 43.1982 358.214 43.1982C357.196 43.1982 356.312 43.0405 355.562 42.7251C354.816 42.4098 354.232 41.9496 353.81 41.3445C353.393 40.7393 353.167 40.0021 353.133 39.1328H355.466C355.5 39.5888 355.64 39.968 355.888 40.2706C356.135 40.5732 356.456 40.799 356.853 40.9482C357.253 41.0973 357.701 41.1719 358.195 41.1719C358.711 41.1719 359.162 41.0952 359.55 40.9418C359.942 40.7841 360.249 40.5668 360.471 40.2898C360.692 40.0085 360.805 39.6804 360.809 39.3054C360.805 38.9645 360.705 38.6832 360.509 38.4616C360.313 38.2358 360.038 38.0483 359.684 37.8991C359.335 37.7457 358.926 37.6094 358.457 37.4901L356.968 37.1065C355.89 36.8295 355.037 36.4098 354.411 35.8473C353.789 35.2805 353.478 34.5284 353.478 33.5909C353.478 32.8196 353.687 32.1442 354.104 31.5646C354.526 30.9851 355.099 30.5355 355.824 30.2159C356.548 29.892 357.368 29.7301 358.285 29.7301C359.214 29.7301 360.028 29.892 360.726 30.2159C361.43 30.5355 361.981 30.9808 362.382 31.5518C362.782 32.1186 362.989 32.7706 363.002 33.5078H360.72ZM364.72 31.897V29.9091H375.164V31.897H371.118V43H368.766V31.897H364.72Z" fill="white"/>
<circle cx="401.5" cy="36.5" r="9.5" fill="#17161C"/>
<path fill-rule="evenodd" clip-rule="evenodd" d="M400.983 31.1371H402.128C402.272 33.6861 404.314 35.7277 406.863 35.8716V37.0171C404.314 37.161 402.272 39.2027 402.128 41.7518H400.983C400.839 39.2027 398.797 37.161 396.248 37.0171V35.8716C398.797 35.7277 400.839 33.6861 400.983 31.1371Z" fill="#EE56BB"/>
<path d="M436.543 29.9091H438.915V38.4616C438.915 39.3991 438.693 40.2237 438.25 40.9354C437.811 41.647 437.193 42.2031 436.396 42.6037C435.599 43 434.668 43.1982 433.603 43.1982C432.533 43.1982 431.6 43 430.803 42.6037C430.006 42.2031 429.388 41.647 428.95 40.9354C428.511 40.2237 428.291 39.3991 428.291 38.4616V29.9091H430.663V38.2635C430.663 38.8089 430.782 39.2947 431.021 39.7209C431.263 40.147 431.604 40.4815 432.043 40.7244C432.482 40.9631 433.002 41.0824 433.603 41.0824C434.204 41.0824 434.724 40.9631 435.163 40.7244C435.606 40.4815 435.947 40.147 436.185 39.7209C436.424 39.2947 436.543 38.8089 436.543 38.2635V29.9091ZM443.864 29.9091V43H441.492V29.9091H443.864ZM450.897 43V29.9091H455.908C456.854 29.9091 457.64 30.0582 458.267 30.3565C458.897 30.6506 459.368 31.0533 459.679 31.5646C459.995 32.076 460.152 32.6555 460.152 33.3033C460.152 33.8359 460.05 34.2919 459.846 34.6712C459.641 35.0462 459.366 35.3509 459.021 35.5852C458.676 35.8196 458.29 35.9879 457.864 36.0902V36.218C458.328 36.2436 458.774 36.3864 459.2 36.6463C459.63 36.902 459.982 37.2642 460.255 37.733C460.527 38.2017 460.664 38.7685 460.664 39.4332C460.664 40.1108 460.5 40.7202 460.172 41.2614C459.843 41.7983 459.349 42.2223 458.689 42.5334C458.028 42.8445 457.197 43 456.196 43H450.897ZM453.268 41.0185H455.819C456.679 41.0185 457.299 40.8544 457.679 40.5263C458.062 40.1939 458.254 39.7678 458.254 39.2479C458.254 38.8601 458.158 38.5107 457.966 38.1996C457.775 37.8842 457.502 37.6371 457.148 37.4581C456.794 37.2749 456.373 37.1832 455.882 37.1832H453.268V41.0185ZM453.268 35.4766H455.614C456.023 35.4766 456.392 35.402 456.72 35.2528C457.048 35.0994 457.306 34.8842 457.493 34.6072C457.685 34.326 457.781 33.9936 457.781 33.6101C457.781 33.103 457.602 32.6854 457.244 32.3572C456.89 32.0291 456.364 31.8651 455.665 31.8651H453.268V35.4766ZM474.424 36.4545C474.424 37.8651 474.16 39.0732 473.632 40.0788C473.107 41.0803 472.392 41.8473 471.484 42.38C470.58 42.9126 469.556 43.179 468.409 43.179C467.263 43.179 466.236 42.9126 465.328 42.38C464.425 41.843 463.709 41.0739 463.181 40.0724C462.656 39.0668 462.394 37.8608 462.394 36.4545C462.394 35.044 462.656 33.8381 463.181 32.8366C463.709 31.831 464.425 31.0618 465.328 30.5291C466.236 29.9964 467.263 29.7301 468.409 29.7301C469.556 29.7301 470.58 29.9964 471.484 30.5291C472.392 31.0618 473.107 31.831 473.632 32.8366C474.16 33.8381 474.424 35.044 474.424 36.4545ZM472.04 36.4545C472.04 35.4616 471.884 34.6243 471.573 33.9425C471.267 33.2564 470.84 32.7386 470.295 32.3892C469.749 32.0355 469.121 31.8587 468.409 31.8587C467.698 31.8587 467.069 32.0355 466.524 32.3892C465.978 32.7386 465.55 33.2564 465.239 33.9425C464.932 34.6243 464.779 35.4616 464.779 36.4545C464.779 37.4474 464.932 38.2869 465.239 38.973C465.55 39.6548 465.978 40.1726 466.524 40.5263C467.069 40.8757 467.698 41.0504 468.409 41.0504C469.121 41.0504 469.749 40.8757 470.295 40.5263C470.84 40.1726 471.267 39.6548 471.573 38.973C471.884 38.2869 472.04 37.4474 472.04 36.4545ZM488.364 36.4545C488.364 37.8651 488.099 39.0732 487.571 40.0788C487.047 41.0803 486.331 41.8473 485.423 42.38C484.52 42.9126 483.495 43.179 482.349 43.179C481.202 43.179 480.175 42.9126 479.268 42.38C478.364 41.843 477.648 41.0739 477.12 40.0724C476.596 39.0668 476.334 37.8608 476.334 36.4545C476.334 35.044 476.596 33.8381 477.12 32.8366C477.648 31.831 478.364 31.0618 479.268 30.5291C480.175 29.9964 481.202 29.7301 482.349 29.7301C483.495 29.7301 484.52 29.9964 485.423 30.5291C486.331 31.0618 487.047 31.831 487.571 32.8366C488.099 33.8381 488.364 35.044 488.364 36.4545ZM485.979 36.4545C485.979 35.4616 485.824 34.6243 485.513 33.9425C485.206 33.2564 484.78 32.7386 484.234 32.3892C483.689 32.0355 483.06 31.8587 482.349 31.8587C481.637 31.8587 481.009 32.0355 480.463 32.3892C479.918 32.7386 479.489 33.2564 479.178 33.9425C478.871 34.6243 478.718 35.4616 478.718 36.4545C478.718 37.4474 478.871 38.2869 479.178 38.973C479.489 39.6548 479.918 40.1726 480.463 40.5263C481.009 40.8757 481.637 41.0504 482.349 41.0504C483.06 41.0504 483.689 40.8757 484.234 40.5263C484.78 40.1726 485.206 39.6548 485.513 38.973C485.824 38.2869 485.979 37.4474 485.979 36.4545ZM497.72 33.5078C497.66 32.9496 497.409 32.5149 496.966 32.2038C496.527 31.8928 495.956 31.7372 495.253 31.7372C494.758 31.7372 494.334 31.8118 493.981 31.9609C493.627 32.1101 493.356 32.3125 493.169 32.5682C492.981 32.8239 492.885 33.1158 492.881 33.4439C492.881 33.7166 492.943 33.9531 493.067 34.1534C493.194 34.3537 493.367 34.5241 493.584 34.6648C493.802 34.8011 494.042 34.9162 494.307 35.0099C494.571 35.1037 494.837 35.1825 495.106 35.2464L496.333 35.5533C496.827 35.6683 497.302 35.8239 497.758 36.0199C498.219 36.2159 498.63 36.4631 498.992 36.7614C499.358 37.0597 499.648 37.4197 499.861 37.8416C500.074 38.2635 500.181 38.7578 500.181 39.3246C500.181 40.0916 499.985 40.767 499.593 41.3509C499.201 41.9304 498.634 42.3842 497.893 42.7124C497.155 43.0362 496.263 43.1982 495.214 43.1982C494.196 43.1982 493.312 43.0405 492.562 42.7251C491.816 42.4098 491.232 41.9496 490.81 41.3445C490.393 40.7393 490.167 40.0021 490.133 39.1328H492.466C492.5 39.5888 492.64 39.968 492.888 40.2706C493.135 40.5732 493.456 40.799 493.853 40.9482C494.253 41.0973 494.701 41.1719 495.195 41.1719C495.711 41.1719 496.162 41.0952 496.55 40.9418C496.942 40.7841 497.249 40.5668 497.471 40.2898C497.692 40.0085 497.805 39.6804 497.809 39.3054C497.805 38.9645 497.705 38.6832 497.509 38.4616C497.313 38.2358 497.038 38.0483 496.684 37.8991C496.335 37.7457 495.926 37.6094 495.457 37.4901L493.968 37.1065C492.89 36.8295 492.037 36.4098 491.411 35.8473C490.789 35.2805 490.478 34.5284 490.478 33.5909C490.478 32.8196 490.687 32.1442 491.104 31.5646C491.526 30.9851 492.099 30.5355 492.824 30.2159C493.548 29.892 494.368 29.7301 495.285 29.7301C496.214 29.7301 497.028 29.892 497.726 30.2159C498.43 30.5355 498.981 30.9808 499.382 31.5518C499.782 32.1186 499.989 32.7706 500.002 33.5078H497.72ZM501.72 31.897V29.9091H512.164V31.897H508.118V43H505.766V31.897H501.72Z" fill="white"/>
<circle cx="538.5" cy="36.5" r="9.5" fill="#17161C"/>
<path fill-rule="evenodd" clip-rule="evenodd" d="M537.983 31.1371H539.128C539.272 33.6861 541.314 35.7277 543.863 35.8716V37.0171C541.314 37.161 539.272 39.2027 539.128 41.7518H537.983C537.839 39.2027 535.797 37.161 533.248 37.0171V35.8716C535.797 35.7277 537.839 33.6861 537.983 31.1371Z" fill="#EE56BB"/>
<path d="M573.543 29.9091H575.915V38.4616C575.915 39.3991 575.693 40.2237 575.25 40.9354C574.811 41.647 574.193 42.2031 573.396 42.6037C572.599 43 571.668 43.1982 570.603 43.1982C569.533 43.1982 568.6 43 567.803 42.6037C567.006 42.2031 566.388 41.647 565.95 40.9354C565.511 40.2237 565.291 39.3991 565.291 38.4616V29.9091H567.663V38.2635C567.663 38.8089 567.782 39.2947 568.021 39.7209C568.263 40.147 568.604 40.4815 569.043 40.7244C569.482 40.9631 570.002 41.0824 570.603 41.0824C571.204 41.0824 571.724 40.9631 572.163 40.7244C572.606 40.4815 572.947 40.147 573.185 39.7209C573.424 39.2947 573.543 38.8089 573.543 38.2635V29.9091ZM580.864 29.9091V43H578.492V29.9091H580.864ZM587.897 43V29.9091H592.908C593.854 29.9091 594.64 30.0582 595.267 30.3565C595.897 30.6506 596.368 31.0533 596.679 31.5646C596.995 32.076 597.152 32.6555 597.152 33.3033C597.152 33.8359 597.05 34.2919 596.846 34.6712C596.641 35.0462 596.366 35.3509 596.021 35.5852C595.676 35.8196 595.29 35.9879 594.864 36.0902V36.218C595.328 36.2436 595.774 36.3864 596.2 36.6463C596.63 36.902 596.982 37.2642 597.255 37.733C597.527 38.2017 597.664 38.7685 597.664 39.4332C597.664 40.1108 597.5 40.7202 597.172 41.2614C596.843 41.7983 596.349 42.2223 595.689 42.5334C595.028 42.8445 594.197 43 593.196 43H587.897ZM590.268 41.0185H592.819C593.679 41.0185 594.299 40.8544 594.679 40.5263C595.062 40.1939 595.254 39.7678 595.254 39.2479C595.254 38.8601 595.158 38.5107 594.966 38.1996C594.775 37.8842 594.502 37.6371 594.148 37.4581C593.794 37.2749 593.373 37.1832 592.882 37.1832H590.268V41.0185ZM590.268 35.4766H592.614C593.023 35.4766 593.392 35.402 593.72 35.2528C594.048 35.0994 594.306 34.8842 594.493 34.6072C594.685 34.326 594.781 33.9936 594.781 33.6101C594.781 33.103 594.602 32.6854 594.244 32.3572C593.89 32.0291 593.364 31.8651 592.665 31.8651H590.268V35.4766ZM611.424 36.4545C611.424 37.8651 611.16 39.0732 610.632 40.0788C610.107 41.0803 609.392 41.8473 608.484 42.38C607.58 42.9126 606.556 43.179 605.409 43.179C604.263 43.179 603.236 42.9126 602.328 42.38C601.425 41.843 600.709 41.0739 600.181 40.0724C599.656 39.0668 599.394 37.8608 599.394 36.4545C599.394 35.044 599.656 33.8381 600.181 32.8366C600.709 31.831 601.425 31.0618 602.328 30.5291C603.236 29.9964 604.263 29.7301 605.409 29.7301C606.556 29.7301 607.58 29.9964 608.484 30.5291C609.392 31.0618 610.107 31.831 610.632 32.8366C611.16 33.8381 611.424 35.044 611.424 36.4545ZM609.04 36.4545C609.04 35.4616 608.884 34.6243 608.573 33.9425C608.267 33.2564 607.84 32.7386 607.295 32.3892C606.749 32.0355 606.121 31.8587 605.409 31.8587C604.698 31.8587 604.069 32.0355 603.524 32.3892C602.978 32.7386 602.55 33.2564 602.239 33.9425C601.932 34.6243 601.779 35.4616 601.779 36.4545C601.779 37.4474 601.932 38.2869 602.239 38.973C602.55 39.6548 602.978 40.1726 603.524 40.5263C604.069 40.8757 604.698 41.0504 605.409 41.0504C606.121 41.0504 606.749 40.8757 607.295 40.5263C607.84 40.1726 608.267 39.6548 608.573 38.973C608.884 38.2869 609.04 37.4474 609.04 36.4545ZM625.364 36.4545C625.364 37.8651 625.099 39.0732 624.571 40.0788C624.047 41.0803 623.331 41.8473 622.423 42.38C621.52 42.9126 620.495 43.179 619.349 43.179C618.202 43.179 617.175 42.9126 616.268 42.38C615.364 41.843 614.648 41.0739 614.12 40.0724C613.596 39.0668 613.334 37.8608 613.334 36.4545C613.334 35.044 613.596 33.8381 614.12 32.8366C614.648 31.831 615.364 31.0618 616.268 30.5291C617.175 29.9964 618.202 29.7301 619.349 29.7301C620.495 29.7301 621.52 29.9964 622.423 30.5291C623.331 31.0618 624.047 31.831 624.571 32.8366C625.099 33.8381 625.364 35.044 625.364 36.4545ZM622.979 36.4545C622.979 35.4616 622.824 34.6243 622.513 33.9425C622.206 33.2564 621.78 32.7386 621.234 32.3892C620.689 32.0355 620.06 31.8587 619.349 31.8587C618.637 31.8587 618.009 32.0355 617.463 32.3892C616.918 32.7386 616.489 33.2564 616.178 33.9425C615.871 34.6243 615.718 35.4616 615.718 36.4545C615.718 37.4474 615.871 38.2869 616.178 38.973C616.489 39.6548 616.918 40.1726 617.463 40.5263C618.009 40.8757 618.637 41.0504 619.349 41.0504C620.06 41.0504 620.689 40.8757 621.234 40.5263C621.78 40.1726 622.206 39.6548 622.513 38.973C622.824 38.2869 622.979 37.4474 622.979 36.4545ZM634.72 33.5078C634.66 32.9496 634.409 32.5149 633.966 32.2038C633.527 31.8928 632.956 31.7372 632.253 31.7372C631.758 31.7372 631.334 31.8118 630.981 31.9609C630.627 32.1101 630.356 32.3125 630.169 32.5682C629.981 32.8239 629.885 33.1158 629.881 33.4439C629.881 33.7166 629.943 33.9531 630.067 34.1534C630.194 34.3537 630.367 34.5241 630.584 34.6648C630.802 34.8011 631.042 34.9162 631.307 35.0099C631.571 35.1037 631.837 35.1825 632.106 35.2464L633.333 35.5533C633.827 35.6683 634.302 35.8239 634.758 36.0199C635.219 36.2159 635.63 36.4631 635.992 36.7614C636.358 37.0597 636.648 37.4197 636.861 37.8416C637.074 38.2635 637.181 38.7578 637.181 39.3246C637.181 40.0916 636.985 40.767 636.593 41.3509C636.201 41.9304 635.634 42.3842 634.893 42.7124C634.155 43.0362 633.263 43.1982 632.214 43.1982C631.196 43.1982 630.312 43.0405 629.562 42.7251C628.816 42.4098 628.232 41.9496 627.81 41.3445C627.393 40.7393 627.167 40.0021 627.133 39.1328H629.466C629.5 39.5888 629.64 39.968 629.888 40.2706C630.135 40.5732 630.456 40.799 630.853 40.9482C631.253 41.0973 631.701 41.1719 632.195 41.1719C632.711 41.1719 633.162 41.0952 633.55 40.9418C633.942 40.7841 634.249 40.5668 634.471 40.2898C634.692 40.0085 634.805 39.6804 634.809 39.3054C634.805 38.9645 634.705 38.6832 634.509 38.4616C634.313 38.2358 634.038 38.0483 633.684 37.8991C633.335 37.7457 632.926 37.6094 632.457 37.4901L630.968 37.1065C629.89 36.8295 629.037 36.4098 628.411 35.8473C627.789 35.2805 627.478 34.5284 627.478 33.5909C627.478 32.8196 627.687 32.1442 628.104 31.5646C628.526 30.9851 629.099 30.5355 629.824 30.2159C630.548 29.892 631.368 29.7301 632.285 29.7301C633.214 29.7301 634.028 29.892 634.726 30.2159C635.43 30.5355 635.981 30.9808 636.382 31.5518C636.782 32.1186 636.989 32.7706 637.002 33.5078H634.72ZM638.72 31.897V29.9091H649.164V31.897H645.118V43H642.766V31.897H638.72Z" fill="white"/>
<circle cx="675.5" cy="36.5" r="9.5" fill="#17161C"/>
<path fill-rule="evenodd" clip-rule="evenodd" d="M674.983 31.1371H676.128C676.272 33.6861 678.314 35.7277 680.863 35.8716V37.0171C678.314 37.161 676.272 39.2027 676.128 41.7518H674.983C674.839 39.2027 672.797 37.161 670.248 37.0171V35.8716C672.797 35.7277 674.839 33.6861 674.983 31.1371Z" fill="#EE56BB"/>
<path d="M710.543 29.9091H712.915V38.4616C712.915 39.3991 712.693 40.2237 712.25 40.9354C711.811 41.647 711.193 42.2031 710.396 42.6037C709.599 43 708.668 43.1982 707.603 43.1982C706.533 43.1982 705.6 43 704.803 42.6037C704.006 42.2031 703.388 41.647 702.95 40.9354C702.511 40.2237 702.291 39.3991 702.291 38.4616V29.9091H704.663V38.2635C704.663 38.8089 704.782 39.2947 705.021 39.7209C705.263 40.147 705.604 40.4815 706.043 40.7244C706.482 40.9631 707.002 41.0824 707.603 41.0824C708.204 41.0824 708.724 40.9631 709.163 40.7244C709.606 40.4815 709.947 40.147 710.185 39.7209C710.424 39.2947 710.543 38.8089 710.543 38.2635V29.9091ZM717.864 29.9091V43H715.492V29.9091H717.864ZM724.897 43V29.9091H729.908C730.854 29.9091 731.64 30.0582 732.267 30.3565C732.897 30.6506 733.368 31.0533 733.679 31.5646C733.995 32.076 734.152 32.6555 734.152 33.3033C734.152 33.8359 734.05 34.2919 733.846 34.6712C733.641 35.0462 733.366 35.3509 733.021 35.5852C732.676 35.8196 732.29 35.9879 731.864 36.0902V36.218C732.328 36.2436 732.774 36.3864 733.2 36.6463C733.63 36.902 733.982 37.2642 734.255 37.733C734.527 38.2017 734.664 38.7685 734.664 39.4332C734.664 40.1108 734.5 40.7202 734.172 41.2614C733.843 41.7983 733.349 42.2223 732.689 42.5334C732.028 42.8445 731.197 43 730.196 43H724.897ZM727.268 41.0185H729.819C730.679 41.0185 731.299 40.8544 731.679 40.5263C732.062 40.1939 732.254 39.7678 732.254 39.2479C732.254 38.8601 732.158 38.5107 731.966 38.1996C731.775 37.8842 731.502 37.6371 731.148 37.4581C730.794 37.2749 730.373 37.1832 729.882 37.1832H727.268V41.0185ZM727.268 35.4766H729.614C730.023 35.4766 730.392 35.402 730.72 35.2528C731.048 35.0994 731.306 34.8842 731.493 34.6072C731.685 34.326 731.781 33.9936 731.781 33.6101C731.781 33.103 731.602 32.6854 731.244 32.3572C730.89 32.0291 730.364 31.8651 729.665 31.8651H727.268V35.4766ZM748.424 36.4545C748.424 37.8651 748.16 39.0732 747.632 40.0788C747.107 41.0803 746.392 41.8473 745.484 42.38C744.58 42.9126 743.556 43.179 742.409 43.179C741.263 43.179 740.236 42.9126 739.328 42.38C738.425 41.843 737.709 41.0739 737.181 40.0724C736.656 39.0668 736.394 37.8608 736.394 36.4545C736.394 35.044 736.656 33.8381 737.181 32.8366C737.709 31.831 738.425 31.0618 739.328 30.5291C740.236 29.9964 741.263 29.7301 742.409 29.7301C743.556 29.7301 744.58 29.9964 745.484 30.5291C746.392 31.0618 747.107 31.831 747.632 32.8366C748.16 33.8381 748.424 35.044 748.424 36.4545ZM746.04 36.4545C746.04 35.4616 745.884 34.6243 745.573 33.9425C745.267 33.2564 744.84 32.7386 744.295 32.3892C743.749 32.0355 743.121 31.8587 742.409 31.8587C741.698 31.8587 741.069 32.0355 740.524 32.3892C739.978 32.7386 739.55 33.2564 739.239 33.9425C738.932 34.6243 738.779 35.4616 738.779 36.4545C738.779 37.4474 738.932 38.2869 739.239 38.973C739.55 39.6548 739.978 40.1726 740.524 40.5263C741.069 40.8757 741.698 41.0504 742.409 41.0504C743.121 41.0504 743.749 40.8757 744.295 40.5263C744.84 40.1726 745.267 39.6548 745.573 38.973C745.884 38.2869 746.04 37.4474 746.04 36.4545ZM762.364 36.4545C762.364 37.8651 762.099 39.0732 761.571 40.0788C761.047 41.0803 760.331 41.8473 759.423 42.38C758.52 42.9126 757.495 43.179 756.349 43.179C755.202 43.179 754.175 42.9126 753.268 42.38C752.364 41.843 751.648 41.0739 751.12 40.0724C750.596 39.0668 750.334 37.8608 750.334 36.4545C750.334 35.044 750.596 33.8381 751.12 32.8366C751.648 31.831 752.364 31.0618 753.268 30.5291C754.175 29.9964 755.202 29.7301 756.349 29.7301C757.495 29.7301 758.52 29.9964 759.423 30.5291C760.331 31.0618 761.047 31.831 761.571 32.8366C762.099 33.8381 762.364 35.044 762.364 36.4545ZM759.979 36.4545C759.979 35.4616 759.824 34.6243 759.513 33.9425C759.206 33.2564 758.78 32.7386 758.234 32.3892C757.689 32.0355 757.06 31.8587 756.349 31.8587C755.637 31.8587 755.009 32.0355 754.463 32.3892C753.918 32.7386 753.489 33.2564 753.178 33.9425C752.871 34.6243 752.718 35.4616 752.718 36.4545C752.718 37.4474 752.871 38.2869 753.178 38.973C753.489 39.6548 753.918 40.1726 754.463 40.5263C755.009 40.8757 755.637 41.0504 756.349 41.0504C757.06 41.0504 757.689 40.8757 758.234 40.5263C758.78 40.1726 759.206 39.6548 759.513 38.973C759.824 38.2869 759.979 37.4474 759.979 36.4545ZM771.72 33.5078C771.66 32.9496 771.409 32.5149 770.966 32.2038C770.527 31.8928 769.956 31.7372 769.253 31.7372C768.758 31.7372 768.334 31.8118 767.981 31.9609C767.627 32.1101 767.356 32.3125 767.169 32.5682C766.981 32.8239 766.885 33.1158 766.881 33.4439C766.881 33.7166 766.943 33.9531 767.067 34.1534C767.194 34.3537 767.367 34.5241 767.584 34.6648C767.802 34.8011 768.042 34.9162 768.307 35.0099C768.571 35.1037 768.837 35.1825 769.106 35.2464L770.333 35.5533C770.827 35.6683 771.302 35.8239 771.758 36.0199C772.219 36.2159 772.63 36.4631 772.992 36.7614C773.358 37.0597 773.648 37.4197 773.861 37.8416C774.074 38.2635 774.181 38.7578 774.181 39.3246C774.181 40.0916 773.985 40.767 773.593 41.3509C773.201 41.9304 772.634 42.3842 771.893 42.7124C771.155 43.0362 770.263 43.1982 769.214 43.1982C768.196 43.1982 767.312 43.0405 766.562 42.7251C765.816 42.4098 765.232 41.9496 764.81 41.3445C764.393 40.7393 764.167 40.0021 764.133 39.1328H766.466C766.5 39.5888 766.64 39.968 766.888 40.2706C767.135 40.5732 767.456 40.799 767.853 40.9482C768.253 41.0973 768.701 41.1719 769.195 41.1719C769.711 41.1719 770.162 41.0952 770.55 40.9418C770.942 40.7841 771.249 40.5668 771.471 40.2898C771.692 40.0085 771.805 39.6804 771.809 39.3054C771.805 38.9645 771.705 38.6832 771.509 38.4616C771.313 38.2358 771.038 38.0483 770.684 37.8991C770.335 37.7457 769.926 37.6094 769.457 37.4901L767.968 37.1065C766.89 36.8295 766.037 36.4098 765.411 35.8473C764.789 35.2805 764.478 34.5284 764.478 33.5909C764.478 32.8196 764.687 32.1442 765.104 31.5646C765.526 30.9851 766.099 30.5355 766.824 30.2159C767.548 29.892 768.368 29.7301 769.285 29.7301C770.214 29.7301 771.028 29.892 771.726 30.2159C772.43 30.5355 772.981 30.9808 773.382 31.5518C773.782 32.1186 773.989 32.7706 774.002 33.5078H771.72ZM775.72 31.897V29.9091H786.164V31.897H782.118V43H779.766V31.897H775.72Z" fill="white"/>
<circle cx="812.5" cy="36.5" r="9.5" fill="#17161C"/>
<path fill-rule="evenodd" clip-rule="evenodd" d="M811.983 31.1371H813.128C813.272 33.6861 815.314 35.7277 817.863 35.8716V37.0171C815.314 37.161 813.272 39.2027 813.128 41.7518H811.983C811.839 39.2027 809.797 37.161 807.248 37.0171V35.8716C809.797 35.7277 811.839 33.6861 811.983 31.1371Z" fill="#EE56BB"/>
<path d="M847.543 29.9091H849.915V38.4616C849.915 39.3991 849.693 40.2237 849.25 40.9354C848.811 41.647 848.193 42.2031 847.396 42.6037C846.599 43 845.668 43.1982 844.603 43.1982C843.533 43.1982 842.6 43 841.803 42.6037C841.006 42.2031 840.388 41.647 839.95 40.9354C839.511 40.2237 839.291 39.3991 839.291 38.4616V29.9091H841.663V38.2635C841.663 38.8089 841.782 39.2947 842.021 39.7209C842.263 40.147 842.604 40.4815 843.043 40.7244C843.482 40.9631 844.002 41.0824 844.603 41.0824C845.204 41.0824 845.724 40.9631 846.163 40.7244C846.606 40.4815 846.947 40.147 847.185 39.7209C847.424 39.2947 847.543 38.8089 847.543 38.2635V29.9091ZM854.864 29.9091V43H852.492V29.9091H854.864ZM861.897 43V29.9091H866.908C867.854 29.9091 868.64 30.0582 869.267 30.3565C869.897 30.6506 870.368 31.0533 870.679 31.5646C870.995 32.076 871.152 32.6555 871.152 33.3033C871.152 33.8359 871.05 34.2919 870.846 34.6712C870.641 35.0462 870.366 35.3509 870.021 35.5852C869.676 35.8196 869.29 35.9879 868.864 36.0902V36.218C869.328 36.2436 869.774 36.3864 870.2 36.6463C870.63 36.902 870.982 37.2642 871.255 37.733C871.527 38.2017 871.664 38.7685 871.664 39.4332C871.664 40.1108 871.5 40.7202 871.172 41.2614C870.843 41.7983 870.349 42.2223 869.689 42.5334C869.028 42.8445 868.197 43 867.196 43H861.897ZM864.268 41.0185H866.819C867.679 41.0185 868.299 40.8544 868.679 40.5263C869.062 40.1939 869.254 39.7678 869.254 39.2479C869.254 38.8601 869.158 38.5107 868.966 38.1996C868.775 37.8842 868.502 37.6371 868.148 37.4581C867.794 37.2749 867.373 37.1832 866.882 37.1832H864.268V41.0185ZM864.268 35.4766H866.614C867.023 35.4766 867.392 35.402 867.72 35.2528C868.048 35.0994 868.306 34.8842 868.493 34.6072C868.685 34.326 868.781 33.9936 868.781 33.6101C868.781 33.103 868.602 32.6854 868.244 32.3572C867.89 32.0291 867.364 31.8651 866.665 31.8651H864.268V35.4766ZM885.424 36.4545C885.424 37.8651 885.16 39.0732 884.632 40.0788C884.107 41.0803 883.392 41.8473 882.484 42.38C881.58 42.9126 880.556 43.179 879.409 43.179C878.263 43.179 877.236 42.9126 876.328 42.38C875.425 41.843 874.709 41.0739 874.181 40.0724C873.656 39.0668 873.394 37.8608 873.394 36.4545C873.394 35.044 873.656 33.8381 874.181 32.8366C874.709 31.831 875.425 31.0618 876.328 30.5291C877.236 29.9964 878.263 29.7301 879.409 29.7301C880.556 29.7301 881.58 29.9964 882.484 30.5291C883.392 31.0618 884.107 31.831 884.632 32.8366C885.16 33.8381 885.424 35.044 885.424 36.4545ZM883.04 36.4545C883.04 35.4616 882.884 34.6243 882.573 33.9425C882.267 33.2564 881.84 32.7386 881.295 32.3892C880.749 32.0355 880.121 31.8587 879.409 31.8587C878.698 31.8587 878.069 32.0355 877.524 32.3892C876.978 32.7386 876.55 33.2564 876.239 33.9425C875.932 34.6243 875.779 35.4616 875.779 36.4545C875.779 37.4474 875.932 38.2869 876.239 38.973C876.55 39.6548 876.978 40.1726 877.524 40.5263C878.069 40.8757 878.698 41.0504 879.409 41.0504C880.121 41.0504 880.749 40.8757 881.295 40.5263C881.84 40.1726 882.267 39.6548 882.573 38.973C882.884 38.2869 883.04 37.4474 883.04 36.4545ZM899.364 36.4545C899.364 37.8651 899.099 39.0732 898.571 40.0788C898.047 41.0803 897.331 41.8473 896.423 42.38C895.52 42.9126 894.495 43.179 893.349 43.179C892.202 43.179 891.175 42.9126 890.268 42.38C889.364 41.843 888.648 41.0739 888.12 40.0724C887.596 39.0668 887.334 37.8608 887.334 36.4545C887.334 35.044 887.596 33.8381 888.12 32.8366C888.648 31.831 889.364 31.0618 890.268 30.5291C891.175 29.9964 892.202 29.7301 893.349 29.7301C894.495 29.7301 895.52 29.9964 896.423 30.5291C897.331 31.0618 898.047 31.831 898.571 32.8366C899.099 33.8381 899.364 35.044 899.364 36.4545ZM896.979 36.4545C896.979 35.4616 896.824 34.6243 896.513 33.9425C896.206 33.2564 895.78 32.7386 895.234 32.3892C894.689 32.0355 894.06 31.8587 893.349 31.8587C892.637 31.8587 892.009 32.0355 891.463 32.3892C890.918 32.7386 890.489 33.2564 890.178 33.9425C889.871 34.6243 889.718 35.4616 889.718 36.4545C889.718 37.4474 889.871 38.2869 890.178 38.973C890.489 39.6548 890.918 40.1726 891.463 40.5263C892.009 40.8757 892.637 41.0504 893.349 41.0504C894.06 41.0504 894.689 40.8757 895.234 40.5263C895.78 40.1726 896.206 39.6548 896.513 38.973C896.824 38.2869 896.979 37.4474 896.979 36.4545ZM908.72 33.5078C908.66 32.9496 908.409 32.5149 907.966 32.2038C907.527 31.8928 906.956 31.7372 906.253 31.7372C905.758 31.7372 905.334 31.8118 904.981 31.9609C904.627 32.1101 904.356 32.3125 904.169 32.5682C903.981 32.8239 903.885 33.1158 903.881 33.4439C903.881 33.7166 903.943 33.9531 904.067 34.1534C904.194 34.3537 904.367 34.5241 904.584 34.6648C904.802 34.8011 905.042 34.9162 905.307 35.0099C905.571 35.1037 905.837 35.1825 906.106 35.2464L907.333 35.5533C907.827 35.6683 908.302 35.8239 908.758 36.0199C909.219 36.2159 909.63 36.4631 909.992 36.7614C910.358 37.0597 910.648 37.4197 910.861 37.8416C911.074 38.2635 911.181 38.7578 911.181 39.3246C911.181 40.0916 910.985 40.767 910.593 41.3509C910.201 41.9304 909.634 42.3842 908.893 42.7124C908.155 43.0362 907.263 43.1982 906.214 43.1982C905.196 43.1982 904.312 43.0405 903.562 42.7251C902.816 42.4098 902.232 41.9496 901.81 41.3445C901.393 40.7393 901.167 40.0021 901.133 39.1328H903.466C903.5 39.5888 903.64 39.968 903.888 40.2706C904.135 40.5732 904.456 40.799 904.853 40.9482C905.253 41.0973 905.701 41.1719 906.195 41.1719C906.711 41.1719 907.162 41.0952 907.55 40.9418C907.942 40.7841 908.249 40.5668 908.471 40.2898C908.692 40.0085 908.805 39.6804 908.809 39.3054C908.805 38.9645 908.705 38.6832 908.509 38.4616C908.313 38.2358 908.038 38.0483 907.684 37.8991C907.335 37.7457 906.926 37.6094 906.457 37.4901L904.968 37.1065C903.89 36.8295 903.037 36.4098 902.411 35.8473C901.789 35.2805 901.478 34.5284 901.478 33.5909C901.478 32.8196 901.687 32.1442 902.104 31.5646C902.526 30.9851 903.099 30.5355 903.824 30.2159C904.548 29.892 905.368 29.7301 906.285 29.7301C907.214 29.7301 908.028 29.892 908.726 30.2159C909.43 30.5355 909.981 30.9808 910.382 31.5518C910.782 32.1186 910.989 32.7706 911.002 33.5078H908.72ZM912.72 31.897V29.9091H923.164V31.897H919.118V43H916.766V31.897H912.72Z" fill="white"/>
<circle cx="949.5" cy="36.5" r="9.5" fill="#17161C"/>
<path fill-rule="evenodd" clip-rule="evenodd" d="M948.983 31.1371H950.128C950.272 33.6861 952.314 35.7277 954.863 35.8716V37.0171C952.314 37.161 950.272 39.2027 950.128 41.7518H948.983C948.839 39.2027 946.797 37.161 944.248 37.0171V35.8716C946.797 35.7277 948.839 33.6861 948.983 31.1371Z" fill="#EE56BB"/>
<path d="M984.543 29.9091H986.915V38.4616C986.915 39.3991 986.693 40.2237 986.25 40.9354C985.811 41.647 985.193 42.2031 984.396 42.6037C983.599 43 982.668 43.1982 981.603 43.1982C980.533 43.1982 979.6 43 978.803 42.6037C978.006 42.2031 977.388 41.647 976.95 40.9354C976.511 40.2237 976.291 39.3991 976.291 38.4616V29.9091H978.663V38.2635C978.663 38.8089 978.782 39.2947 979.021 39.7209C979.263 40.147 979.604 40.4815 980.043 40.7244C980.482 40.9631 981.002 41.0824 981.603 41.0824C982.204 41.0824 982.724 40.9631 983.163 40.7244C983.606 40.4815 983.947 40.147 984.185 39.7209C984.424 39.2947 984.543 38.8089 984.543 38.2635V29.9091ZM991.864 29.9091V43H989.492V29.9091H991.864ZM998.897 43V29.9091H1003.91C1004.85 29.9091 1005.64 30.0582 1006.27 30.3565C1006.9 30.6506 1007.37 31.0533 1007.68 31.5646C1007.99 32.076 1008.15 32.6555 1008.15 33.3033C1008.15 33.8359 1008.05 34.2919 1007.85 34.6712C1007.64 35.0462 1007.37 35.3509 1007.02 35.5852C1006.68 35.8196 1006.29 35.9879 1005.86 36.0902V36.218C1006.33 36.2436 1006.77 36.3864 1007.2 36.6463C1007.63 36.902 1007.98 37.2642 1008.25 37.733C1008.53 38.2017 1008.66 38.7685 1008.66 39.4332C1008.66 40.1108 1008.5 40.7202 1008.17 41.2614C1007.84 41.7983 1007.35 42.2223 1006.69 42.5334C1006.03 42.8445 1005.2 43 1004.2 43H998.897ZM1001.27 41.0185H1003.82C1004.68 41.0185 1005.3 40.8544 1005.68 40.5263C1006.06 40.1939 1006.25 39.7678 1006.25 39.2479C1006.25 38.8601 1006.16 38.5107 1005.97 38.1996C1005.77 37.8842 1005.5 37.6371 1005.15 37.4581C1004.79 37.2749 1004.37 37.1832 1003.88 37.1832H1001.27V41.0185ZM1001.27 35.4766H1003.61C1004.02 35.4766 1004.39 35.402 1004.72 35.2528C1005.05 35.0994 1005.31 34.8842 1005.49 34.6072C1005.69 34.326 1005.78 33.9936 1005.78 33.6101C1005.78 33.103 1005.6 32.6854 1005.24 32.3572C1004.89 32.0291 1004.36 31.8651 1003.67 31.8651H1001.27V35.4766ZM1022.42 36.4545C1022.42 37.8651 1022.16 39.0732 1021.63 40.0788C1021.11 41.0803 1020.39 41.8473 1019.48 42.38C1018.58 42.9126 1017.56 43.179 1016.41 43.179C1015.26 43.179 1014.24 42.9126 1013.33 42.38C1012.42 41.843 1011.71 41.0739 1011.18 40.0724C1010.66 39.0668 1010.39 37.8608 1010.39 36.4545C1010.39 35.044 1010.66 33.8381 1011.18 32.8366C1011.71 31.831 1012.42 31.0618 1013.33 30.5291C1014.24 29.9964 1015.26 29.7301 1016.41 29.7301C1017.56 29.7301 1018.58 29.9964 1019.48 30.5291C1020.39 31.0618 1021.11 31.831 1021.63 32.8366C1022.16 33.8381 1022.42 35.044 1022.42 36.4545ZM1020.04 36.4545C1020.04 35.4616 1019.88 34.6243 1019.57 33.9425C1019.27 33.2564 1018.84 32.7386 1018.29 32.3892C1017.75 32.0355 1017.12 31.8587 1016.41 31.8587C1015.7 31.8587 1015.07 32.0355 1014.52 32.3892C1013.98 32.7386 1013.55 33.2564 1013.24 33.9425C1012.93 34.6243 1012.78 35.4616 1012.78 36.4545C1012.78 37.4474 1012.93 38.2869 1013.24 38.973C1013.55 39.6548 1013.98 40.1726 1014.52 40.5263C1015.07 40.8757 1015.7 41.0504 1016.41 41.0504C1017.12 41.0504 1017.75 40.8757 1018.29 40.5263C1018.84 40.1726 1019.27 39.6548 1019.57 38.973C1019.88 38.2869 1020.04 37.4474 1020.04 36.4545ZM1036.36 36.4545C1036.36 37.8651 1036.1 39.0732 1035.57 40.0788C1035.05 41.0803 1034.33 41.8473 1033.42 42.38C1032.52 42.9126 1031.5 43.179 1030.35 43.179C1029.2 43.179 1028.18 42.9126 1027.27 42.38C1026.36 41.843 1025.65 41.0739 1025.12 40.0724C1024.6 39.0668 1024.33 37.8608 1024.33 36.4545C1024.33 35.044 1024.6 33.8381 1025.12 32.8366C1025.65 31.831 1026.36 31.0618 1027.27 30.5291C1028.18 29.9964 1029.2 29.7301 1030.35 29.7301C1031.5 29.7301 1032.52 29.9964 1033.42 30.5291C1034.33 31.0618 1035.05 31.831 1035.57 32.8366C1036.1 33.8381 1036.36 35.044 1036.36 36.4545ZM1033.98 36.4545C1033.98 35.4616 1033.82 34.6243 1033.51 33.9425C1033.21 33.2564 1032.78 32.7386 1032.23 32.3892C1031.69 32.0355 1031.06 31.8587 1030.35 31.8587C1029.64 31.8587 1029.01 32.0355 1028.46 32.3892C1027.92 32.7386 1027.49 33.2564 1027.18 33.9425C1026.87 34.6243 1026.72 35.4616 1026.72 36.4545C1026.72 37.4474 1026.87 38.2869 1027.18 38.973C1027.49 39.6548 1027.92 40.1726 1028.46 40.5263C1029.01 40.8757 1029.64 41.0504 1030.35 41.0504C1031.06 41.0504 1031.69 40.8757 1032.23 40.5263C1032.78 40.1726 1033.21 39.6548 1033.51 38.973C1033.82 38.2869 1033.98 37.4474 1033.98 36.4545ZM1045.72 33.5078C1045.66 32.9496 1045.41 32.5149 1044.97 32.2038C1044.53 31.8928 1043.96 31.7372 1043.25 31.7372C1042.76 31.7372 1042.33 31.8118 1041.98 31.9609C1041.63 32.1101 1041.36 32.3125 1041.17 32.5682C1040.98 32.8239 1040.89 33.1158 1040.88 33.4439C1040.88 33.7166 1040.94 33.9531 1041.07 34.1534C1041.19 34.3537 1041.37 34.5241 1041.58 34.6648C1041.8 34.8011 1042.04 34.9162 1042.31 35.0099C1042.57 35.1037 1042.84 35.1825 1043.11 35.2464L1044.33 35.5533C1044.83 35.6683 1045.3 35.8239 1045.76 36.0199C1046.22 36.2159 1046.63 36.4631 1046.99 36.7614C1047.36 37.0597 1047.65 37.4197 1047.86 37.8416C1048.07 38.2635 1048.18 38.7578 1048.18 39.3246C1048.18 40.0916 1047.98 40.767 1047.59 41.3509C1047.2 41.9304 1046.63 42.3842 1045.89 42.7124C1045.16 43.0362 1044.26 43.1982 1043.21 43.1982C1042.2 43.1982 1041.31 43.0405 1040.56 42.7251C1039.82 42.4098 1039.23 41.9496 1038.81 41.3445C1038.39 40.7393 1038.17 40.0021 1038.13 39.1328H1040.47C1040.5 39.5888 1040.64 39.968 1040.89 40.2706C1041.13 40.5732 1041.46 40.799 1041.85 40.9482C1042.25 41.0973 1042.7 41.1719 1043.2 41.1719C1043.71 41.1719 1044.16 41.0952 1044.55 40.9418C1044.94 40.7841 1045.25 40.5668 1045.47 40.2898C1045.69 40.0085 1045.81 39.6804 1045.81 39.3054C1045.81 38.9645 1045.71 38.6832 1045.51 38.4616C1045.31 38.2358 1045.04 38.0483 1044.68 37.8991C1044.34 37.7457 1043.93 37.6094 1043.46 37.4901L1041.97 37.1065C1040.89 36.8295 1040.04 36.4098 1039.41 35.8473C1038.79 35.2805 1038.48 34.5284 1038.48 33.5909C1038.48 32.8196 1038.69 32.1442 1039.1 31.5646C1039.53 30.9851 1040.1 30.5355 1040.82 30.2159C1041.55 29.892 1042.37 29.7301 1043.28 29.7301C1044.21 29.7301 1045.03 29.892 1045.73 30.2159C1046.43 30.5355 1046.98 30.9808 1047.38 31.5518C1047.78 32.1186 1047.99 32.7706 1048 33.5078H1045.72ZM1049.72 31.897V29.9091H1060.16V31.897H1056.12V43H1053.77V31.897H1049.72Z" fill="white"/>
<circle cx="1086.5" cy="36.5" r="9.5" fill="#17161C"/>
<path fill-rule="evenodd" clip-rule="evenodd" d="M1085.98 31.1371H1087.13C1087.27 33.6861 1089.31 35.7277 1091.86 35.8716V37.0171C1089.31 37.161 1087.27 39.2027 1087.13 41.7518H1085.98C1085.84 39.2027 1083.8 37.161 1081.25 37.0171V35.8716C1083.8 35.7277 1085.84 33.6861 1085.98 31.1371Z" fill="#EE56BB"/>
<path d="M1121.54 29.9091H1123.91V38.4616C1123.91 39.3991 1123.69 40.2237 1123.25 40.9354C1122.81 41.647 1122.19 42.2031 1121.4 42.6037C1120.6 43 1119.67 43.1982 1118.6 43.1982C1117.53 43.1982 1116.6 43 1115.8 42.6037C1115.01 42.2031 1114.39 41.647 1113.95 40.9354C1113.51 40.2237 1113.29 39.3991 1113.29 38.4616V29.9091H1115.66V38.2635C1115.66 38.8089 1115.78 39.2947 1116.02 39.7209C1116.26 40.147 1116.6 40.4815 1117.04 40.7244C1117.48 40.9631 1118 41.0824 1118.6 41.0824C1119.2 41.0824 1119.72 40.9631 1120.16 40.7244C1120.61 40.4815 1120.95 40.147 1121.19 39.7209C1121.42 39.2947 1121.54 38.8089 1121.54 38.2635V29.9091ZM1128.86 29.9091V43H1126.49V29.9091H1128.86ZM1135.9 43V29.9091H1140.91C1141.85 29.9091 1142.64 30.0582 1143.27 30.3565C1143.9 30.6506 1144.37 31.0533 1144.68 31.5646C1144.99 32.076 1145.15 32.6555 1145.15 33.3033C1145.15 33.8359 1145.05 34.2919 1144.85 34.6712C1144.64 35.0462 1144.37 35.3509 1144.02 35.5852C1143.68 35.8196 1143.29 35.9879 1142.86 36.0902V36.218C1143.33 36.2436 1143.77 36.3864 1144.2 36.6463C1144.63 36.902 1144.98 37.2642 1145.25 37.733C1145.53 38.2017 1145.66 38.7685 1145.66 39.4332C1145.66 40.1108 1145.5 40.7202 1145.17 41.2614C1144.84 41.7983 1144.35 42.2223 1143.69 42.5334C1143.03 42.8445 1142.2 43 1141.2 43H1135.9ZM1138.27 41.0185H1140.82C1141.68 41.0185 1142.3 40.8544 1142.68 40.5263C1143.06 40.1939 1143.25 39.7678 1143.25 39.2479C1143.25 38.8601 1143.16 38.5107 1142.97 38.1996C1142.77 37.8842 1142.5 37.6371 1142.15 37.4581C1141.79 37.2749 1141.37 37.1832 1140.88 37.1832H1138.27V41.0185ZM1138.27 35.4766H1140.61C1141.02 35.4766 1141.39 35.402 1141.72 35.2528C1142.05 35.0994 1142.31 34.8842 1142.49 34.6072C1142.69 34.326 1142.78 33.9936 1142.78 33.6101C1142.78 33.103 1142.6 32.6854 1142.24 32.3572C1141.89 32.0291 1141.36 31.8651 1140.67 31.8651H1138.27V35.4766ZM1159.42 36.4545C1159.42 37.8651 1159.16 39.0732 1158.63 40.0788C1158.11 41.0803 1157.39 41.8473 1156.48 42.38C1155.58 42.9126 1154.56 43.179 1153.41 43.179C1152.26 43.179 1151.24 42.9126 1150.33 42.38C1149.42 41.843 1148.71 41.0739 1148.18 40.0724C1147.66 39.0668 1147.39 37.8608 1147.39 36.4545C1147.39 35.044 1147.66 33.8381 1148.18 32.8366C1148.71 31.831 1149.42 31.0618 1150.33 30.5291C1151.24 29.9964 1152.26 29.7301 1153.41 29.7301C1154.56 29.7301 1155.58 29.9964 1156.48 30.5291C1157.39 31.0618 1158.11 31.831 1158.63 32.8366C1159.16 33.8381 1159.42 35.044 1159.42 36.4545ZM1157.04 36.4545C1157.04 35.4616 1156.88 34.6243 1156.57 33.9425C1156.27 33.2564 1155.84 32.7386 1155.29 32.3892C1154.75 32.0355 1154.12 31.8587 1153.41 31.8587C1152.7 31.8587 1152.07 32.0355 1151.52 32.3892C1150.98 32.7386 1150.55 33.2564 1150.24 33.9425C1149.93 34.6243 1149.78 35.4616 1149.78 36.4545C1149.78 37.4474 1149.93 38.2869 1150.24 38.973C1150.55 39.6548 1150.98 40.1726 1151.52 40.5263C1152.07 40.8757 1152.7 41.0504 1153.41 41.0504C1154.12 41.0504 1154.75 40.8757 1155.29 40.5263C1155.84 40.1726 1156.27 39.6548 1156.57 38.973C1156.88 38.2869 1157.04 37.4474 1157.04 36.4545ZM1173.36 36.4545C1173.36 37.8651 1173.1 39.0732 1172.57 40.0788C1172.05 41.0803 1171.33 41.8473 1170.42 42.38C1169.52 42.9126 1168.5 43.179 1167.35 43.179C1166.2 43.179 1165.18 42.9126 1164.27 42.38C1163.36 41.843 1162.65 41.0739 1162.12 40.0724C1161.6 39.0668 1161.33 37.8608 1161.33 36.4545C1161.33 35.044 1161.6 33.8381 1162.12 32.8366C1162.65 31.831 1163.36 31.0618 1164.27 30.5291C1165.18 29.9964 1166.2 29.7301 1167.35 29.7301C1168.5 29.7301 1169.52 29.9964 1170.42 30.5291C1171.33 31.0618 1172.05 31.831 1172.57 32.8366C1173.1 33.8381 1173.36 35.044 1173.36 36.4545ZM1170.98 36.4545C1170.98 35.4616 1170.82 34.6243 1170.51 33.9425C1170.21 33.2564 1169.78 32.7386 1169.23 32.3892C1168.69 32.0355 1168.06 31.8587 1167.35 31.8587C1166.64 31.8587 1166.01 32.0355 1165.46 32.3892C1164.92 32.7386 1164.49 33.2564 1164.18 33.9425C1163.87 34.6243 1163.72 35.4616 1163.72 36.4545C1163.72 37.4474 1163.87 38.2869 1164.18 38.973C1164.49 39.6548 1164.92 40.1726 1165.46 40.5263C1166.01 40.8757 1166.64 41.0504 1167.35 41.0504C1168.06 41.0504 1168.69 40.8757 1169.23 40.5263C1169.78 40.1726 1170.21 39.6548 1170.51 38.973C1170.82 38.2869 1170.98 37.4474 1170.98 36.4545ZM1182.72 33.5078C1182.66 32.9496 1182.41 32.5149 1181.97 32.2038C1181.53 31.8928 1180.96 31.7372 1180.25 31.7372C1179.76 31.7372 1179.33 31.8118 1178.98 31.9609C1178.63 32.1101 1178.36 32.3125 1178.17 32.5682C1177.98 32.8239 1177.89 33.1158 1177.88 33.4439C1177.88 33.7166 1177.94 33.9531 1178.07 34.1534C1178.19 34.3537 1178.37 34.5241 1178.58 34.6648C1178.8 34.8011 1179.04 34.9162 1179.31 35.0099C1179.57 35.1037 1179.84 35.1825 1180.11 35.2464L1181.33 35.5533C1181.83 35.6683 1182.3 35.8239 1182.76 36.0199C1183.22 36.2159 1183.63 36.4631 1183.99 36.7614C1184.36 37.0597 1184.65 37.4197 1184.86 37.8416C1185.07 38.2635 1185.18 38.7578 1185.18 39.3246C1185.18 40.0916 1184.98 40.767 1184.59 41.3509C1184.2 41.9304 1183.63 42.3842 1182.89 42.7124C1182.16 43.0362 1181.26 43.1982 1180.21 43.1982C1179.2 43.1982 1178.31 43.0405 1177.56 42.7251C1176.82 42.4098 1176.23 41.9496 1175.81 41.3445C1175.39 40.7393 1175.17 40.0021 1175.13 39.1328H1177.47C1177.5 39.5888 1177.64 39.968 1177.89 40.2706C1178.13 40.5732 1178.46 40.799 1178.85 40.9482C1179.25 41.0973 1179.7 41.1719 1180.2 41.1719C1180.71 41.1719 1181.16 41.0952 1181.55 40.9418C1181.94 40.7841 1182.25 40.5668 1182.47 40.2898C1182.69 40.0085 1182.81 39.6804 1182.81 39.3054C1182.81 38.9645 1182.71 38.6832 1182.51 38.4616C1182.31 38.2358 1182.04 38.0483 1181.68 37.8991C1181.34 37.7457 1180.93 37.6094 1180.46 37.4901L1178.97 37.1065C1177.89 36.8295 1177.04 36.4098 1176.41 35.8473C1175.79 35.2805 1175.48 34.5284 1175.48 33.5909C1175.48 32.8196 1175.69 32.1442 1176.1 31.5646C1176.53 30.9851 1177.1 30.5355 1177.82 30.2159C1178.55 29.892 1179.37 29.7301 1180.28 29.7301C1181.21 29.7301 1182.03 29.892 1182.73 30.2159C1183.43 30.5355 1183.98 30.9808 1184.38 31.5518C1184.78 32.1186 1184.99 32.7706 1185 33.5078H1182.72ZM1186.72 31.897V29.9091H1197.16V31.897H1193.12V43H1190.77V31.897H1186.72Z" fill="white"/>
<circle cx="1223.5" cy="36.5" r="9.5" fill="#17161C"/>
<path fill-rule="evenodd" clip-rule="evenodd" d="M1222.98 31.1371H1224.13C1224.27 33.6861 1226.31 35.7277 1228.86 35.8716V37.0171C1226.31 37.161 1224.27 39.2027 1224.13 41.7518H1222.98C1222.84 39.2027 1220.8 37.161 1218.25 37.0171V35.8716C1220.8 35.7277 1222.84 33.6861 1222.98 31.1371Z" fill="#EE56BB"/>
<path d="M1258.54 29.9091H1260.91V38.4616C1260.91 39.3991 1260.69 40.2237 1260.25 40.9354C1259.81 41.647 1259.19 42.2031 1258.4 42.6037C1257.6 43 1256.67 43.1982 1255.6 43.1982C1254.53 43.1982 1253.6 43 1252.8 42.6037C1252.01 42.2031 1251.39 41.647 1250.95 40.9354C1250.51 40.2237 1250.29 39.3991 1250.29 38.4616V29.9091H1252.66V38.2635C1252.66 38.8089 1252.78 39.2947 1253.02 39.7209C1253.26 40.147 1253.6 40.4815 1254.04 40.7244C1254.48 40.9631 1255 41.0824 1255.6 41.0824C1256.2 41.0824 1256.72 40.9631 1257.16 40.7244C1257.61 40.4815 1257.95 40.147 1258.19 39.7209C1258.42 39.2947 1258.54 38.8089 1258.54 38.2635V29.9091ZM1265.86 29.9091V43H1263.49V29.9091H1265.86ZM1272.9 43V29.9091H1277.91C1278.85 29.9091 1279.64 30.0582 1280.27 30.3565C1280.9 30.6506 1281.37 31.0533 1281.68 31.5646C1281.99 32.076 1282.15 32.6555 1282.15 33.3033C1282.15 33.8359 1282.05 34.2919 1281.85 34.6712C1281.64 35.0462 1281.37 35.3509 1281.02 35.5852C1280.68 35.8196 1280.29 35.9879 1279.86 36.0902V36.218C1280.33 36.2436 1280.77 36.3864 1281.2 36.6463C1281.63 36.902 1281.98 37.2642 1282.25 37.733C1282.53 38.2017 1282.66 38.7685 1282.66 39.4332C1282.66 40.1108 1282.5 40.7202 1282.17 41.2614C1281.84 41.7983 1281.35 42.2223 1280.69 42.5334C1280.03 42.8445 1279.2 43 1278.2 43H1272.9ZM1275.27 41.0185H1277.82C1278.68 41.0185 1279.3 40.8544 1279.68 40.5263C1280.06 40.1939 1280.25 39.7678 1280.25 39.2479C1280.25 38.8601 1280.16 38.5107 1279.97 38.1996C1279.77 37.8842 1279.5 37.6371 1279.15 37.4581C1278.79 37.2749 1278.37 37.1832 1277.88 37.1832H1275.27V41.0185ZM1275.27 35.4766H1277.61C1278.02 35.4766 1278.39 35.402 1278.72 35.2528C1279.05 35.0994 1279.31 34.8842 1279.49 34.6072C1279.69 34.326 1279.78 33.9936 1279.78 33.6101C1279.78 33.103 1279.6 32.6854 1279.24 32.3572C1278.89 32.0291 1278.36 31.8651 1277.67 31.8651H1275.27V35.4766ZM1296.42 36.4545C1296.42 37.8651 1296.16 39.0732 1295.63 40.0788C1295.11 41.0803 1294.39 41.8473 1293.48 42.38C1292.58 42.9126 1291.56 43.179 1290.41 43.179C1289.26 43.179 1288.24 42.9126 1287.33 42.38C1286.42 41.843 1285.71 41.0739 1285.18 40.0724C1284.66 39.0668 1284.39 37.8608 1284.39 36.4545C1284.39 35.044 1284.66 33.8381 1285.18 32.8366C1285.71 31.831 1286.42 31.0618 1287.33 30.5291C1288.24 29.9964 1289.26 29.7301 1290.41 29.7301C1291.56 29.7301 1292.58 29.9964 1293.48 30.5291C1294.39 31.0618 1295.11 31.831 1295.63 32.8366C1296.16 33.8381 1296.42 35.044 1296.42 36.4545ZM1294.04 36.4545C1294.04 35.4616 1293.88 34.6243 1293.57 33.9425C1293.27 33.2564 1292.84 32.7386 1292.29 32.3892C1291.75 32.0355 1291.12 31.8587 1290.41 31.8587C1289.7 31.8587 1289.07 32.0355 1288.52 32.3892C1287.98 32.7386 1287.55 33.2564 1287.24 33.9425C1286.93 34.6243 1286.78 35.4616 1286.78 36.4545C1286.78 37.4474 1286.93 38.2869 1287.24 38.973C1287.55 39.6548 1287.98 40.1726 1288.52 40.5263C1289.07 40.8757 1289.7 41.0504 1290.41 41.0504C1291.12 41.0504 1291.75 40.8757 1292.29 40.5263C1292.84 40.1726 1293.27 39.6548 1293.57 38.973C1293.88 38.2869 1294.04 37.4474 1294.04 36.4545ZM1310.36 36.4545C1310.36 37.8651 1310.1 39.0732 1309.57 40.0788C1309.05 41.0803 1308.33 41.8473 1307.42 42.38C1306.52 42.9126 1305.5 43.179 1304.35 43.179C1303.2 43.179 1302.18 42.9126 1301.27 42.38C1300.36 41.843 1299.65 41.0739 1299.12 40.0724C1298.6 39.0668 1298.33 37.8608 1298.33 36.4545C1298.33 35.044 1298.6 33.8381 1299.12 32.8366C1299.65 31.831 1300.36 31.0618 1301.27 30.5291C1302.18 29.9964 1303.2 29.7301 1304.35 29.7301C1305.5 29.7301 1306.52 29.9964 1307.42 30.5291C1308.33 31.0618 1309.05 31.831 1309.57 32.8366C1310.1 33.8381 1310.36 35.044 1310.36 36.4545ZM1307.98 36.4545C1307.98 35.4616 1307.82 34.6243 1307.51 33.9425C1307.21 33.2564 1306.78 32.7386 1306.23 32.3892C1305.69 32.0355 1305.06 31.8587 1304.35 31.8587C1303.64 31.8587 1303.01 32.0355 1302.46 32.3892C1301.92 32.7386 1301.49 33.2564 1301.18 33.9425C1300.87 34.6243 1300.72 35.4616 1300.72 36.4545C1300.72 37.4474 1300.87 38.2869 1301.18 38.973C1301.49 39.6548 1301.92 40.1726 1302.46 40.5263C1303.01 40.8757 1303.64 41.0504 1304.35 41.0504C1305.06 41.0504 1305.69 40.8757 1306.23 40.5263C1306.78 40.1726 1307.21 39.6548 1307.51 38.973C1307.82 38.2869 1307.98 37.4474 1307.98 36.4545ZM1319.72 33.5078C1319.66 32.9496 1319.41 32.5149 1318.97 32.2038C1318.53 31.8928 1317.96 31.7372 1317.25 31.7372C1316.76 31.7372 1316.33 31.8118 1315.98 31.9609C1315.63 32.1101 1315.36 32.3125 1315.17 32.5682C1314.98 32.8239 1314.89 33.1158 1314.88 33.4439C1314.88 33.7166 1314.94 33.9531 1315.07 34.1534C1315.19 34.3537 1315.37 34.5241 1315.58 34.6648C1315.8 34.8011 1316.04 34.9162 1316.31 35.0099C1316.57 35.1037 1316.84 35.1825 1317.11 35.2464L1318.33 35.5533C1318.83 35.6683 1319.3 35.8239 1319.76 36.0199C1320.22 36.2159 1320.63 36.4631 1320.99 36.7614C1321.36 37.0597 1321.65 37.4197 1321.86 37.8416C1322.07 38.2635 1322.18 38.7578 1322.18 39.3246C1322.18 40.0916 1321.98 40.767 1321.59 41.3509C1321.2 41.9304 1320.63 42.3842 1319.89 42.7124C1319.16 43.0362 1318.26 43.1982 1317.21 43.1982C1316.2 43.1982 1315.31 43.0405 1314.56 42.7251C1313.82 42.4098 1313.23 41.9496 1312.81 41.3445C1312.39 40.7393 1312.17 40.0021 1312.13 39.1328H1314.47C1314.5 39.5888 1314.64 39.968 1314.89 40.2706C1315.13 40.5732 1315.46 40.799 1315.85 40.9482C1316.25 41.0973 1316.7 41.1719 1317.2 41.1719C1317.71 41.1719 1318.16 41.0952 1318.55 40.9418C1318.94 40.7841 1319.25 40.5668 1319.47 40.2898C1319.69 40.0085 1319.81 39.6804 1319.81 39.3054C1319.81 38.9645 1319.71 38.6832 1319.51 38.4616C1319.31 38.2358 1319.04 38.0483 1318.68 37.8991C1318.34 37.7457 1317.93 37.6094 1317.46 37.4901L1315.97 37.1065C1314.89 36.8295 1314.04 36.4098 1313.41 35.8473C1312.79 35.2805 1312.48 34.5284 1312.48 33.5909C1312.48 32.8196 1312.69 32.1442 1313.1 31.5646C1313.53 30.9851 1314.1 30.5355 1314.82 30.2159C1315.55 29.892 1316.37 29.7301 1317.28 29.7301C1318.21 29.7301 1319.03 29.892 1319.73 30.2159C1320.43 30.5355 1320.98 30.9808 1321.38 31.5518C1321.78 32.1186 1321.99 32.7706 1322 33.5078H1319.72ZM1323.72 31.897V29.9091H1334.16V31.897H1330.12V43H1327.77V31.897H1323.72Z" fill="white"/>
<circle cx="1360.5" cy="36.5" r="9.5" fill="#17161C"/>
<path fill-rule="evenodd" clip-rule="evenodd" d="M1359.98 31.1371H1361.13C1361.27 33.6861 1363.31 35.7277 1365.86 35.8716V37.0171C1363.31 37.161 1361.27 39.2027 1361.13 41.7518H1359.98C1359.84 39.2027 1357.8 37.161 1355.25 37.0171V35.8716C1357.8 35.7277 1359.84 33.6861 1359.98 31.1371Z" fill="#EE56BB"/>
<path d="M1395.54 29.9091H1397.91V38.4616C1397.91 39.3991 1397.69 40.2237 1397.25 40.9354C1396.81 41.647 1396.19 42.2031 1395.4 42.6037C1394.6 43 1393.67 43.1982 1392.6 43.1982C1391.53 43.1982 1390.6 43 1389.8 42.6037C1389.01 42.2031 1388.39 41.647 1387.95 40.9354C1387.51 40.2237 1387.29 39.3991 1387.29 38.4616V29.9091H1389.66V38.2635C1389.66 38.8089 1389.78 39.2947 1390.02 39.7209C1390.26 40.147 1390.6 40.4815 1391.04 40.7244C1391.48 40.9631 1392 41.0824 1392.6 41.0824C1393.2 41.0824 1393.72 40.9631 1394.16 40.7244C1394.61 40.4815 1394.95 40.147 1395.19 39.7209C1395.42 39.2947 1395.54 38.8089 1395.54 38.2635V29.9091ZM1402.86 29.9091V43H1400.49V29.9091H1402.86ZM1409.9 43V29.9091H1414.91C1415.85 29.9091 1416.64 30.0582 1417.27 30.3565C1417.9 30.6506 1418.37 31.0533 1418.68 31.5646C1418.99 32.076 1419.15 32.6555 1419.15 33.3033C1419.15 33.8359 1419.05 34.2919 1418.85 34.6712C1418.64 35.0462 1418.37 35.3509 1418.02 35.5852C1417.68 35.8196 1417.29 35.9879 1416.86 36.0902V36.218C1417.33 36.2436 1417.77 36.3864 1418.2 36.6463C1418.63 36.902 1418.98 37.2642 1419.25 37.733C1419.53 38.2017 1419.66 38.7685 1419.66 39.4332C1419.66 40.1108 1419.5 40.7202 1419.17 41.2614C1418.84 41.7983 1418.35 42.2223 1417.69 42.5334C1417.03 42.8445 1416.2 43 1415.2 43H1409.9ZM1412.27 41.0185H1414.82C1415.68 41.0185 1416.3 40.8544 1416.68 40.5263C1417.06 40.1939 1417.25 39.7678 1417.25 39.2479C1417.25 38.8601 1417.16 38.5107 1416.97 38.1996C1416.77 37.8842 1416.5 37.6371 1416.15 37.4581C1415.79 37.2749 1415.37 37.1832 1414.88 37.1832H1412.27V41.0185ZM1412.27 35.4766H1414.61C1415.02 35.4766 1415.39 35.402 1415.72 35.2528C1416.05 35.0994 1416.31 34.8842 1416.49 34.6072C1416.69 34.326 1416.78 33.9936 1416.78 33.6101C1416.78 33.103 1416.6 32.6854 1416.24 32.3572C1415.89 32.0291 1415.36 31.8651 1414.67 31.8651H1412.27V35.4766ZM1433.42 36.4545C1433.42 37.8651 1433.16 39.0732 1432.63 40.0788C1432.11 41.0803 1431.39 41.8473 1430.48 42.38C1429.58 42.9126 1428.56 43.179 1427.41 43.179C1426.26 43.179 1425.24 42.9126 1424.33 42.38C1423.42 41.843 1422.71 41.0739 1422.18 40.0724C1421.66 39.0668 1421.39 37.8608 1421.39 36.4545C1421.39 35.044 1421.66 33.8381 1422.18 32.8366C1422.71 31.831 1423.42 31.0618 1424.33 30.5291C1425.24 29.9964 1426.26 29.7301 1427.41 29.7301C1428.56 29.7301 1429.58 29.9964 1430.48 30.5291C1431.39 31.0618 1432.11 31.831 1432.63 32.8366C1433.16 33.8381 1433.42 35.044 1433.42 36.4545ZM1431.04 36.4545C1431.04 35.4616 1430.88 34.6243 1430.57 33.9425C1430.27 33.2564 1429.84 32.7386 1429.29 32.3892C1428.75 32.0355 1428.12 31.8587 1427.41 31.8587C1426.7 31.8587 1426.07 32.0355 1425.52 32.3892C1424.98 32.7386 1424.55 33.2564 1424.24 33.9425C1423.93 34.6243 1423.78 35.4616 1423.78 36.4545C1423.78 37.4474 1423.93 38.2869 1424.24 38.973C1424.55 39.6548 1424.98 40.1726 1425.52 40.5263C1426.07 40.8757 1426.7 41.0504 1427.41 41.0504C1428.12 41.0504 1428.75 40.8757 1429.29 40.5263C1429.84 40.1726 1430.27 39.6548 1430.57 38.973C1430.88 38.2869 1431.04 37.4474 1431.04 36.4545ZM1447.36 36.4545C1447.36 37.8651 1447.1 39.0732 1446.57 40.0788C1446.05 41.0803 1445.33 41.8473 1444.42 42.38C1443.52 42.9126 1442.5 43.179 1441.35 43.179C1440.2 43.179 1439.18 42.9126 1438.27 42.38C1437.36 41.843 1436.65 41.0739 1436.12 40.0724C1435.6 39.0668 1435.33 37.8608 1435.33 36.4545C1435.33 35.044 1435.6 33.8381 1436.12 32.8366C1436.65 31.831 1437.36 31.0618 1438.27 30.5291C1439.18 29.9964 1440.2 29.7301 1441.35 29.7301C1442.5 29.7301 1443.52 29.9964 1444.42 30.5291C1445.33 31.0618 1446.05 31.831 1446.57 32.8366C1447.1 33.8381 1447.36 35.044 1447.36 36.4545ZM1444.98 36.4545C1444.98 35.4616 1444.82 34.6243 1444.51 33.9425C1444.21 33.2564 1443.78 32.7386 1443.23 32.3892C1442.69 32.0355 1442.06 31.8587 1441.35 31.8587C1440.64 31.8587 1440.01 32.0355 1439.46 32.3892C1438.92 32.7386 1438.49 33.2564 1438.18 33.9425C1437.87 34.6243 1437.72 35.4616 1437.72 36.4545C1437.72 37.4474 1437.87 38.2869 1438.18 38.973C1438.49 39.6548 1438.92 40.1726 1439.46 40.5263C1440.01 40.8757 1440.64 41.0504 1441.35 41.0504C1442.06 41.0504 1442.69 40.8757 1443.23 40.5263C1443.78 40.1726 1444.21 39.6548 1444.51 38.973C1444.82 38.2869 1444.98 37.4474 1444.98 36.4545ZM1456.72 33.5078C1456.66 32.9496 1456.41 32.5149 1455.97 32.2038C1455.53 31.8928 1454.96 31.7372 1454.25 31.7372C1453.76 31.7372 1453.33 31.8118 1452.98 31.9609C1452.63 32.1101 1452.36 32.3125 1452.17 32.5682C1451.98 32.8239 1451.89 33.1158 1451.88 33.4439C1451.88 33.7166 1451.94 33.9531 1452.07 34.1534C1452.19 34.3537 1452.37 34.5241 1452.58 34.6648C1452.8 34.8011 1453.04 34.9162 1453.31 35.0099C1453.57 35.1037 1453.84 35.1825 1454.11 35.2464L1455.33 35.5533C1455.83 35.6683 1456.3 35.8239 1456.76 36.0199C1457.22 36.2159 1457.63 36.4631 1457.99 36.7614C1458.36 37.0597 1458.65 37.4197 1458.86 37.8416C1459.07 38.2635 1459.18 38.7578 1459.18 39.3246C1459.18 40.0916 1458.98 40.767 1458.59 41.3509C1458.2 41.9304 1457.63 42.3842 1456.89 42.7124C1456.16 43.0362 1455.26 43.1982 1454.21 43.1982C1453.2 43.1982 1452.31 43.0405 1451.56 42.7251C1450.82 42.4098 1450.23 41.9496 1449.81 41.3445C1449.39 40.7393 1449.17 40.0021 1449.13 39.1328H1451.47C1451.5 39.5888 1451.64 39.968 1451.89 40.2706C1452.13 40.5732 1452.46 40.799 1452.85 40.9482C1453.25 41.0973 1453.7 41.1719 1454.2 41.1719C1454.71 41.1719 1455.16 41.0952 1455.55 40.9418C1455.94 40.7841 1456.25 40.5668 1456.47 40.2898C1456.69 40.0085 1456.81 39.6804 1456.81 39.3054C1456.81 38.9645 1456.71 38.6832 1456.51 38.4616C1456.31 38.2358 1456.04 38.0483 1455.68 37.8991C1455.34 37.7457 1454.93 37.6094 1454.46 37.4901L1452.97 37.1065C1451.89 36.8295 1451.04 36.4098 1450.41 35.8473C1449.79 35.2805 1449.48 34.5284 1449.48 33.5909C1449.48 32.8196 1449.69 32.1442 1450.1 31.5646C1450.53 30.9851 1451.1 30.5355 1451.82 30.2159C1452.55 29.892 1453.37 29.7301 1454.28 29.7301C1455.21 29.7301 1456.03 29.892 1456.73 30.2159C1457.43 30.5355 1457.98 30.9808 1458.38 31.5518C1458.78 32.1186 1458.99 32.7706 1459 33.5078H1456.72ZM1460.72 31.897V29.9091H1471.16V31.897H1467.12V43H1464.77V31.897H1460.72Z" fill="white"/>
<circle cx="1497.5" cy="36.5" r="9.5" fill="#17161C"/>
<path fill-rule="evenodd" clip-rule="evenodd" d="M1496.98 31.1371H1498.13C1498.27 33.6861 1500.31 35.7277 1502.86 35.8716V37.0171C1500.31 37.161 1498.27 39.2027 1498.13 41.7518H1496.98C1496.84 39.2027 1494.8 37.161 1492.25 37.0171V35.8716C1494.8 35.7277 1496.84 33.6861 1496.98 31.1371Z" fill="#EE56BB"/>
<path d="M1532.54 29.9091H1534.91V38.4616C1534.91 39.3991 1534.69 40.2237 1534.25 40.9354C1533.81 41.647 1533.19 42.2031 1532.4 42.6037C1531.6 43 1530.67 43.1982 1529.6 43.1982C1528.53 43.1982 1527.6 43 1526.8 42.6037C1526.01 42.2031 1525.39 41.647 1524.95 40.9354C1524.51 40.2237 1524.29 39.3991 1524.29 38.4616V29.9091H1526.66V38.2635C1526.66 38.8089 1526.78 39.2947 1527.02 39.7209C1527.26 40.147 1527.6 40.4815 1528.04 40.7244C1528.48 40.9631 1529 41.0824 1529.6 41.0824C1530.2 41.0824 1530.72 40.9631 1531.16 40.7244C1531.61 40.4815 1531.95 40.147 1532.19 39.7209C1532.42 39.2947 1532.54 38.8089 1532.54 38.2635V29.9091ZM1539.86 29.9091V43H1537.49V29.9091H1539.86ZM1546.9 43V29.9091H1551.91C1552.85 29.9091 1553.64 30.0582 1554.27 30.3565C1554.9 30.6506 1555.37 31.0533 1555.68 31.5646C1555.99 32.076 1556.15 32.6555 1556.15 33.3033C1556.15 33.8359 1556.05 34.2919 1555.85 34.6712C1555.64 35.0462 1555.37 35.3509 1555.02 35.5852C1554.68 35.8196 1554.29 35.9879 1553.86 36.0902V36.218C1554.33 36.2436 1554.77 36.3864 1555.2 36.6463C1555.63 36.902 1555.98 37.2642 1556.25 37.733C1556.53 38.2017 1556.66 38.7685 1556.66 39.4332C1556.66 40.1108 1556.5 40.7202 1556.17 41.2614C1555.84 41.7983 1555.35 42.2223 1554.69 42.5334C1554.03 42.8445 1553.2 43 1552.2 43H1546.9ZM1549.27 41.0185H1551.82C1552.68 41.0185 1553.3 40.8544 1553.68 40.5263C1554.06 40.1939 1554.25 39.7678 1554.25 39.2479C1554.25 38.8601 1554.16 38.5107 1553.97 38.1996C1553.77 37.8842 1553.5 37.6371 1553.15 37.4581C1552.79 37.2749 1552.37 37.1832 1551.88 37.1832H1549.27V41.0185ZM1549.27 35.4766H1551.61C1552.02 35.4766 1552.39 35.402 1552.72 35.2528C1553.05 35.0994 1553.31 34.8842 1553.49 34.6072C1553.69 34.326 1553.78 33.9936 1553.78 33.6101C1553.78 33.103 1553.6 32.6854 1553.24 32.3572C1552.89 32.0291 1552.36 31.8651 1551.67 31.8651H1549.27V35.4766ZM1570.42 36.4545C1570.42 37.8651 1570.16 39.0732 1569.63 40.0788C1569.11 41.0803 1568.39 41.8473 1567.48 42.38C1566.58 42.9126 1565.56 43.179 1564.41 43.179C1563.26 43.179 1562.24 42.9126 1561.33 42.38C1560.42 41.843 1559.71 41.0739 1559.18 40.0724C1558.66 39.0668 1558.39 37.8608 1558.39 36.4545C1558.39 35.044 1558.66 33.8381 1559.18 32.8366C1559.71 31.831 1560.42 31.0618 1561.33 30.5291C1562.24 29.9964 1563.26 29.7301 1564.41 29.7301C1565.56 29.7301 1566.58 29.9964 1567.48 30.5291C1568.39 31.0618 1569.11 31.831 1569.63 32.8366C1570.16 33.8381 1570.42 35.044 1570.42 36.4545ZM1568.04 36.4545C1568.04 35.4616 1567.88 34.6243 1567.57 33.9425C1567.27 33.2564 1566.84 32.7386 1566.29 32.3892C1565.75 32.0355 1565.12 31.8587 1564.41 31.8587C1563.7 31.8587 1563.07 32.0355 1562.52 32.3892C1561.98 32.7386 1561.55 33.2564 1561.24 33.9425C1560.93 34.6243 1560.78 35.4616 1560.78 36.4545C1560.78 37.4474 1560.93 38.2869 1561.24 38.973C1561.55 39.6548 1561.98 40.1726 1562.52 40.5263C1563.07 40.8757 1563.7 41.0504 1564.41 41.0504C1565.12 41.0504 1565.75 40.8757 1566.29 40.5263C1566.84 40.1726 1567.27 39.6548 1567.57 38.973C1567.88 38.2869 1568.04 37.4474 1568.04 36.4545ZM1584.36 36.4545C1584.36 37.8651 1584.1 39.0732 1583.57 40.0788C1583.05 41.0803 1582.33 41.8473 1581.42 42.38C1580.52 42.9126 1579.5 43.179 1578.35 43.179C1577.2 43.179 1576.18 42.9126 1575.27 42.38C1574.36 41.843 1573.65 41.0739 1573.12 40.0724C1572.6 39.0668 1572.33 37.8608 1572.33 36.4545C1572.33 35.044 1572.6 33.8381 1573.12 32.8366C1573.65 31.831 1574.36 31.0618 1575.27 30.5291C1576.18 29.9964 1577.2 29.7301 1578.35 29.7301C1579.5 29.7301 1580.52 29.9964 1581.42 30.5291C1582.33 31.0618 1583.05 31.831 1583.57 32.8366C1584.1 33.8381 1584.36 35.044 1584.36 36.4545ZM1581.98 36.4545C1581.98 35.4616 1581.82 34.6243 1581.51 33.9425C1581.21 33.2564 1580.78 32.7386 1580.23 32.3892C1579.69 32.0355 1579.06 31.8587 1578.35 31.8587C1577.64 31.8587 1577.01 32.0355 1576.46 32.3892C1575.92 32.7386 1575.49 33.2564 1575.18 33.9425C1574.87 34.6243 1574.72 35.4616 1574.72 36.4545C1574.72 37.4474 1574.87 38.2869 1575.18 38.973C1575.49 39.6548 1575.92 40.1726 1576.46 40.5263C1577.01 40.8757 1577.64 41.0504 1578.35 41.0504C1579.06 41.0504 1579.69 40.8757 1580.23 40.5263C1580.78 40.1726 1581.21 39.6548 1581.51 38.973C1581.82 38.2869 1581.98 37.4474 1581.98 36.4545ZM1593.72 33.5078C1593.66 32.9496 1593.41 32.5149 1592.97 32.2038C1592.53 31.8928 1591.96 31.7372 1591.25 31.7372C1590.76 31.7372 1590.33 31.8118 1589.98 31.9609C1589.63 32.1101 1589.36 32.3125 1589.17 32.5682C1588.98 32.8239 1588.89 33.1158 1588.88 33.4439C1588.88 33.7166 1588.94 33.9531 1589.07 34.1534C1589.19 34.3537 1589.37 34.5241 1589.58 34.6648C1589.8 34.8011 1590.04 34.9162 1590.31 35.0099C1590.57 35.1037 1590.84 35.1825 1591.11 35.2464L1592.33 35.5533C1592.83 35.6683 1593.3 35.8239 1593.76 36.0199C1594.22 36.2159 1594.63 36.4631 1594.99 36.7614C1595.36 37.0597 1595.65 37.4197 1595.86 37.8416C1596.07 38.2635 1596.18 38.7578 1596.18 39.3246C1596.18 40.0916 1595.98 40.767 1595.59 41.3509C1595.2 41.9304 1594.63 42.3842 1593.89 42.7124C1593.16 43.0362 1592.26 43.1982 1591.21 43.1982C1590.2 43.1982 1589.31 43.0405 1588.56 42.7251C1587.82 42.4098 1587.23 41.9496 1586.81 41.3445C1586.39 40.7393 1586.17 40.0021 1586.13 39.1328H1588.47C1588.5 39.5888 1588.64 39.968 1588.89 40.2706C1589.13 40.5732 1589.46 40.799 1589.85 40.9482C1590.25 41.0973 1590.7 41.1719 1591.2 41.1719C1591.71 41.1719 1592.16 41.0952 1592.55 40.9418C1592.94 40.7841 1593.25 40.5668 1593.47 40.2898C1593.69 40.0085 1593.81 39.6804 1593.81 39.3054C1593.81 38.9645 1593.71 38.6832 1593.51 38.4616C1593.31 38.2358 1593.04 38.0483 1592.68 37.8991C1592.34 37.7457 1591.93 37.6094 1591.46 37.4901L1589.97 37.1065C1588.89 36.8295 1588.04 36.4098 1587.41 35.8473C1586.79 35.2805 1586.48 34.5284 1586.48 33.5909C1586.48 32.8196 1586.69 32.1442 1587.1 31.5646C1587.53 30.9851 1588.1 30.5355 1588.82 30.2159C1589.55 29.892 1590.37 29.7301 1591.28 29.7301C1592.21 29.7301 1593.03 29.892 1593.73 30.2159C1594.43 30.5355 1594.98 30.9808 1595.38 31.5518C1595.78 32.1186 1595.99 32.7706 1596 33.5078H1593.72ZM1597.72 31.897V29.9091H1608.16V31.897H1604.12V43H1601.77V31.897H1597.72Z" fill="white"/>
<circle cx="1634.5" cy="36.5" r="9.5" fill="#17161C"/>
<path fill-rule="evenodd" clip-rule="evenodd" d="M1633.98 31.1371H1635.13C1635.27 33.6861 1637.31 35.7277 1639.86 35.8716V37.0171C1637.31 37.161 1635.27 39.2027 1635.13 41.7518H1633.98C1633.84 39.2027 1631.8 37.161 1629.25 37.0171V35.8716C1631.8 35.7277 1633.84 33.6861 1633.98 31.1371Z" fill="#EE56BB"/>
<path d="M1669.54 29.9091H1671.91V38.4616C1671.91 39.3991 1671.69 40.2237 1671.25 40.9354C1670.81 41.647 1670.19 42.2031 1669.4 42.6037C1668.6 43 1667.67 43.1982 1666.6 43.1982C1665.53 43.1982 1664.6 43 1663.8 42.6037C1663.01 42.2031 1662.39 41.647 1661.95 40.9354C1661.51 40.2237 1661.29 39.3991 1661.29 38.4616V29.9091H1663.66V38.2635C1663.66 38.8089 1663.78 39.2947 1664.02 39.7209C1664.26 40.147 1664.6 40.4815 1665.04 40.7244C1665.48 40.9631 1666 41.0824 1666.6 41.0824C1667.2 41.0824 1667.72 40.9631 1668.16 40.7244C1668.61 40.4815 1668.95 40.147 1669.19 39.7209C1669.42 39.2947 1669.54 38.8089 1669.54 38.2635V29.9091ZM1676.86 29.9091V43H1674.49V29.9091H1676.86ZM1683.9 43V29.9091H1688.91C1689.85 29.9091 1690.64 30.0582 1691.27 30.3565C1691.9 30.6506 1692.37 31.0533 1692.68 31.5646C1692.99 32.076 1693.15 32.6555 1693.15 33.3033C1693.15 33.8359 1693.05 34.2919 1692.85 34.6712C1692.64 35.0462 1692.37 35.3509 1692.02 35.5852C1691.68 35.8196 1691.29 35.9879 1690.86 36.0902V36.218C1691.33 36.2436 1691.77 36.3864 1692.2 36.6463C1692.63 36.902 1692.98 37.2642 1693.25 37.733C1693.53 38.2017 1693.66 38.7685 1693.66 39.4332C1693.66 40.1108 1693.5 40.7202 1693.17 41.2614C1692.84 41.7983 1692.35 42.2223 1691.69 42.5334C1691.03 42.8445 1690.2 43 1689.2 43H1683.9ZM1686.27 41.0185H1688.82C1689.68 41.0185 1690.3 40.8544 1690.68 40.5263C1691.06 40.1939 1691.25 39.7678 1691.25 39.2479C1691.25 38.8601 1691.16 38.5107 1690.97 38.1996C1690.77 37.8842 1690.5 37.6371 1690.15 37.4581C1689.79 37.2749 1689.37 37.1832 1688.88 37.1832H1686.27V41.0185ZM1686.27 35.4766H1688.61C1689.02 35.4766 1689.39 35.402 1689.72 35.2528C1690.05 35.0994 1690.31 34.8842 1690.49 34.6072C1690.69 34.326 1690.78 33.9936 1690.78 33.6101C1690.78 33.103 1690.6 32.6854 1690.24 32.3572C1689.89 32.0291 1689.36 31.8651 1688.67 31.8651H1686.27V35.4766ZM1707.42 36.4545C1707.42 37.8651 1707.16 39.0732 1706.63 40.0788C1706.11 41.0803 1705.39 41.8473 1704.48 42.38C1703.58 42.9126 1702.56 43.179 1701.41 43.179C1700.26 43.179 1699.24 42.9126 1698.33 42.38C1697.42 41.843 1696.71 41.0739 1696.18 40.0724C1695.66 39.0668 1695.39 37.8608 1695.39 36.4545C1695.39 35.044 1695.66 33.8381 1696.18 32.8366C1696.71 31.831 1697.42 31.0618 1698.33 30.5291C1699.24 29.9964 1700.26 29.7301 1701.41 29.7301C1702.56 29.7301 1703.58 29.9964 1704.48 30.5291C1705.39 31.0618 1706.11 31.831 1706.63 32.8366C1707.16 33.8381 1707.42 35.044 1707.42 36.4545ZM1705.04 36.4545C1705.04 35.4616 1704.88 34.6243 1704.57 33.9425C1704.27 33.2564 1703.84 32.7386 1703.29 32.3892C1702.75 32.0355 1702.12 31.8587 1701.41 31.8587C1700.7 31.8587 1700.07 32.0355 1699.52 32.3892C1698.98 32.7386 1698.55 33.2564 1698.24 33.9425C1697.93 34.6243 1697.78 35.4616 1697.78 36.4545C1697.78 37.4474 1697.93 38.2869 1698.24 38.973C1698.55 39.6548 1698.98 40.1726 1699.52 40.5263C1700.07 40.8757 1700.7 41.0504 1701.41 41.0504C1702.12 41.0504 1702.75 40.8757 1703.29 40.5263C1703.84 40.1726 1704.27 39.6548 1704.57 38.973C1704.88 38.2869 1705.04 37.4474 1705.04 36.4545ZM1721.36 36.4545C1721.36 37.8651 1721.1 39.0732 1720.57 40.0788C1720.05 41.0803 1719.33 41.8473 1718.42 42.38C1717.52 42.9126 1716.5 43.179 1715.35 43.179C1714.2 43.179 1713.18 42.9126 1712.27 42.38C1711.36 41.843 1710.65 41.0739 1710.12 40.0724C1709.6 39.0668 1709.33 37.8608 1709.33 36.4545C1709.33 35.044 1709.6 33.8381 1710.12 32.8366C1710.65 31.831 1711.36 31.0618 1712.27 30.5291C1713.18 29.9964 1714.2 29.7301 1715.35 29.7301C1716.5 29.7301 1717.52 29.9964 1718.42 30.5291C1719.33 31.0618 1720.05 31.831 1720.57 32.8366C1721.1 33.8381 1721.36 35.044 1721.36 36.4545ZM1718.98 36.4545C1718.98 35.4616 1718.82 34.6243 1718.51 33.9425C1718.21 33.2564 1717.78 32.7386 1717.23 32.3892C1716.69 32.0355 1716.06 31.8587 1715.35 31.8587C1714.64 31.8587 1714.01 32.0355 1713.46 32.3892C1712.92 32.7386 1712.49 33.2564 1712.18 33.9425C1711.87 34.6243 1711.72 35.4616 1711.72 36.4545C1711.72 37.4474 1711.87 38.2869 1712.18 38.973C1712.49 39.6548 1712.92 40.1726 1713.46 40.5263C1714.01 40.8757 1714.64 41.0504 1715.35 41.0504C1716.06 41.0504 1716.69 40.8757 1717.23 40.5263C1717.78 40.1726 1718.21 39.6548 1718.51 38.973C1718.82 38.2869 1718.98 37.4474 1718.98 36.4545ZM1730.72 33.5078C1730.66 32.9496 1730.41 32.5149 1729.97 32.2038C1729.53 31.8928 1728.96 31.7372 1728.25 31.7372C1727.76 31.7372 1727.33 31.8118 1726.98 31.9609C1726.63 32.1101 1726.36 32.3125 1726.17 32.5682C1725.98 32.8239 1725.89 33.1158 1725.88 33.4439C1725.88 33.7166 1725.94 33.9531 1726.07 34.1534C1726.19 34.3537 1726.37 34.5241 1726.58 34.6648C1726.8 34.8011 1727.04 34.9162 1727.31 35.0099C1727.57 35.1037 1727.84 35.1825 1728.11 35.2464L1729.33 35.5533C1729.83 35.6683 1730.3 35.8239 1730.76 36.0199C1731.22 36.2159 1731.63 36.4631 1731.99 36.7614C1732.36 37.0597 1732.65 37.4197 1732.86 37.8416C1733.07 38.2635 1733.18 38.7578 1733.18 39.3246C1733.18 40.0916 1732.98 40.767 1732.59 41.3509C1732.2 41.9304 1731.63 42.3842 1730.89 42.7124C1730.16 43.0362 1729.26 43.1982 1728.21 43.1982C1727.2 43.1982 1726.31 43.0405 1725.56 42.7251C1724.82 42.4098 1724.23 41.9496 1723.81 41.3445C1723.39 40.7393 1723.17 40.0021 1723.13 39.1328H1725.47C1725.5 39.5888 1725.64 39.968 1725.89 40.2706C1726.13 40.5732 1726.46 40.799 1726.85 40.9482C1727.25 41.0973 1727.7 41.1719 1728.2 41.1719C1728.71 41.1719 1729.16 41.0952 1729.55 40.9418C1729.94 40.7841 1730.25 40.5668 1730.47 40.2898C1730.69 40.0085 1730.81 39.6804 1730.81 39.3054C1730.81 38.9645 1730.71 38.6832 1730.51 38.4616C1730.31 38.2358 1730.04 38.0483 1729.68 37.8991C1729.34 37.7457 1728.93 37.6094 1728.46 37.4901L1726.97 37.1065C1725.89 36.8295 1725.04 36.4098 1724.41 35.8473C1723.79 35.2805 1723.48 34.5284 1723.48 33.5909C1723.48 32.8196 1723.69 32.1442 1724.1 31.5646C1724.53 30.9851 1725.1 30.5355 1725.82 30.2159C1726.55 29.892 1727.37 29.7301 1728.28 29.7301C1729.21 29.7301 1730.03 29.892 1730.73 30.2159C1731.43 30.5355 1731.98 30.9808 1732.38 31.5518C1732.78 32.1186 1732.99 32.7706 1733 33.5078H1730.72ZM1734.72 31.897V29.9091H1745.16V31.897H1741.12V43H1738.77V31.897H1734.72Z" fill="white"/>
<circle cx="1771.5" cy="36.5" r="9.5" fill="#17161C"/>
<path fill-rule="evenodd" clip-rule="evenodd" d="M1770.98 31.1371H1772.13C1772.27 33.6861 1774.31 35.7277 1776.86 35.8716V37.0171C1774.31 37.161 1772.27 39.2027 1772.13 41.7518H1770.98C1770.84 39.2027 1768.8 37.161 1766.25 37.0171V35.8716C1768.8 35.7277 1770.84 33.6861 1770.98 31.1371Z" fill="#EE56BB"/>
<path d="M1806.54 29.9091H1808.91V38.4616C1808.91 39.3991 1808.69 40.2237 1808.25 40.9354C1807.81 41.647 1807.19 42.2031 1806.4 42.6037C1805.6 43 1804.67 43.1982 1803.6 43.1982C1802.53 43.1982 1801.6 43 1800.8 42.6037C1800.01 42.2031 1799.39 41.647 1798.95 40.9354C1798.51 40.2237 1798.29 39.3991 1798.29 38.4616V29.9091H1800.66V38.2635C1800.66 38.8089 1800.78 39.2947 1801.02 39.7209C1801.26 40.147 1801.6 40.4815 1802.04 40.7244C1802.48 40.9631 1803 41.0824 1803.6 41.0824C1804.2 41.0824 1804.72 40.9631 1805.16 40.7244C1805.61 40.4815 1805.95 40.147 1806.19 39.7209C1806.42 39.2947 1806.54 38.8089 1806.54 38.2635V29.9091ZM1813.86 29.9091V43H1811.49V29.9091H1813.86ZM1820.9 43V29.9091H1825.91C1826.85 29.9091 1827.64 30.0582 1828.27 30.3565C1828.9 30.6506 1829.37 31.0533 1829.68 31.5646C1829.99 32.076 1830.15 32.6555 1830.15 33.3033C1830.15 33.8359 1830.05 34.2919 1829.85 34.6712C1829.64 35.0462 1829.37 35.3509 1829.02 35.5852C1828.68 35.8196 1828.29 35.9879 1827.86 36.0902V36.218C1828.33 36.2436 1828.77 36.3864 1829.2 36.6463C1829.63 36.902 1829.98 37.2642 1830.25 37.733C1830.53 38.2017 1830.66 38.7685 1830.66 39.4332C1830.66 40.1108 1830.5 40.7202 1830.17 41.2614C1829.84 41.7983 1829.35 42.2223 1828.69 42.5334C1828.03 42.8445 1827.2 43 1826.2 43H1820.9ZM1823.27 41.0185H1825.82C1826.68 41.0185 1827.3 40.8544 1827.68 40.5263C1828.06 40.1939 1828.25 39.7678 1828.25 39.2479C1828.25 38.8601 1828.16 38.5107 1827.97 38.1996C1827.77 37.8842 1827.5 37.6371 1827.15 37.4581C1826.79 37.2749 1826.37 37.1832 1825.88 37.1832H1823.27V41.0185ZM1823.27 35.4766H1825.61C1826.02 35.4766 1826.39 35.402 1826.72 35.2528C1827.05 35.0994 1827.31 34.8842 1827.49 34.6072C1827.69 34.326 1827.78 33.9936 1827.78 33.6101C1827.78 33.103 1827.6 32.6854 1827.24 32.3572C1826.89 32.0291 1826.36 31.8651 1825.67 31.8651H1823.27V35.4766ZM1844.42 36.4545C1844.42 37.8651 1844.16 39.0732 1843.63 40.0788C1843.11 41.0803 1842.39 41.8473 1841.48 42.38C1840.58 42.9126 1839.56 43.179 1838.41 43.179C1837.26 43.179 1836.24 42.9126 1835.33 42.38C1834.42 41.843 1833.71 41.0739 1833.18 40.0724C1832.66 39.0668 1832.39 37.8608 1832.39 36.4545C1832.39 35.044 1832.66 33.8381 1833.18 32.8366C1833.71 31.831 1834.42 31.0618 1835.33 30.5291C1836.24 29.9964 1837.26 29.7301 1838.41 29.7301C1839.56 29.7301 1840.58 29.9964 1841.48 30.5291C1842.39 31.0618 1843.11 31.831 1843.63 32.8366C1844.16 33.8381 1844.42 35.044 1844.42 36.4545ZM1842.04 36.4545C1842.04 35.4616 1841.88 34.6243 1841.57 33.9425C1841.27 33.2564 1840.84 32.7386 1840.29 32.3892C1839.75 32.0355 1839.12 31.8587 1838.41 31.8587C1837.7 31.8587 1837.07 32.0355 1836.52 32.3892C1835.98 32.7386 1835.55 33.2564 1835.24 33.9425C1834.93 34.6243 1834.78 35.4616 1834.78 36.4545C1834.78 37.4474 1834.93 38.2869 1835.24 38.973C1835.55 39.6548 1835.98 40.1726 1836.52 40.5263C1837.07 40.8757 1837.7 41.0504 1838.41 41.0504C1839.12 41.0504 1839.75 40.8757 1840.29 40.5263C1840.84 40.1726 1841.27 39.6548 1841.57 38.973C1841.88 38.2869 1842.04 37.4474 1842.04 36.4545ZM1858.36 36.4545C1858.36 37.8651 1858.1 39.0732 1857.57 40.0788C1857.05 41.0803 1856.33 41.8473 1855.42 42.38C1854.52 42.9126 1853.5 43.179 1852.35 43.179C1851.2 43.179 1850.18 42.9126 1849.27 42.38C1848.36 41.843 1847.65 41.0739 1847.12 40.0724C1846.6 39.0668 1846.33 37.8608 1846.33 36.4545C1846.33 35.044 1846.6 33.8381 1847.12 32.8366C1847.65 31.831 1848.36 31.0618 1849.27 30.5291C1850.18 29.9964 1851.2 29.7301 1852.35 29.7301C1853.5 29.7301 1854.52 29.9964 1855.42 30.5291C1856.33 31.0618 1857.05 31.831 1857.57 32.8366C1858.1 33.8381 1858.36 35.044 1858.36 36.4545ZM1855.98 36.4545C1855.98 35.4616 1855.82 34.6243 1855.51 33.9425C1855.21 33.2564 1854.78 32.7386 1854.23 32.3892C1853.69 32.0355 1853.06 31.8587 1852.35 31.8587C1851.64 31.8587 1851.01 32.0355 1850.46 32.3892C1849.92 32.7386 1849.49 33.2564 1849.18 33.9425C1848.87 34.6243 1848.72 35.4616 1848.72 36.4545C1848.72 37.4474 1848.87 38.2869 1849.18 38.973C1849.49 39.6548 1849.92 40.1726 1850.46 40.5263C1851.01 40.8757 1851.64 41.0504 1852.35 41.0504C1853.06 41.0504 1853.69 40.8757 1854.23 40.5263C1854.78 40.1726 1855.21 39.6548 1855.51 38.973C1855.82 38.2869 1855.98 37.4474 1855.98 36.4545ZM1867.72 33.5078C1867.66 32.9496 1867.41 32.5149 1866.97 32.2038C1866.53 31.8928 1865.96 31.7372 1865.25 31.7372C1864.76 31.7372 1864.33 31.8118 1863.98 31.9609C1863.63 32.1101 1863.36 32.3125 1863.17 32.5682C1862.98 32.8239 1862.89 33.1158 1862.88 33.4439C1862.88 33.7166 1862.94 33.9531 1863.07 34.1534C1863.19 34.3537 1863.37 34.5241 1863.58 34.6648C1863.8 34.8011 1864.04 34.9162 1864.31 35.0099C1864.57 35.1037 1864.84 35.1825 1865.11 35.2464L1866.33 35.5533C1866.83 35.6683 1867.3 35.8239 1867.76 36.0199C1868.22 36.2159 1868.63 36.4631 1868.99 36.7614C1869.36 37.0597 1869.65 37.4197 1869.86 37.8416C1870.07 38.2635 1870.18 38.7578 1870.18 39.3246C1870.18 40.0916 1869.98 40.767 1869.59 41.3509C1869.2 41.9304 1868.63 42.3842 1867.89 42.7124C1867.16 43.0362 1866.26 43.1982 1865.21 43.1982C1864.2 43.1982 1863.31 43.0405 1862.56 42.7251C1861.82 42.4098 1861.23 41.9496 1860.81 41.3445C1860.39 40.7393 1860.17 40.0021 1860.13 39.1328H1862.47C1862.5 39.5888 1862.64 39.968 1862.89 40.2706C1863.13 40.5732 1863.46 40.799 1863.85 40.9482C1864.25 41.0973 1864.7 41.1719 1865.2 41.1719C1865.71 41.1719 1866.16 41.0952 1866.55 40.9418C1866.94 40.7841 1867.25 40.5668 1867.47 40.2898C1867.69 40.0085 1867.81 39.6804 1867.81 39.3054C1867.81 38.9645 1867.71 38.6832 1867.51 38.4616C1867.31 38.2358 1867.04 38.0483 1866.68 37.8991C1866.34 37.7457 1865.93 37.6094 1865.46 37.4901L1863.97 37.1065C1862.89 36.8295 1862.04 36.4098 1861.41 35.8473C1860.79 35.2805 1860.48 34.5284 1860.48 33.5909C1860.48 32.8196 1860.69 32.1442 1861.1 31.5646C1861.53 30.9851 1862.1 30.5355 1862.82 30.2159C1863.55 29.892 1864.37 29.7301 1865.28 29.7301C1866.21 29.7301 1867.03 29.892 1867.73 30.2159C1868.43 30.5355 1868.98 30.9808 1869.38 31.5518C1869.78 32.1186 1869.99 32.7706 1870 33.5078H1867.72ZM1871.72 31.897V29.9091H1882.16V31.897H1878.12V43H1875.77V31.897H1871.72Z" fill="white"/>
<circle cx="1908.5" cy="36.5" r="9.5" fill="#17161C"/>
<path fill-rule="evenodd" clip-rule="evenodd" d="M1907.98 31.1371H1909.13C1909.27 33.6861 1911.31 35.7277 1913.86 35.8716V37.0171C1911.31 37.161 1909.27 39.2027 1909.13 41.7518H1907.98C1907.84 39.2027 1905.8 37.161 1903.25 37.0171V35.8716C1905.8 35.7277 1907.84 33.6861 1907.98 31.1371Z" fill="#EE56BB"/>
</g>
<defs>
<linearGradient id="paint0_linear_236_18446" x1="2584.44" y1="-8.48299e-06" x2="2522.87" y2="433.469" gradientUnits="userSpaceOnUse">
<stop stop-color="#BB44F0"/>
<stop offset="0.450755" stop-color="#F974CC"/>
<stop offset="1" stop-color="#FFC9BB"/>
</linearGradient>
<clipPath id="clip0_236_18446">
<rect width="1920" height="72" fill="white"/>
</clipPath>
</defs>
</svg>
