<svg width="34" height="32" viewBox="0 0 34 32" fill="none" xmlns="http://www.w3.org/2000/svg">
<path fill-rule="evenodd" clip-rule="evenodd" d="M9.88532 30.7211C9.0402 31.1623 8.01779 31.0846 7.24901 30.5209C6.48023 29.9571 6.0988 29.0053 6.26548 28.0667L7.61437 20.3351L1.93534 14.8929C1.24118 14.2309 0.986775 13.2302 1.2805 12.3171C1.57422 11.4039 2.36432 10.7392 3.31425 10.6061L11.1992 9.47896L14.759 2.37766C15.1811 1.52601 16.0494 0.987221 16.9999 0.987221C17.9505 0.987221 18.8188 1.52601 19.2409 2.37766L22.8007 9.47896L30.6856 10.6061C31.6356 10.7392 32.4257 11.4039 32.7194 12.3171C33.0131 13.2302 32.7587 14.2309 32.0646 14.8929L26.3855 20.3351L27.7344 28.0684C27.9011 29.007 27.5197 29.9588 26.7509 30.5225C25.9821 31.0863 24.9597 31.1639 24.1146 30.7228L16.9999 27.0463L9.88532 30.7211Z" stroke="url(#paint0_linear_707_2265)" stroke-width="1.5" stroke-linecap="round" stroke-linejoin="round"/>
<defs>
<linearGradient id="paint0_linear_707_2265" x1="43.8026" y1="0.987217" x2="-3.87032" y2="14.2708" gradientUnits="userSpaceOnUse">
<stop stop-color="#BB44F0"/>
<stop offset="0.450755" stop-color="#F974CC"/>
<stop offset="1" stop-color="#FFC9BB"/>
</linearGradient>
</defs>
</svg>
