<svg width="26" height="31" viewBox="0 0 26 31" fill="none" xmlns="http://www.w3.org/2000/svg">
<path d="M6.30201 30.3551C5.68491 29.9493 5.13798 29.448 4.68225 28.8703C4.18095 28.274 3.71648 27.6484 3.29137 26.9969C2.29377 25.5525 1.51142 23.9739 0.968336 22.3096C0.315932 20.3762 0 18.5231 0 16.7107C0 14.6865 0.443087 12.9194 1.3097 11.4346C1.95211 10.2741 2.89661 9.30428 4.04549 8.62551C5.15889 7.94206 6.4382 7.56803 7.74865 7.54285C8.20738 7.54285 8.70133 7.60859 9.22561 7.73425C9.60218 7.83962 10.0609 8.00588 10.6214 8.21275C11.3344 8.48438 11.7267 8.65065 11.8597 8.69125C12.2773 8.84204 12.6285 8.90778 12.9043 8.90778C13.1136 8.90778 13.409 8.84204 13.7445 8.74151C13.9333 8.67578 14.2893 8.55978 14.7989 8.34421C15.3036 8.16248 15.7007 8.00685 16.0167 7.89085C16.5008 7.74972 16.9694 7.61922 17.387 7.55349C17.8822 7.47634 18.3846 7.45591 18.8845 7.49259C19.7508 7.54854 20.604 7.72996 21.4169 8.03102C22.7461 8.55978 23.8211 9.38531 24.6212 10.5588C24.283 10.7648 23.9656 11.0024 23.6734 11.2684C23.0372 11.8257 22.4953 12.48 22.0683 13.2065C21.5101 14.1993 21.2207 15.3178 21.2281 16.4535C21.2486 17.8484 21.6105 19.077 22.3236 20.1394C22.8478 20.9268 23.5291 21.6001 24.3258 22.1182C24.7337 22.3898 25.0848 22.5764 25.4213 22.702C25.2638 23.1854 25.0956 23.6532 24.897 24.1172C24.4467 25.1577 23.9009 26.1553 23.2665 27.0974C22.7011 27.9085 22.258 28.5126 21.9216 28.9148C21.3973 29.5286 20.8926 29.9974 20.383 30.3241C19.8225 30.6915 19.1603 30.8877 18.4874 30.8877C18.0317 30.905 17.576 30.8505 17.1376 30.7263C16.761 30.6006 16.3884 30.4643 16.0216 30.3087C15.6402 30.1356 15.247 29.9892 14.8449 29.8708C13.8508 29.6185 12.8086 29.6168 11.8137 29.8659C11.4058 29.9819 11.0136 30.1173 10.6263 30.2835C10.0815 30.5097 9.71955 30.6615 9.51024 30.7263C9.09258 30.8471 8.65928 30.9225 8.22108 30.9476C7.54324 30.9476 6.91138 30.7562 6.28538 30.3686L6.30201 30.3551ZM15.242 6.56073C14.3558 6.99862 13.5098 7.18519 12.6696 7.12429C12.5375 6.28813 12.6696 5.43263 13.0207 4.49594C13.3196 3.70237 13.7614 2.96879 14.3245 2.33062C14.9192 1.65881 15.6409 1.10816 16.449 0.709529C17.3097 0.271632 18.1304 0.0347998 18.9148 0C19.0166 0.875795 18.9148 1.73709 18.5891 2.66798C18.2877 3.49089 17.8468 4.2571 17.2853 4.93384C16.7122 5.60656 16.0088 6.15936 15.2166 6.55976L15.242 6.56073Z" fill="white"/>
</svg>
