<svg width="25" height="27" viewBox="0 0 25 27" fill="none" xmlns="http://www.w3.org/2000/svg">
<path d="M18.4439 17.4731C21.6147 15.7321 24.0184 14.4055 24.2256 14.3023C24.8883 13.9499 25.5728 13.017 24.2256 12.2924C23.7906 12.0645 21.4486 10.7792 18.4439 9.12158L14.2785 13.3283L18.4439 17.473V17.4731Z" fill="#FFD900"/>
<path d="M14.2785 13.3282L1.01535 26.6955C1.32667 26.7367 1.67813 26.6542 2.0925 26.4264C2.96247 25.9502 12.1849 20.9137 18.4439 17.474L14.2785 13.3282Z" fill="#F43249"/>
<path d="M14.2785 13.3283L18.4439 9.14225C18.4439 9.14225 3.02536 0.727727 2.09248 0.231008C1.74102 0.0228451 1.34716 -0.0389884 0.99472 0.0228451L14.2785 13.3283Z" fill="#00EE76"/>
<path d="M14.2784 13.3283L0.994708 0.0228271C0.455594 0.147471 0 0.623774 0 1.59787V25.1205C0 26.012 0.352539 26.6542 1.01532 26.7161L14.2784 13.3283Z" fill="#00D3FF"/>
</svg>
