<svg width="199" height="115" viewBox="0 0 199 115" fill="none" xmlns="http://www.w3.org/2000/svg">
<path d="M31.7727 92.9545L31.7659 93.9545L31.7682 93.9545L31.7727 92.9545ZM21.9886 91.2159L21.6463 92.1555L21.6523 92.1577L21.9886 91.2159ZM13.3977 85.5909L12.6813 86.2886L12.6844 86.2917L13.3977 85.5909ZM7.32955 75.1932L6.38438 75.5198L6.38491 75.5213L7.32955 75.1932ZM5.11364 59.0682L6.11364 59.0717V59.0682H5.11364ZM7.02273 43.0795L7.98771 43.3419L7.02273 43.0795ZM12.5114 31.2159L13.3154 31.8105L13.3174 31.8078L12.5114 31.2159ZM21.1364 23.7841L20.6868 22.8909L20.6843 22.8921L21.1364 23.7841ZM44.1477 23.8182L43.6934 24.709L43.6958 24.7102L44.1477 23.8182ZM52.3977 30.9091L51.5773 31.4809L51.5794 31.4838L52.3977 30.9091ZM56.2841 41V42H57.4263L57.2753 40.8678L56.2841 41ZM43.8409 41L42.8679 41.2309L43.0504 42H43.8409V41ZM39.9205 34.5909L39.2838 35.3621L39.2936 35.37L39.9205 34.5909ZM21.3068 38.4773L20.4575 37.9493L20.4555 37.9527L21.3068 38.4773ZM17.3864 55.7955L16.3864 55.7924L16.3833 56.7955H17.3864V55.7955ZM17.8636 55.7955V56.7955H18.4514L18.7373 56.2819L17.8636 55.7955ZM28.1932 47.3409L28.521 48.2857L28.5265 48.2837L28.1932 47.3409ZM46.3295 49.0795L45.8142 49.9365L45.8168 49.9381L46.3295 49.0795ZM54.1023 57.1591L53.2284 57.6452L53.2298 57.6477L54.1023 57.1591ZM56.9318 68.8864L55.9318 68.8812L55.9318 68.8913L56.9318 68.8864ZM53.7955 81.2614L54.66 81.7639L54.6614 81.7616L53.7955 81.2614ZM44.9659 89.8523L45.4507 90.7269L44.9659 89.8523ZM38.3523 80.9205L37.8276 80.0691H37.8276L38.3523 80.9205ZM44.6591 69.1591L43.6591 69.15L43.659 69.159L43.6591 69.168L44.6591 69.1591ZM43.0227 62.375L42.1425 62.8497L42.1467 62.8573L43.0227 62.375ZM26.7273 56.8523L27.1322 57.7666V57.7666L26.7273 56.8523ZM22.5682 59.7841L23.2885 60.4778L23.2948 60.4711L22.5682 59.7841ZM19.7727 64.0795L18.8496 63.6949L18.847 63.7014L19.7727 64.0795ZM18.75 69.2614L17.7501 69.249L17.7499 69.2599L17.75 69.2707L18.75 69.2614ZM20.4545 75.9773L21.3328 75.4991L20.4545 75.9773ZM25.0568 80.8864L24.5251 81.7333L25.0568 80.8864ZM31.7795 91.9546C28.5522 91.9326 25.4022 91.3732 22.325 90.2742L21.6523 92.1577C24.9387 93.3314 28.3114 93.931 31.7659 93.9545L31.7795 91.9546ZM22.3309 90.2763C19.299 89.1718 16.5599 87.3826 14.1111 84.8901L12.6844 86.2917C15.3265 88.981 18.3146 90.9418 21.6464 92.1555L22.3309 90.2763ZM14.1141 84.8932C11.6934 82.4076 9.73792 79.0788 8.27418 74.865L6.38491 75.5213C7.92118 79.9439 10.0112 83.5469 12.6813 86.2886L14.1141 84.8932ZM8.27471 74.8666C6.82275 70.6647 6.09116 65.4095 6.11363 59.0717L4.11364 59.0646C4.09066 65.5451 4.83634 71.0398 6.38438 75.5198L8.27471 74.8666ZM6.11364 59.0682C6.11364 53.1599 6.74287 47.9211 7.98771 43.3419L6.05775 42.8172C4.75714 47.6016 4.11364 53.0219 4.11364 59.0682H6.11364ZM7.98771 43.3419C9.23449 38.7555 11.0165 34.9195 13.3154 31.8105L11.7073 30.6214C9.23351 33.9669 7.35642 38.04 6.05775 42.8172L7.98771 43.3419ZM13.3174 31.8078C15.6175 28.6752 18.3743 26.3049 21.5884 24.6761L20.6843 22.8921C17.1712 24.6724 14.1779 27.2566 11.7053 30.6241L13.3174 31.8078ZM21.586 24.6773C24.819 23.05 28.4466 22.2273 32.4886 22.2273V20.2273C28.167 20.2273 24.2265 21.1091 20.6868 22.8909L21.586 24.6773ZM32.4886 22.2273C36.7414 22.2273 40.4679 23.0638 43.6934 24.709L44.6021 22.9274C41.0548 21.118 37.0086 20.2273 32.4886 20.2273V22.2273ZM43.6958 24.7102C46.9644 26.3663 49.5852 28.6226 51.5773 31.4809L53.2181 30.3373C51.0284 27.1956 48.1493 24.7246 44.5997 22.9261L43.6958 24.7102ZM51.5794 31.4838C53.5742 34.3243 54.8132 37.5349 55.2929 41.1322L57.2753 40.8678C56.755 36.9651 55.4031 33.4484 53.2161 30.3344L51.5794 31.4838ZM56.2841 40H43.8409V42H56.2841V40ZM44.8139 40.7691C44.1309 37.891 42.7129 35.5542 40.5473 33.8118L39.2936 35.37C41.0826 36.8095 42.2781 38.7454 42.8679 41.2309L44.8139 40.7691ZM40.5571 33.8198C38.3918 32.0321 35.6764 31.1705 32.4886 31.1705V33.1705C35.3009 33.1705 37.5401 33.9225 39.2838 35.3621L40.5571 33.8198ZM32.4886 31.1705C27.2926 31.1705 23.2486 33.4594 20.4575 37.9493L22.1561 39.0052C24.5923 35.0861 28.0028 33.1705 32.4886 33.1705V31.1705ZM20.4555 37.9527C17.7318 42.3726 16.4094 48.3509 16.3864 55.7924L18.3864 55.7985C18.4088 48.5582 19.7 42.9911 22.1582 39.0019L20.4555 37.9527ZM17.3864 56.7955H17.8636V54.7955H17.3864V56.7955ZM18.7373 56.2819C19.7889 54.3934 21.149 52.7766 22.8215 51.4257L21.5648 49.8698C19.6919 51.3825 18.1656 53.1975 16.9899 55.309L18.7373 56.2819ZM22.8215 51.4257C24.5013 50.0689 26.3989 49.0219 28.521 48.2857L27.8654 46.3962C25.5329 47.2054 23.4305 48.3629 21.5648 49.8698L22.8215 51.4257ZM28.5265 48.2837C30.6644 47.5279 32.9263 47.1477 35.3182 47.1477V45.1477C32.7101 45.1477 30.2219 45.563 27.8599 46.3981L28.5265 48.2837ZM35.3182 47.1477C39.2423 47.1477 42.732 48.0829 45.8142 49.9365L46.8449 48.2226C43.4271 46.1671 39.5759 45.1477 35.3182 45.1477V47.1477ZM45.8168 49.9381C48.9338 51.7996 51.4021 54.3623 53.2284 57.6452L54.9762 56.673C52.9842 53.0923 50.2708 50.2686 46.8423 48.221L45.8168 49.9381ZM53.2298 57.6477C55.044 60.8874 55.9538 64.6224 55.9318 68.8812L57.9318 68.8915C57.9553 64.3322 56.9787 60.2489 54.9748 56.6705L53.2298 57.6477ZM55.9318 68.8913C55.9538 73.3207 54.9469 77.2687 52.9295 80.7612L54.6614 81.7616C56.8713 77.9358 57.9553 73.6338 57.9318 68.8814L55.9318 68.8913ZM52.9309 80.7588C50.9104 84.235 48.1003 86.9719 44.4812 88.9776L45.4507 90.7269C49.377 88.5509 52.4533 85.5604 54.66 81.7639L52.9309 80.7588ZM44.4812 88.9776C40.8811 90.9728 36.6572 91.9766 31.7773 91.9546L31.7682 93.9545C36.9337 93.9779 41.5053 92.9135 45.4507 90.7269L44.4812 88.9776ZM31.7045 83.7273C34.3519 83.7273 36.7522 83.0812 38.8769 81.7718L37.8276 80.0691C36.0433 81.1688 34.0117 81.7273 31.7045 81.7273V83.7273ZM38.8769 81.7718C40.9803 80.4755 42.6449 78.7234 43.8628 76.5311L42.1145 75.5598C41.0597 77.4584 39.6334 78.9563 37.8276 80.0691L38.8769 81.7718ZM43.8628 76.5311C45.0904 74.3213 45.6832 71.8529 45.6591 69.1502L43.6591 69.168C43.6805 71.5562 43.1596 73.6787 42.1145 75.5598L43.8628 76.5311ZM45.659 69.1682C45.6832 66.5111 45.102 64.0782 43.8987 61.8927L42.1467 62.8573C43.1708 64.7173 43.6804 66.8071 43.6591 69.15L45.659 69.1682ZM43.9029 61.9003C42.7294 59.7244 41.0954 57.9906 39.0105 56.7151L37.9668 58.4212C39.7455 59.5094 41.1343 60.9801 42.1426 62.8497L43.9029 61.9003ZM39.0105 56.7151C36.907 55.4283 34.5186 54.7955 31.875 54.7955V56.7955C34.186 56.7955 36.2066 57.3444 37.9668 58.4212L39.0105 56.7151ZM31.875 54.7955C29.9029 54.7955 28.0481 55.1737 26.3223 55.9379L27.1322 57.7666C28.5883 57.1218 30.1653 56.7955 31.875 56.7955V54.7955ZM26.3223 55.9379C24.6116 56.6955 23.1155 57.7496 21.8415 59.0971L23.2948 60.4711C24.3845 59.3186 25.6611 58.4181 27.1322 57.7666L26.3223 55.9379ZM21.8479 59.0904C20.5764 60.4108 19.5773 61.9486 18.8497 63.6949L20.6958 64.4642C21.3318 62.9378 22.1964 61.6119 23.2885 60.4777L21.8479 59.0904ZM18.847 63.7014C18.1378 65.4377 17.7743 67.2898 17.7501 69.249L19.7499 69.2737C19.7712 67.5512 20.0895 65.9487 20.6985 64.4577L18.847 63.7014ZM17.75 69.2707C17.7742 71.8589 18.3808 74.2596 19.5763 76.4554L21.3328 75.4991C20.3011 73.604 19.7712 71.5275 19.75 69.252L17.75 69.2707ZM19.5763 76.4554C20.7711 78.65 22.4239 80.4139 24.5251 81.7333L25.5886 80.0395C23.7806 78.9042 22.3653 77.3954 21.3328 75.4991L19.5763 76.4554ZM24.5251 81.7333C26.6507 83.068 29.0535 83.7273 31.7045 83.7273V81.7273C29.401 81.7273 27.372 81.1593 25.5886 80.0395L24.5251 81.7333ZM78.8468 89.0682L78.2647 89.8813L78.27 89.885L78.8468 89.0682ZM69.6082 76.6932L68.6781 77.0605L68.68 77.0652L69.6082 76.6932ZM66.4036 57.1591L65.4036 57.1561V57.1591H66.4036ZM69.6423 37.7273L68.7146 37.3538L68.7138 37.3559L69.6423 37.7273ZM78.8809 25.4545L78.3071 24.6355L78.305 24.6371L78.8809 25.4545ZM107.722 25.4545L107.148 26.2736V26.2736L107.722 25.4545ZM116.96 37.7273L116.031 38.0973L116.033 38.1007L116.96 37.7273ZM116.96 76.7273L116.032 76.3566L116.031 76.3586L116.96 76.7273ZM107.722 89.0682L107.145 88.2513L107.143 88.2529L107.722 89.0682ZM103.631 76.2159L102.769 75.7081L102.769 75.7095L103.631 76.2159ZM105.71 43.1818L106.666 42.8881L105.71 43.1818ZM100.801 34.6591L100.127 35.3972L100.131 35.4012L100.801 34.6591ZM83.0059 38.2386L83.8682 38.7451L83.8694 38.7431L83.0059 38.2386ZM79.1877 57.1591L80.1877 57.1632L80.1877 57.1618L79.1877 57.1591ZM80.8582 71.2045L79.9002 71.4914L79.9018 71.4966L80.8582 71.2045ZM85.7673 79.7955L85.0926 80.5336L85.097 80.5376L85.7673 79.7955ZM93.3014 92.3295C87.8643 92.3295 83.2547 90.9569 79.4237 88.2513L78.27 89.885C82.4844 92.8613 87.5111 94.3295 93.3014 94.3295V92.3295ZM79.4289 88.2551C75.61 85.5211 72.6375 81.5628 70.5364 76.3211L68.68 77.0652C70.8971 82.5963 74.0836 86.888 78.2647 89.8813L79.4289 88.2551ZM70.5383 76.3258C68.46 71.0637 67.4036 64.6839 67.4036 57.1591H65.4036C65.4036 64.8616 66.4837 71.5045 68.6781 77.0605L70.5383 76.3258ZM67.4036 57.1621C67.4261 49.636 68.4937 43.2912 70.5707 38.0987L68.7138 37.3559C66.5181 42.8452 65.4266 49.4549 65.4036 57.1561L67.4036 57.1621ZM70.5699 38.1007C72.6703 32.8829 75.6412 28.9603 79.4569 26.272L78.305 24.6371C74.1206 27.5851 70.9324 31.8444 68.7146 37.3538L70.5699 38.1007ZM79.4547 26.2736C83.2867 23.589 87.8863 22.2273 93.3014 22.2273V20.2273C87.5346 20.2273 82.5206 21.6837 78.3071 24.6355L79.4547 26.2736ZM93.3014 22.2273C98.7164 22.2273 103.316 23.589 107.148 26.2736L108.296 24.6355C104.082 21.6837 99.0681 20.2273 93.3014 20.2273V22.2273ZM107.148 26.2736C110.985 28.9614 113.954 32.8824 116.031 38.0973L117.889 37.3572C115.694 31.8449 112.504 27.584 108.296 24.6355L107.148 26.2736ZM116.033 38.1007C118.132 43.3149 119.199 49.6582 119.199 57.1591H121.199C121.199 49.4782 120.107 42.867 117.888 37.3538L116.033 38.1007ZM119.199 57.1591C119.199 64.706 118.132 71.0958 116.032 76.3566L117.889 77.098C120.108 71.5405 121.199 64.8849 121.199 57.1591H119.199ZM116.031 76.3586C113.953 81.597 110.983 85.541 107.145 88.2513L108.299 89.885C112.506 86.9135 115.695 82.6303 117.89 77.096L116.031 76.3586ZM107.143 88.2529C103.336 90.9568 98.7385 92.3295 93.3014 92.3295V94.3295C99.0915 94.3295 104.108 92.8613 108.301 89.8835L107.143 88.2529ZM93.3014 83.6591C98.0758 83.6591 101.821 81.2718 104.493 76.7223L102.769 75.7095C100.395 79.7509 97.2542 81.6591 93.3014 81.6591V83.6591ZM104.492 76.7237C107.171 72.1803 108.449 65.6174 108.449 57.1591H106.449C106.449 65.4735 105.182 71.6151 102.769 75.7081L104.492 76.7237ZM108.449 57.1591C108.449 51.551 107.864 46.7859 106.666 42.8881L104.755 43.4755C105.875 47.1232 106.449 51.6762 106.449 57.1591H108.449ZM106.666 42.8881C105.474 39.0065 103.761 35.985 101.472 33.917L100.131 35.4012C102.069 37.1514 103.629 39.8116 104.755 43.4755L106.666 42.8881ZM101.476 33.921C99.1764 31.8192 96.4352 30.7614 93.3014 30.7614V32.7614C95.9403 32.7614 98.199 33.6354 100.127 35.3972L101.476 33.921ZM93.3014 30.7614C88.5449 30.7614 84.8119 33.1648 82.1425 37.7342L83.8694 38.7431C86.2453 34.6761 89.376 32.7614 93.3014 32.7614V30.7614ZM82.1436 37.7322C79.4898 42.2509 78.2107 48.7663 78.1877 57.1564L80.1877 57.1618C80.2103 48.9155 81.4766 42.8172 83.8682 38.7451L82.1436 37.7322ZM78.1877 57.155C78.1648 62.7851 78.7267 67.5719 79.9002 71.4914L81.8162 70.9177C80.7169 67.2462 80.1652 62.6694 80.1877 57.1632L78.1877 57.155ZM79.9018 71.4966C81.0939 75.4002 82.8054 78.4431 85.0926 80.5336L86.4419 79.0573C84.5019 77.2842 82.9407 74.5998 81.8146 70.9125L79.9018 71.4966ZM85.097 80.5376C87.3987 82.6165 90.1505 83.6591 93.3014 83.6591V81.6591C90.6341 81.6591 88.3631 80.7926 86.4376 79.0534L85.097 80.5376Z" fill="url(#paint0_linear_203_20663)"/>
<path d="M160.932 87.875V40.6932H171.636V87.875H160.932ZM142.693 69.6364V58.9318H189.875V69.6364H142.693Z" fill="url(#paint1_linear_203_20663)"/>
<defs>
<linearGradient id="paint0_linear_203_20663" x1="169.604" y1="-1.35492e-05" x2="-18.9495" y2="54.5479" gradientUnits="userSpaceOnUse">
<stop stop-color="#BB44F0"/>
<stop offset="0.450755" stop-color="#F974CC"/>
<stop offset="1" stop-color="#FFC9BB"/>
</linearGradient>
<linearGradient id="paint1_linear_203_20663" x1="221.494" y1="-1.35492e-05" x2="118.38" y2="15.3887" gradientUnits="userSpaceOnUse">
<stop stop-color="#BB44F0"/>
<stop offset="0.450755" stop-color="#F974CC"/>
<stop offset="1" stop-color="#FFC9BB"/>
</linearGradient>
</defs>
</svg>
