<svg width="264" height="115" viewBox="0 0 264 115" fill="none" xmlns="http://www.w3.org/2000/svg">
<path d="M18.1705 90.4318L17.7653 91.3461L17.7674 91.347L18.1705 90.4318ZM9.17045 83.4091L9.97628 82.8169L9.17045 83.4091ZM5.65909 73.0114V72.0114H4.62381L4.65969 73.046L5.65909 73.0114ZM18.4773 73.0114L19.4755 72.9512L19.4188 72.0114H18.4773V73.0114ZM20.3523 77.9545L19.5738 78.5823L19.5789 78.5885L20.3523 77.9545ZM24.8864 81.1932L24.5073 82.1186L24.8864 81.1932ZM37.875 81.0568L38.2831 81.9698L38.292 81.9657L37.875 81.0568ZM42.4091 77.375L41.5882 76.8039L42.4091 77.375ZM44.0114 71.9545L43.0114 71.9438L43.0113 71.9547L43.0114 71.9657L44.0114 71.9545ZM42.375 66.3636L41.552 66.9316L42.375 66.3636ZM37.5341 62.5795L37.1354 63.4966L37.139 63.4982L37.5341 62.5795ZM23.7955 61.2159H22.7955V62.2159H23.7955V61.2159ZM23.7955 51.4659V50.4659H22.7955V51.4659H23.7955ZM36.3409 50.2045L35.9254 49.2949L35.9211 49.2969L36.3409 50.2045ZM40.6705 46.6591L41.4949 47.2251L41.4987 47.2194L40.6705 46.6591ZM42.2045 41.3068L41.2046 41.2953L41.2045 41.3067L41.2046 41.3181L42.2045 41.3068ZM40.875 36.1591L40.0175 36.6736L40.0222 36.6814L40.027 36.6891L40.875 36.1591ZM37.0909 32.7159L36.6387 33.6078L36.6437 33.6103L37.0909 32.7159ZM25.4659 32.6477L25.8571 33.5681L25.4659 32.6477ZM21.0682 35.9545L21.8528 36.5746L21.8575 36.5685L21.0682 35.9545ZM19.2955 41V42H20.2612L20.2948 41.0349L19.2955 41ZM7.125 41L6.12527 40.9767L6.10147 42H7.125V41ZM10.5 30.7045L9.6934 30.1134L9.69261 30.1145L10.5 30.7045ZM19.2273 23.75L19.6424 24.6598L19.6471 24.6576L19.2273 23.75ZM43.6023 23.8523L43.148 24.7432L43.1551 24.7467L43.6023 23.8523ZM51.6136 30.8409L50.7727 31.382V31.382L51.6136 30.8409ZM54.4432 40.5568H53.4432L53.4432 40.5626L54.4432 40.5568ZM50.9659 50.4432L50.2153 49.7824L50.2121 49.786L50.9659 50.4432ZM41.8295 55.6591L41.6176 54.6818L40.8295 54.8527V55.6591H41.8295ZM41.8295 56.2045H40.8295V57.0753L41.692 57.195L41.8295 56.2045ZM53.1136 61.6591L52.3646 62.3217L52.3701 62.3277L53.1136 61.6591ZM57.0341 72.6023L56.0341 72.5971V72.6023H57.0341ZM53.6932 83.1023L52.8819 82.5177L52.8811 82.5188L53.6932 83.1023ZM44.5568 90.3295L44.1462 89.4177L44.1442 89.4186L44.5568 90.3295ZM31.2614 91.9545C26.4669 91.9545 22.2443 91.1335 18.5736 89.5167L17.7674 91.347C21.733 93.0937 26.2377 93.9545 31.2614 93.9545V91.9545ZM18.5756 89.5176C14.9207 87.898 12.0661 85.6608 9.97628 82.8169L8.36463 84.0013C10.6839 87.1574 13.8293 89.602 17.7653 91.3461L18.5756 89.5176ZM9.97628 82.8169C7.89781 79.9885 6.7883 76.7195 6.65849 72.9767L4.65969 73.046C4.80261 77.1669 6.034 80.8297 8.36463 84.0013L9.97628 82.8169ZM5.65909 74.0114H18.4773V72.0114H5.65909V74.0114ZM17.4791 73.0715C17.6046 75.1556 18.3011 77.004 19.5739 78.5823L21.1307 77.3268C20.1308 76.0869 19.5772 74.6398 19.4755 72.9512L17.4791 73.0715ZM19.5789 78.5885C20.8342 80.1199 22.4887 81.2916 24.5073 82.1186L25.2654 80.2678C23.5113 79.5493 22.1431 78.5619 21.1257 77.3206L19.5789 78.5885ZM24.5073 82.1186C26.5305 82.9473 28.7755 83.3523 31.2273 83.3523V81.3523C28.9973 81.3523 27.015 80.9845 25.2654 80.2678L24.5073 82.1186ZM31.2273 83.3523C33.8427 83.3523 36.2017 82.9002 38.2831 81.9697L37.4669 80.1439C35.6846 80.9407 33.6118 81.3523 31.2273 81.3523V83.3523ZM38.292 81.9657C40.3675 81.0135 42.0259 79.677 43.23 77.9461L41.5882 76.8039C40.6105 78.2094 39.2462 79.3275 37.458 80.1479L38.292 81.9657ZM43.23 77.9461C44.4483 76.1948 45.0362 74.1813 45.0113 71.9434L43.0114 71.9657C43.032 73.8187 42.5517 75.4188 41.5882 76.8039L43.23 77.9461ZM45.0113 71.9653C45.0361 69.6621 44.4383 67.5928 43.198 65.7956L41.552 66.9316C42.539 68.3618 43.0321 70.0197 43.0114 71.9438L45.0113 71.9653ZM43.198 65.7956C41.9602 64.002 40.1852 62.6312 37.9292 61.6609L37.139 63.4982C39.1103 64.3461 40.5625 65.498 41.552 66.9316L43.198 65.7956ZM37.9328 61.6625C35.6848 60.6851 33.0188 60.2159 29.9659 60.2159V62.2159C32.8221 62.2159 35.2016 62.6558 37.1354 63.4966L37.9328 61.6625ZM29.9659 60.2159H23.7955V62.2159H29.9659V60.2159ZM24.7955 61.2159V51.4659H22.7955V61.2159H24.7955ZM23.7955 52.4659H29.9659V50.4659H23.7955V52.4659ZM29.9659 52.4659C32.5123 52.4659 34.7859 52.0255 36.7607 51.1122L35.9211 49.2969C34.2596 50.0654 32.2832 50.4659 29.9659 50.4659V52.4659ZM36.7564 51.1141C38.746 50.2053 40.3371 48.9114 41.4949 47.2251L39.8461 46.0931C38.9129 47.4522 37.6177 48.5219 35.9254 49.2949L36.7564 51.1141ZM41.4987 47.2194C42.6679 45.491 43.2293 43.5039 43.2045 41.2956L41.2046 41.3181C41.2253 43.1552 40.7639 44.7362 39.8422 46.0988L41.4987 47.2194ZM43.2045 41.3183C43.2291 39.1796 42.7483 37.2695 41.723 35.6291L40.027 36.6891C40.8199 37.9578 41.2255 39.4794 41.2046 41.2953L43.2045 41.3183ZM41.7325 35.6446C40.7421 33.994 39.3336 32.7192 37.5381 31.8215L36.6437 33.6103C38.121 34.349 39.2351 35.3697 40.0175 36.6736L41.7325 35.6446ZM37.5431 31.824C35.7633 30.9216 33.7047 30.4886 31.3977 30.4886V32.4886C33.4544 32.4886 35.1912 32.8739 36.6387 33.6078L37.5431 31.824ZM31.3977 30.4886C29.138 30.4886 27.0264 30.8979 25.0748 31.7274L25.8571 33.5681C27.5418 32.8521 29.3847 32.4886 31.3977 32.4886V30.4886ZM25.0748 31.7274C23.1143 32.5606 21.5061 33.7626 20.2788 35.3406L21.8575 36.5685C22.8575 35.2828 24.1812 34.2803 25.8571 33.5681L25.0748 31.7274ZM20.2836 35.3345C19.026 36.9258 18.371 38.8176 18.2961 40.9651L20.2948 41.0349C20.3563 39.2733 20.8831 37.8015 21.8527 36.5746L20.2836 35.3345ZM19.2955 40H7.125V42H19.2955V40ZM8.12473 41.0233C8.21124 37.3035 9.2772 34.0727 11.3074 31.2946L9.69261 30.1145C7.40462 33.2455 6.22058 36.8783 6.12527 40.9767L8.12473 41.0233ZM11.3066 31.2956C13.379 28.4676 16.1483 26.2539 19.6424 24.6598L18.8122 22.8402C15.0335 24.5643 11.9846 26.9869 9.6934 30.1134L11.3066 31.2956ZM19.6471 24.6576C23.1358 23.0441 27.0694 22.2273 31.4659 22.2273V20.2273C26.8169 20.2273 22.5914 21.0923 18.8075 22.8424L19.6471 24.6576ZM31.4659 22.2273C35.9998 22.2273 39.8834 23.0784 43.148 24.7431L44.0566 22.9614C40.4576 21.1262 36.2502 20.2273 31.4659 20.2273V22.2273ZM43.1551 24.7467C46.4668 26.4026 48.9937 28.6171 50.7727 31.382L52.4546 30.2998C50.4609 27.2011 47.6468 24.7565 44.0495 22.9578L43.1551 24.7467ZM50.7727 31.382C52.5534 34.1496 53.4432 37.1998 53.4432 40.5568H55.4432C55.4432 36.8229 54.4466 33.3959 52.4546 30.2998L50.7727 31.382ZM53.4432 40.5626C53.4647 44.2782 52.376 47.3281 50.2153 49.7824L51.7165 51.104C54.2377 48.2401 55.4671 44.6991 55.4432 40.551L53.4432 40.5626ZM50.2121 49.786C48.0489 52.2674 45.2009 53.9047 41.6176 54.6818L42.0415 56.6364C46.0036 55.7771 49.2466 53.9371 51.7197 51.1003L50.2121 49.786ZM40.8295 55.6591V56.2045H42.8295V55.6591H40.8295ZM41.692 57.195C46.4272 57.8527 49.9465 59.5881 52.3646 62.3217L53.8626 60.9965C51.0535 57.821 47.0501 55.92 41.9671 55.2141L41.692 57.195ZM52.3701 62.3277C54.8219 65.0544 56.0557 68.4534 56.0341 72.5971L58.0341 72.6075C58.058 68.0238 56.6781 64.1275 53.8572 60.9904L52.3701 62.3277ZM56.0341 72.6023C56.0341 76.3074 54.9831 79.6017 52.8819 82.5177L54.5045 83.6869C56.8578 80.421 58.0341 76.7154 58.0341 72.6023H56.0341ZM52.8811 82.5188C50.7918 85.4265 47.8932 87.7305 44.1462 89.4177L44.9674 91.2414C48.9932 89.4286 52.1855 86.9144 54.5053 83.6858L52.8811 82.5188ZM44.1442 89.4186C40.4313 91.1004 36.1442 91.9545 31.2614 91.9545V93.9545C36.3785 93.9545 40.955 93.0587 44.9694 91.2405L44.1442 89.4186ZM79.1281 89.0682L78.5459 89.8813L78.5512 89.885L79.1281 89.0682ZM69.8894 76.6932L68.9593 77.0605L68.9612 77.0652L69.8894 76.6932ZM66.6849 57.1591L65.6849 57.1561V57.1591H66.6849ZM69.9235 37.7273L68.9959 37.3538L68.995 37.3559L69.9235 37.7273ZM79.1622 25.4545L78.5884 24.6355L78.5862 24.6371L79.1622 25.4545ZM108.003 25.4545L107.429 26.2736V26.2736L108.003 25.4545ZM117.242 37.7273L116.313 38.0973L116.314 38.1007L117.242 37.7273ZM117.242 76.7273L116.313 76.3566L116.312 76.3586L117.242 76.7273ZM108.003 89.0682L107.426 88.2513L107.424 88.2529L108.003 89.0682ZM103.912 76.2159L103.051 75.7081L103.05 75.7095L103.912 76.2159ZM105.992 43.1818L106.948 42.8881L105.992 43.1818ZM101.083 34.6591L100.408 35.3972L100.412 35.4012L101.083 34.6591ZM83.2872 38.2386L84.1495 38.7451L84.1506 38.7431L83.2872 38.2386ZM79.469 57.1591L80.469 57.1632L80.469 57.1618L79.469 57.1591ZM81.1394 71.2045L80.1814 71.4914L80.183 71.4966L81.1394 71.2045ZM86.0485 79.7955L85.3739 80.5336L85.3782 80.5376L86.0485 79.7955ZM93.5826 92.3295C88.1456 92.3295 83.536 90.9569 79.7049 88.2513L78.5512 89.885C82.7656 92.8613 87.7924 94.3295 93.5826 94.3295V92.3295ZM79.7102 88.2551C75.8913 85.5211 72.9187 81.5628 70.8176 76.3211L68.9612 77.0652C71.1783 82.5963 74.3648 86.888 78.546 89.8813L79.7102 88.2551ZM70.8195 76.3258C68.7412 71.0637 67.6849 64.6839 67.6849 57.1591H65.6849C65.6849 64.8616 66.7649 71.5045 68.9594 77.0605L70.8195 76.3258ZM67.6849 57.1621C67.7074 49.636 68.775 43.2912 70.852 38.0987L68.995 37.3559C66.7993 42.8452 65.7079 49.4549 65.6849 57.1561L67.6849 57.1621ZM70.8512 38.1007C72.9516 32.8829 75.9225 28.9603 79.7381 26.272L78.5862 24.6371C74.4018 27.5851 71.2136 31.8444 68.9959 37.3538L70.8512 38.1007ZM79.7359 26.2736C83.5679 23.589 88.1676 22.2273 93.5826 22.2273V20.2273C87.8158 20.2273 82.8019 21.6837 78.5884 24.6355L79.7359 26.2736ZM93.5826 22.2273C98.9977 22.2273 103.597 23.589 107.429 26.2736L108.577 24.6355C104.363 21.6837 99.3494 20.2273 93.5826 20.2273V22.2273ZM107.429 26.2736C111.266 28.9614 114.236 32.8824 116.313 38.0973L118.171 37.3572C115.975 31.8449 112.786 27.584 108.577 24.6355L107.429 26.2736ZM116.314 38.1007C118.413 43.3149 119.48 49.6582 119.48 57.1591H121.48C121.48 49.4782 120.389 42.867 118.169 37.3538L116.314 38.1007ZM119.48 57.1591C119.48 64.706 118.413 71.0958 116.313 76.3566L118.17 77.098C120.389 71.5405 121.48 64.8849 121.48 57.1591H119.48ZM116.312 76.3586C114.234 81.597 111.264 85.541 107.426 88.2513L108.58 89.885C112.788 86.9135 115.976 82.6303 118.171 77.096L116.312 76.3586ZM107.424 88.2529C103.617 90.9568 99.0198 92.3295 93.5826 92.3295V94.3295C99.3727 94.3295 104.389 92.8613 108.582 89.8835L107.424 88.2529ZM93.5826 83.6591C98.357 83.6591 102.103 81.2718 104.774 76.7223L103.05 75.7095C100.676 79.7509 97.5355 81.6591 93.5826 81.6591V83.6591ZM104.774 76.7237C107.452 72.1803 108.73 65.6174 108.73 57.1591H106.73C106.73 65.4735 105.463 71.6151 103.051 75.7081L104.774 76.7237ZM108.73 57.1591C108.73 51.551 108.145 46.7859 106.948 42.8881L105.036 43.4755C106.156 47.1232 106.73 51.6762 106.73 57.1591H108.73ZM106.948 42.8881C105.755 39.0065 104.042 35.985 101.753 33.917L100.412 35.4012C102.35 37.1514 103.91 39.8116 105.036 43.4755L106.948 42.8881ZM101.757 33.921C99.4577 31.8192 96.7165 30.7614 93.5826 30.7614V32.7614C96.2215 32.7614 98.4803 33.6354 100.408 35.3972L101.757 33.921ZM93.5826 30.7614C88.8262 30.7614 85.0932 33.1648 82.4237 37.7342L84.1506 38.7431C86.5266 34.6761 89.6572 32.7614 93.5826 32.7614V30.7614ZM82.4249 37.7322C79.771 42.2509 78.4919 48.7663 78.469 57.1564L80.469 57.1618C80.4915 48.9155 81.7578 42.8172 84.1494 38.7451L82.4249 37.7322ZM78.469 57.155C78.446 62.7851 79.008 67.5719 80.1814 71.4914L82.0974 70.9177C80.9982 67.2462 80.4465 62.6694 80.469 57.1632L78.469 57.155ZM80.183 71.4966C81.3751 75.4002 83.0866 78.4431 85.3739 80.5336L86.7232 79.0573C84.7831 77.2842 83.2219 74.5998 82.0958 70.9125L80.183 71.4966ZM85.3782 80.5376C87.68 82.6165 90.4317 83.6591 93.5826 83.6591V81.6591C90.9153 81.6591 88.6444 80.7926 86.7188 79.0534L85.3782 80.5376ZM142.199 89.0682L141.617 89.8813L141.622 89.885L142.199 89.0682ZM132.961 76.6932L132.031 77.0605L132.032 77.0652L132.961 76.6932ZM129.756 57.1591L128.756 57.1561V57.1591H129.756ZM132.995 37.7273L132.067 37.3538L132.066 37.3559L132.995 37.7273ZM142.233 25.4545L141.66 24.6355L141.657 24.6371L142.233 25.4545ZM171.074 25.4545L170.501 26.2736V26.2736L171.074 25.4545ZM180.313 37.7273L179.384 38.0973L179.385 38.1007L180.313 37.7273ZM180.313 76.7273L179.384 76.3566L179.383 76.3586L180.313 76.7273ZM171.074 89.0682L170.497 88.2513L170.495 88.2529L171.074 89.0682ZM166.983 76.2159L166.122 75.7081L166.121 75.7095L166.983 76.2159ZM169.063 43.1818L170.019 42.8881L169.063 43.1818ZM164.154 34.6591L163.479 35.3972L163.484 35.4012L164.154 34.6591ZM146.358 38.2386L147.221 38.7451L147.222 38.7431L146.358 38.2386ZM142.54 57.1591L143.54 57.1632V57.1618L142.54 57.1591ZM144.211 71.2045L143.253 71.4914L143.254 71.4966L144.211 71.2045ZM149.12 79.7955L148.445 80.5336L148.449 80.5376L149.12 79.7955ZM156.654 92.3295C151.217 92.3295 146.607 90.9569 142.776 88.2513L141.622 89.885C145.837 92.8613 150.864 94.3295 156.654 94.3295V92.3295ZM142.781 88.2551C138.963 85.5211 135.99 81.5628 133.889 76.3211L132.032 77.0652C134.25 82.5963 137.436 86.888 141.617 89.8813L142.781 88.2551ZM133.891 76.3258C131.812 71.0637 130.756 64.6839 130.756 57.1591H128.756C128.756 64.8616 129.836 71.5045 132.031 77.0605L133.891 76.3258ZM130.756 57.1621C130.779 49.636 131.846 43.2912 133.923 38.0987L132.066 37.3559C129.871 42.8452 128.779 49.4549 128.756 57.1561L130.756 57.1621ZM133.922 38.1007C136.023 32.8829 138.994 28.9603 142.809 26.272L141.657 24.6371C137.473 27.5851 134.285 31.8444 132.067 37.3538L133.922 38.1007ZM142.807 26.2736C146.639 23.589 151.239 22.2273 156.654 22.2273V20.2273C150.887 20.2273 145.873 21.6837 141.66 24.6355L142.807 26.2736ZM156.654 22.2273C162.069 22.2273 166.669 23.589 170.501 26.2736L171.648 24.6355C167.435 21.6837 162.421 20.2273 156.654 20.2273V22.2273ZM170.501 26.2736C174.337 28.9614 177.307 32.8824 179.384 38.0973L181.242 37.3572C179.046 31.8449 175.857 27.584 171.648 24.6355L170.501 26.2736ZM179.385 38.1007C181.484 43.3149 182.552 49.6582 182.552 57.1591H184.552C184.552 49.4782 183.46 42.867 181.241 37.3538L179.385 38.1007ZM182.552 57.1591C182.552 64.706 181.484 71.0958 179.384 76.3566L181.242 77.098C183.46 71.5405 184.552 64.8849 184.552 57.1591H182.552ZM179.383 76.3586C177.306 81.597 174.335 85.541 170.497 88.2513L171.651 89.885C175.859 86.9135 179.047 82.6303 181.243 77.096L179.383 76.3586ZM170.495 88.2529C166.688 90.9568 162.091 92.3295 156.654 92.3295V94.3295C162.444 94.3295 167.461 92.8613 171.653 89.8835L170.495 88.2529ZM156.654 83.6591C161.428 83.6591 165.174 81.2718 167.846 76.7223L166.121 75.7095C163.748 79.7509 160.607 81.6591 156.654 81.6591V83.6591ZM167.845 76.7237C170.523 72.1803 171.802 65.6174 171.802 57.1591H169.802C169.802 65.4735 168.535 71.6151 166.122 75.7081L167.845 76.7237ZM171.802 57.1591C171.802 51.551 171.216 46.7859 170.019 42.8881L168.107 43.4755C169.228 47.1232 169.802 51.6762 169.802 57.1591H171.802ZM170.019 42.8881C168.826 39.0065 167.114 35.985 164.824 33.917L163.484 35.4012C165.421 37.1514 166.981 39.8116 168.107 43.4755L170.019 42.8881ZM164.829 33.921C162.529 31.8192 159.788 30.7614 156.654 30.7614V32.7614C159.293 32.7614 161.552 33.6354 163.479 35.3972L164.829 33.921ZM156.654 30.7614C151.897 30.7614 148.164 33.1648 145.495 37.7342L147.222 38.7431C149.598 34.6761 152.728 32.7614 156.654 32.7614V30.7614ZM145.496 37.7322C142.842 42.2509 141.563 48.7663 141.54 57.1564L143.54 57.1618C143.563 48.9155 144.829 42.8172 147.221 38.7451L145.496 37.7322ZM141.54 57.155C141.517 62.7851 142.079 67.5719 143.253 71.4914L145.169 70.9177C144.069 67.2462 143.518 62.6694 143.54 57.1632L141.54 57.155ZM143.254 71.4966C144.446 75.4002 146.158 78.4431 148.445 80.5336L149.794 79.0573C147.854 77.2842 146.293 74.5998 145.167 70.9125L143.254 71.4966ZM148.449 80.5376C150.751 82.6165 153.503 83.6591 156.654 83.6591V81.6591C153.987 81.6591 151.716 80.7926 149.79 79.0534L148.449 80.5376Z" fill="url(#paint0_linear_203_20661)"/>
<path d="M225.932 87.875V40.6932H236.636V87.875H225.932ZM207.693 69.6364V58.9318H254.875V69.6364H207.693Z" fill="url(#paint1_linear_203_20661)"/>
<defs>
<linearGradient id="paint0_linear_203_20661" x1="254.405" y1="-1.35492e-05" x2="-3.52463" y2="111.928" gradientUnits="userSpaceOnUse">
<stop stop-color="#BB44F0"/>
<stop offset="0.450755" stop-color="#F974CC"/>
<stop offset="1" stop-color="#FFC9BB"/>
</linearGradient>
<linearGradient id="paint1_linear_203_20661" x1="286.494" y1="-1.35492e-05" x2="183.38" y2="15.3887" gradientUnits="userSpaceOnUse">
<stop stop-color="#BB44F0"/>
<stop offset="0.450755" stop-color="#F974CC"/>
<stop offset="1" stop-color="#FFC9BB"/>
</linearGradient>
</defs>
</svg>
