<svg width="134" height="115" viewBox="0 0 134 115" fill="none" xmlns="http://www.w3.org/2000/svg">
<path d="M18.2727 90.3977L17.8393 91.2989L17.8439 91.3011L18.2727 90.3977ZM9.71591 83.3068L8.8955 83.8786L8.89843 83.8828L9.71591 83.3068ZM6.375 73.0114V72.0114H5.33908L5.37562 73.0466L6.375 73.0114ZM18.6477 73.0114L19.6446 72.9323L19.5715 72.0114H18.6477V73.0114ZM22.3636 80.0341L21.7351 80.8119L21.7399 80.8157L22.3636 80.0341ZM37.0909 81.0227L37.5979 81.8847L37.0909 81.0227ZM43.2955 69.3636L42.2955 69.355L42.2954 69.3637L42.2955 69.3724L43.2955 69.3636ZM41.625 62.3409L40.7508 62.8265L41.625 62.3409ZM36.9545 57.5341L36.4415 58.3925L36.4488 58.3968L36.9545 57.5341ZM30.1364 55.7614L30.1255 56.7614H30.1364V55.7614ZM19.1591 60.0568L18.9971 61.0436L19.5323 61.1315L19.8979 60.7308L19.1591 60.0568ZM7.73864 58.1818L6.74373 58.081L6.64896 59.0163L7.57663 59.1686L7.73864 58.1818ZM11.3864 22.1818V21.1818H10.4826L10.3915 22.081L11.3864 22.1818ZM51.8864 22.1818H52.8864V21.1818H51.8864V22.1818ZM51.8864 32.75V33.75H52.8864V32.75H51.8864ZM21.8523 32.75V31.75H20.955L20.8581 32.642L21.8523 32.75ZM19.8409 51.2614L18.8468 51.1533L18.7264 52.2614H19.8409V51.2614ZM20.25 51.2614V52.2614H20.7122L21.0117 51.9093L20.25 51.2614ZM25.7386 47.4773L26.1283 48.3983L26.1357 48.395L25.7386 47.4773ZM44.8295 48.9432L44.3133 49.7996L44.3176 49.8022L44.8295 48.9432ZM52.6705 57.125L51.7939 57.6063L52.6705 57.125ZM52.3295 81.3977L51.4687 80.8888L51.4678 80.8905L52.3295 81.3977ZM43.5 89.8864L43.9789 90.7643L43.9807 90.7632L43.5 89.8864ZM30.4773 91.9545C26.0589 91.9545 22.1405 91.1267 18.7016 89.4943L17.8439 91.3011C21.5868 93.0778 25.8048 93.9545 30.4773 93.9545V91.9545ZM18.7062 89.4966C15.2554 87.8367 12.5405 85.5797 10.5334 82.7309L8.89843 83.8828C11.1186 87.0339 14.1083 89.5042 17.8393 91.2989L18.7062 89.4966ZM10.5363 82.735C8.56187 79.9021 7.50436 76.6589 7.37438 72.9761L5.37562 73.0466C5.51837 77.0911 6.68813 80.7115 8.89551 83.8786L10.5363 82.735ZM6.375 74.0114H18.6477V72.0114H6.375V74.0114ZM17.6509 73.0905C17.9 76.2299 19.2734 78.8226 21.7351 80.8119L22.9922 79.2563C20.9539 77.6092 19.85 75.5201 19.6446 72.9323L17.6509 73.0905ZM21.7399 80.8157C24.1846 82.7665 27.115 83.7273 30.4773 83.7273V81.7273C27.5213 81.7273 25.0427 80.8925 22.9874 79.2524L21.7399 80.8157ZM30.4773 83.7273C33.1135 83.7273 35.4966 83.1207 37.5979 81.8847L36.5839 80.1608C34.8216 81.1975 32.7955 81.7273 30.4773 81.7273V83.7273ZM37.5979 81.8847C39.6895 80.6544 41.3376 78.9415 42.5351 76.7664L40.7831 75.8018C39.7534 77.6721 38.356 79.1184 36.5839 80.1608L37.5979 81.8847ZM42.5351 76.7664C43.7412 74.5757 44.3195 72.096 44.2954 69.3549L42.2955 69.3724C42.3169 71.8131 41.8042 73.9471 40.7831 75.8018L42.5351 76.7664ZM44.2954 69.3723C44.3194 66.5853 43.7297 64.0702 42.4992 61.8553L40.7508 62.8265C41.793 64.7025 42.3169 66.8692 42.2955 69.355L44.2954 69.3723ZM42.4992 61.8553C41.2778 59.6569 39.5952 57.9229 37.4603 56.6714L36.4488 58.3968C38.2684 59.4634 39.6994 60.934 40.7508 62.8265L42.4992 61.8553ZM37.4676 56.6757C35.3179 55.3909 32.8639 54.7614 30.1364 54.7614V56.7614C32.5452 56.7614 34.6366 57.3137 36.4415 58.3925L37.4676 56.6757ZM30.1472 54.7614C27.9223 54.7372 25.7378 55.1491 23.5999 55.9898L24.3319 57.8511C26.2395 57.1009 28.1686 56.74 30.1255 56.7613L30.1472 54.7614ZM23.5999 55.9898C21.4683 56.8281 19.7268 57.9507 18.4203 59.3829L19.8979 60.7308C20.955 59.572 22.4181 58.6037 24.3319 57.8511L23.5999 55.9898ZM19.3211 59.07L7.90065 57.195L7.57663 59.1686L18.9971 61.0436L19.3211 59.07ZM8.73354 58.2826L12.3813 22.2826L10.3915 22.081L6.74373 58.081L8.73354 58.2826ZM11.3864 23.1818H51.8864V21.1818H11.3864V23.1818ZM50.8864 22.1818V32.75H52.8864V22.1818H50.8864ZM51.8864 31.75H21.8523V33.75H51.8864V31.75ZM20.8581 32.642L18.8468 51.1533L20.8351 51.3694L22.8464 32.858L20.8581 32.642ZM19.8409 52.2614H20.25V50.2614H19.8409V52.2614ZM21.0117 51.9093C22.1816 50.5342 23.8688 49.3542 26.1283 48.3982L25.349 46.5563C22.8812 47.6004 20.9093 48.9431 19.4883 50.6134L21.0117 51.9093ZM26.1357 48.395C28.3626 47.4315 30.8168 46.9432 33.5114 46.9432V44.9432C30.5696 44.9432 27.8419 45.4776 25.3415 46.5595L26.1357 48.395ZM33.5114 46.9432C37.5738 46.9432 41.165 47.902 44.3133 49.7996L45.3458 48.0867C41.8577 45.9843 37.9034 44.9432 33.5114 44.9432V46.9432ZM44.3176 49.8022C47.4785 51.6858 49.9681 54.2807 51.7939 57.6063L53.547 56.6437C51.5546 53.0147 48.8169 50.1551 45.3414 48.0841L44.3176 49.8022ZM51.7939 57.6063C53.612 60.9179 54.5341 64.7258 54.5341 69.0568H56.5341C56.5341 64.4333 55.5471 60.2866 53.547 56.6437L51.7939 57.6063ZM54.5341 69.0568C54.5341 73.5097 53.5051 77.4443 51.4687 80.8888L53.1904 81.9066C55.4267 78.1239 56.5341 73.8312 56.5341 69.0568H54.5341ZM51.4678 80.8905C49.4486 84.3209 46.6394 87.025 43.0193 89.0095L43.9807 90.7632C47.9061 88.6114 50.9832 85.6564 53.1913 81.905L51.4678 80.8905ZM43.0211 89.0085C39.4393 90.9622 35.2678 91.9545 30.4773 91.9545V93.9545C35.5503 93.9545 40.0607 92.9015 43.9789 90.7643L43.0211 89.0085Z" fill="url(#paint0_linear_203_20668)"/>
<path d="M95.9318 87.875V40.6932H106.636V87.875H95.9318ZM77.6932 69.6364V58.9318H124.875V69.6364H77.6932Z" fill="url(#paint1_linear_203_20668)"/>
<defs>
<linearGradient id="paint0_linear_203_20668" x1="82.1097" y1="-1.35492e-05" x2="-14.9106" y2="13.5883" gradientUnits="userSpaceOnUse">
<stop stop-color="#BB44F0"/>
<stop offset="0.450755" stop-color="#F974CC"/>
<stop offset="1" stop-color="#FFC9BB"/>
</linearGradient>
<linearGradient id="paint1_linear_203_20668" x1="156.494" y1="-1.35492e-05" x2="53.3803" y2="15.3887" gradientUnits="userSpaceOnUse">
<stop stop-color="#BB44F0"/>
<stop offset="0.450755" stop-color="#F974CC"/>
<stop offset="1" stop-color="#FFC9BB"/>
</linearGradient>
</defs>
</svg>
